<?xml version="1.0" standalone="no"?>
<!DOCTYPE svg PUBLIC "-//W3C//DTD SVG 20010904//EN"
 "http://www.w3.org/TR/2001/REC-SVG-20010904/DTD/svg10.dtd">
<svg version="1.0" xmlns="http://www.w3.org/2000/svg"
 width="300.000000pt" height="222.000000pt" viewBox="0 0 300.000000 222.000000"
 preserveAspectRatio="xMidYMid meet">
<metadata>
Created by potrace 1.10, written by Peter Selinger 2001-2011
</metadata>
<g transform="translate(0.000000,222.000000) scale(0.100000,-0.100000)"
fill="#999999" stroke="none">
<path d="M2805 2203 c-97 -9 -464 -65 -610 -93 -396 -76 -946 -214 -968 -244
-7 -9 -106 -47 -222 -85 -251 -82 -460 -156 -497 -176 -30 -17 -38 -18 -38 -6
0 5 12 14 27 20 16 5 53 24 83 42 120 70 514 245 592 264 26 7 28 5 28 -23 0
-17 5 -34 10 -37 6 -4 10 15 10 49 0 31 -2 56 -5 56 -9 0 -212 -78 -285 -110
-102 -44 -415 -201 -503 -251 -206 -119 -427 -252 -424 -256 2 -2 58 23 123
56 659 328 1777 639 2669 740 99 12 186 21 193 21 18 0 15 27 -4 34 -16 6
-107 6 -179 -1z"/>
<path d="M490 1999 c-107 -44 -219 -87 -247 -96 -29 -9 -53 -21 -53 -26 0 -5
8 -6 18 -2 9 3 126 25 260 48 l242 41 0 58 c0 40 -4 58 -12 57 -7 0 -101 -36
-208 -80z m190 13 c0 -27 -2 -28 -87 -41 -49 -8 -94 -16 -100 -18 -7 -3 -13
-1 -13 4 0 9 162 80 188 82 7 1 12 -11 12 -27z"/>
<path d="M675 1914 c-237 -39 -449 -75 -472 -79 l-43 -6 0 -160 c0 -144 6
-180 24 -150 10 15 278 163 471 259 197 98 264 128 400 178 50 18 81 33 70 32
-11 -1 -213 -34 -450 -74z m115 -40 c-169 -81 -370 -186 -481 -251 -132 -76
-120 -82 -117 60 l3 122 50 8 c28 4 70 12 95 17 25 5 63 12 85 15 43 6 89 14
225 38 103 19 134 24 180 25 32 2 28 -2 -40 -34z"/>
<path d="M2790 1950 l-45 -5 -5 -274 c-4 -238 -7 -275 -21 -284 -9 -6 -24 -7
-33 -4 -15 6 -17 33 -16 279 1 222 -1 273 -12 271 -7 -1 -30 -4 -50 -8 l-38
-6 0 -284 c0 -277 1 -286 21 -306 43 -43 209 -7 236 51 8 17 12 111 14 298 1
150 0 274 -2 275 -2 1 -24 0 -49 -3z m29 -272 c-1 -153 -5 -256 -13 -277 -13
-42 -54 -59 -138 -60 -63 -1 -82 15 -74 61 3 13 5 130 5 261 1 230 2 237 21
237 11 0 20 -6 21 -12 0 -7 0 -118 -1 -246 -2 -260 3 -282 59 -282 63 0 65 19
70 488 1 70 2 72 26 72 l24 0 0 -242z"/>
<path d="M2362 1887 c-41 -8 -53 -15 -57 -31 -2 -12 -23 -149 -45 -306 -22
-157 -43 -293 -46 -302 -6 -21 -6 -21 51 -7 48 12 48 11 61 137 4 34 9 64 13
66 3 2 23 6 44 10 l37 7 0 -49 c0 -27 3 -69 6 -94 l6 -44 54 10 c47 8 53 12
49 30 -3 12 -18 131 -35 266 -17 135 -33 262 -36 283 -6 41 -9 42 -102 24z
m73 -30 c3 -10 26 -177 41 -302 2 -16 6 -50 9 -75 3 -25 9 -73 12 -107 5 -62
5 -63 -20 -63 -23 0 -25 4 -32 75 -7 80 -18 95 -68 95 -48 0 -67 -28 -80 -120
-10 -70 -15 -85 -31 -88 -17 -4 -18 1 -12 55 4 32 14 96 21 143 8 47 21 137
30 200 27 185 27 184 60 190 53 10 66 9 70 -3z"/>
<path d="M2350 1774 c-6 -14 -10 -42 -10 -62 0 -20 -6 -69 -14 -109 -12 -63
-12 -75 1 -93 12 -17 21 -20 46 -14 34 7 69 32 62 44 -2 4 -10 61 -16 126 -6
65 -17 122 -23 126 -21 14 -36 8 -46 -18z m44 -96 c4 -61 9 -122 12 -134 5
-18 1 -22 -28 -27 -18 -2 -33 -4 -34 -3 -4 6 32 276 37 276 3 0 9 -50 13 -112z"/>
<path d="M2178 1855 c-2 -3 -45 -13 -94 -23 l-89 -18 -3 -318 -3 -319 23 7
c13 3 58 14 101 23 l77 18 0 37 0 37 -47 -14 c-27 -8 -49 -15 -51 -15 -1 0 -1
51 0 112 l3 113 48 9 c45 8 47 9 47 43 0 35 0 35 -36 29 -19 -4 -43 -10 -51
-13 -13 -5 -15 -2 -10 18 4 13 7 60 7 105 l0 81 47 9 c46 9 47 10 50 47 2 33
-5 46 -19 32z m-18 -44 c0 -5 -14 -11 -32 -15 -54 -11 -58 -19 -58 -131 0
-116 8 -132 61 -121 18 3 28 2 24 -4 -3 -6 -14 -10 -23 -10 -10 0 -28 -7 -40
-16 -20 -14 -22 -23 -22 -117 0 -56 3 -112 6 -125 6 -21 11 -23 48 -17 62 10
32 -9 -41 -27 -34 -9 -63 -14 -65 -13 -2 2 -1 133 2 291 l5 289 55 11 c71 15
80 16 80 5z"/>
<path d="M1785 1763 c-33 -7 -77 -18 -97 -24 l-38 -10 0 -320 0 -319 28 6 c76
19 71 8 74 171 l3 148 30 0 30 0 5 -122 c3 -69 10 -127 17 -134 7 -7 27 -8 57
-4 39 6 46 10 39 24 -4 9 -9 70 -11 136 -3 124 -13 154 -51 156 -11 0 -9 3 6
9 29 12 39 34 47 103 9 71 -2 163 -21 183 -17 17 -38 16 -118 -3z m103 -25 c8
-8 12 -46 12 -104 0 -84 -2 -95 -25 -122 -25 -30 -32 -52 -16 -52 5 0 16 -16
25 -35 14 -28 17 -58 14 -138 -3 -97 -4 -102 -25 -105 -23 -3 -23 -2 -23 106
0 95 -3 113 -21 136 -16 20 -26 25 -47 20 -55 -12 -63 -34 -60 -172 2 -107 -1
-127 -15 -136 -9 -6 -19 -8 -22 -4 -5 5 -7 299 -2 498 2 68 5 85 17 85 8 0 21
4 28 9 21 13 25 0 9 -26 -19 -31 -17 -208 2 -232 19 -23 45 -20 78 8 27 23 28
29 31 121 4 104 -7 134 -52 136 -19 1 -18 2 4 9 38 12 75 11 88 -2z m-70 -119
c4 -107 -1 -125 -38 -137 l-30 -11 0 47 c0 103 12 181 29 185 32 9 36 -1 39
-84z"/>
<path d="M1520 1694 c-47 -13 -102 -29 -122 -34 -36 -10 -38 -13 -38 -50 l0
-39 41 14 c23 8 42 15 43 15 0 0 0 -130 -2 -288 l-3 -289 50 16 51 16 2 255
c1 140 2 269 3 285 1 26 6 32 43 43 38 13 42 17 42 48 0 40 1 40 -110 8z m75
-24 c-3 -5 -14 -10 -24 -10 -46 0 -49 -20 -55 -300 -4 -146 -6 -270 -6 -276 0
-7 -11 -14 -25 -16 l-25 -5 4 86 c3 47 6 166 6 264 2 197 -2 213 -53 203 -19
-4 -27 -2 -25 6 2 6 40 22 84 34 89 24 128 29 119 14z"/>
<path d="M1283 1628 l-33 -11 0 -185 c0 -115 4 -182 9 -177 5 6 11 82 12 170
2 151 6 174 32 175 11 0 -3 -582 -13 -594 -19 -20 -37 7 -72 110 -21 60 -39
116 -40 124 -4 18 -18 30 -38 30 -9 0 -11 -3 -4 -8 6 -4 33 -73 60 -154 53
-160 45 -152 112 -127 l22 9 0 262 c0 145 3 291 5 326 5 67 4 68 -52 50z"/>
<path d="M1090 1566 l-35 -13 -3 -333 c-4 -320 -3 -333 15 -325 10 4 30 12 46
17 l27 10 -2 161 c-2 115 -6 161 -15 164 -9 3 -13 -34 -15 -153 -2 -116 -6
-158 -16 -162 -10 -3 -12 59 -10 300 l3 303 24 0 c17 0 26 -7 32 -25 4 -14 19
-68 34 -120 29 -103 44 -140 56 -140 9 0 -7 66 -51 218 -18 61 -38 112 -44
111 -6 0 -27 -6 -46 -13z"/>
<path d="M929 1513 l-46 -16 -6 -231 c-10 -356 -9 -449 6 -443 6 3 31 12 53
21 l42 17 1 335 c1 184 1 334 -1 333 -2 0 -24 -8 -49 -16z m25 -165 c-2 -79
-5 -216 -6 -306 -1 -144 -4 -164 -19 -173 -10 -5 -20 -9 -24 -9 -3 0 -5 138
-5 306 2 303 2 305 23 314 12 5 25 9 29 9 4 1 5 -63 2 -141z"/>
<path d="M460 1436 c-8 -7 -40 -22 -70 -31 -125 -40 -181 -89 -199 -175 -7
-32 -11 -186 -11 -408 0 -413 -1 -408 77 -399 52 6 146 61 185 109 17 20 32
55 38 87 12 62 14 214 3 209 -5 -2 -29 -14 -55 -28 l-48 -24 0 -97 c0 -88 -2
-101 -23 -125 -15 -17 -30 -25 -39 -22 -20 8 -28 227 -20 532 5 198 7 221 24
238 11 11 27 18 36 16 15 -3 17 -18 17 -111 0 -59 2 -106 5 -105 3 2 27 12 53
23 l47 20 0 137 c0 75 3 143 6 152 8 20 -7 21 -26 2z m0 -151 c0 -103 -2 -115
-19 -125 -35 -18 -38 -11 -40 72 -1 45 -7 88 -13 95 -18 22 -62 15 -88 -12
l-24 -26 -4 -349 c-3 -192 -2 -364 2 -383 9 -47 43 -62 83 -37 40 24 46 48 52
206 1 33 6 43 26 52 l25 12 0 -84 c0 -50 -6 -97 -15 -118 -24 -60 -122 -131
-190 -139 -23 -3 -32 1 -41 19 -14 29 -18 530 -5 680 12 137 31 168 128 207
37 15 77 31 88 35 11 5 23 9 28 9 4 1 7 -51 7 -114z"/>
<path d="M670 1420 c-133 -48 -137 -58 -145 -385 -8 -309 -3 -334 66 -335 15
0 58 16 98 36 108 54 105 44 109 385 3 255 2 288 -13 303 -21 21 -47 20 -115
-4z m104 -105 c14 -131 -6 -490 -29 -515 -24 -27 -131 -72 -163 -68 l-27 3 1
276 c0 195 4 285 13 306 18 44 114 94 171 90 24 -2 25 -6 34 -92z"/>
<path d="M641 1360 c-12 -11 -26 -35 -30 -52 -4 -18 -8 -139 -10 -268 -2 -224
-2 -236 17 -254 26 -23 60 -17 84 14 17 24 19 46 19 285 -1 253 -1 260 -22
278 -26 21 -28 21 -58 -3z m52 -279 c-2 -218 -5 -267 -17 -279 -8 -8 -22 -12
-30 -9 -14 6 -16 38 -16 259 0 216 2 257 16 276 9 13 23 22 32 20 15 -3 17
-29 15 -267z"/>
<path d="M2950 1163 c-14 -2 -99 -15 -190 -29 -901 -137 -1899 -494 -2520
-901 -189 -124 -230 -159 -230 -195 0 -28 2 -29 19 -17 260 190 401 277 662
409 520 263 1147 474 1799 605 124 24 287 53 362 62 l138 17 0 28 c0 15 -3 27
-7 27 -5 -1 -19 -4 -33 -6z"/>
<path d="M2840 1040 c-24 -24 -25 -48 -4 -78 30 -43 104 -17 104 36 0 28 -34
62 -60 62 -11 0 -29 -9 -40 -20z m70 -10 c11 -11 20 -23 20 -28 0 -18 -33 -52
-50 -52 -17 0 -50 34 -50 52 0 11 38 48 50 48 6 0 19 -9 30 -20z"/>
<path d="M2861 998 c0 -26 2 -29 8 -14 7 19 8 19 15 0 8 -18 9 -18 17 4 11 29
4 42 -22 42 -15 0 -19 -7 -18 -32z m36 16 c-3 -3 -12 -4 -19 -1 -8 3 -5 6 6 6
11 1 17 -2 13 -5z"/>
</g>
</svg>
