<?xml version="1.0" standalone="no"?>
<!DOCTYPE svg PUBLIC "-//W3C//DTD SVG 20010904//EN"
 "http://www.w3.org/TR/2001/REC-SVG-20010904/DTD/svg10.dtd">
<svg version="1.0" xmlns="http://www.w3.org/2000/svg"
 width="300.000000pt" height="211.000000pt" viewBox="0 0 300.000000 211.000000"
 preserveAspectRatio="xMidYMid meet">
<metadata>
Created by potrace 1.10, written by Peter Selinger 2001-2011
</metadata>
<g transform="translate(0.000000,211.000000) scale(0.100000,-0.100000)"
fill="#cccccc" stroke="none">
<path d="M1328 1649 c-25 -14 -22 -34 7 -47 26 -12 34 -32 12 -32 -7 0 -19 6
-26 13 -10 10 -12 8 -9 -8 4 -19 20 -22 56 -10 21 7 13 35 -13 47 -30 14 -33
33 -4 25 12 -3 19 -1 16 6 -5 16 -19 18 -39 6z"/>
<path d="M1380 1646 c0 -9 7 -12 20 -9 17 5 20 0 20 -26 0 -17 -4 -31 -10 -31
-5 0 -10 -4 -10 -10 0 -5 11 -10 25 -10 14 0 25 5 25 10 0 6 -4 10 -10 10 -5
0 -10 14 -10 31 0 26 3 29 20 24 14 -5 20 -2 20 9 0 12 -11 16 -45 16 -32 0
-45 -4 -45 -14z"/>
<path d="M1539 1658 c-6 -29 -3 -78 5 -78 6 0 12 18 12 40 1 22 -2 40 -7 40
-5 0 -9 -1 -10 -2z"/>
<path d="M1227 1643 c-14 -4 -16 -8 -6 -19 6 -7 9 -28 7 -44 -5 -30 -4 -31 30
-28 20 2 37 9 40 16 3 9 -3 11 -22 6 -17 -4 -26 -2 -26 6 0 7 7 10 15 6 8 -3
15 0 15 7 0 7 3 22 6 35 5 18 3 22 -17 21 -13 -1 -32 -3 -42 -6z m41 -24 c-2
-6 -8 -10 -13 -10 -5 0 -11 4 -13 10 -2 6 4 11 13 11 9 0 15 -5 13 -11z"/>
<path d="M1580 1639 c0 -6 9 -8 20 -4 26 8 25 -1 -5 -37 -26 -30 -32 -48 -16
-48 5 0 14 13 21 30 7 16 18 35 26 41 22 18 16 29 -16 29 -16 0 -30 -5 -30
-11z"/>
<path d="M1667 1632 c-22 -24 -22 -38 0 -21 14 12 16 12 11 -1 -3 -8 -15 -14
-27 -13 -11 2 -21 -2 -21 -7 0 -6 11 -10 24 -10 19 0 23 -4 19 -20 -3 -11 0
-20 6 -20 6 0 11 9 11 21 0 11 5 17 10 14 6 -3 10 -1 10 4 0 6 -5 11 -11 11
-7 0 -10 12 -7 30 5 34 -2 38 -25 12z"/>
<path d="M1732 1638 c-16 -16 -15 -28 4 -49 14 -16 14 -18 -5 -24 -19 -6 -30
-25 -15 -25 15 0 63 43 69 61 12 36 -27 63 -53 37z m36 -25 c-4 -22 -22 -20
-26 1 -2 10 3 16 13 16 10 0 15 -7 13 -17z"/>
<path d="M995 1593 c-172 -31 -353 -75 -337 -81 7 -2 34 1 60 8 78 20 191 40
306 55 113 15 126 19 110 34 -5 5 -66 -2 -139 -16z"/>
<path d="M1864 1608 c-10 -16 2 -19 113 -33 59 -7 155 -23 213 -36 134 -28
170 -33 150 -21 -38 23 -468 104 -476 90z"/>
<path d="M1470 1575 c0 -8 5 -15 10 -15 6 0 10 7 10 15 0 8 -4 15 -10 15 -5 0
-10 -7 -10 -15z"/>
<path d="M1750 1485 c-11 -13 -11 -19 3 -32 21 -21 49 -9 45 19 -4 28 -30 35
-48 13z m33 -26 c-13 -13 -33 -4 -32 14 0 9 2 9 6 0 8 -20 26 -15 18 5 -5 14
-4 15 6 5 10 -10 10 -16 2 -24z"/>
<path d="M1843 1469 c3 -11 -3 -86 -14 -167 -27 -204 -29 -212 -39 -212 -6 0
-10 -4 -10 -10 0 -5 19 -10 43 -10 23 0 58 -4 76 -10 19 -5 35 -9 36 -7 1 1 5
22 9 47 6 38 5 42 -6 28 -9 -11 -23 -15 -46 -11 -31 5 -32 7 -27 42 15 88 16
91 39 91 12 0 27 -5 32 -10 7 -7 14 4 21 36 8 32 8 43 0 35 -6 -6 -24 -11 -39
-11 -31 0 -33 11 -21 83 5 35 8 38 32 32 14 -3 32 -13 39 -22 6 -9 12 -15 13
-12 0 2 2 23 4 47 l3 42 -36 0 c-20 0 -54 4 -75 9 -36 9 -38 8 -34 -10z m55
-36 c-6 -7 -18 -13 -27 -12 -10 0 -12 2 -3 6 6 2 10 9 7 13 -3 5 3 8 14 7 15
-1 17 -4 9 -14z m57 -1 c-3 -3 -11 0 -18 7 -9 10 -8 11 6 5 10 -3 15 -9 12
-12z m-88 -54 c-3 -8 -6 -5 -6 6 -1 11 2 17 5 13 3 -3 4 -12 1 -19z m-3 -63
c-4 -8 -2 -15 3 -15 5 0 18 -7 29 -16 10 -8 13 -13 7 -9 -13 6 -61 -21 -55
-30 2 -3 1 -11 -2 -18 -2 -6 -4 -2 -2 10 1 12 5 25 8 29 4 3 4 12 1 20 -5 14
2 44 11 44 3 0 3 -7 0 -15z m-25 -149 c-9 -8 -10 -7 -5 7 3 10 7 24 7 30 1 7
3 4 6 -7 3 -10 -1 -23 -8 -30z m29 -66 c15 -9 15 -9 -3 -7 -31 4 -45 16 -38
33 5 15 7 15 15 0 5 -8 16 -20 26 -26z"/>
<path d="M1327 1459 c-55 -32 -78 -217 -38 -305 34 -74 87 -93 138 -50 35 30
53 83 53 160 0 150 -72 242 -153 195z m13 -26 c0 -5 -10 -19 -21 -33 l-20 -25
16 33 c15 30 25 41 25 25z m74 -9 c5 -14 4 -15 -9 -4 -17 14 -19 20 -6 20 5 0
12 -7 15 -16z m1 -104 c8 -82 -1 -164 -21 -181 -41 -34 -68 41 -62 174 2 75 6
91 23 103 18 13 22 13 36 -5 10 -12 20 -50 24 -91z m38 -18 c2 -29 1 -52 -3
-52 -4 0 -7 20 -8 44 0 25 -3 55 -7 68 -4 18 -4 19 4 7 6 -8 12 -39 14 -67z
m-143 -12 c0 -38 -4 -70 -8 -70 -4 0 -7 26 -6 58 3 78 3 82 9 82 3 0 5 -31 5
-70z m137 -92 c-3 -7 -5 -2 -5 12 0 14 2 19 5 13 2 -7 2 -19 0 -25z m-137 2
c0 -5 -1 -11 -2 -12 -1 -2 4 -14 12 -28 8 -17 9 -22 1 -14 -7 6 -13 18 -14 25
-2 8 -6 20 -10 27 -5 7 -4 12 2 12 6 0 11 -4 11 -10z m120 -59 c-5 -11 -15
-23 -21 -27 -6 -3 -3 5 6 20 20 30 30 35 15 7z m-51 -37 c14 -12 -19 -1 -35
12 -18 14 -18 14 6 3 14 -6 27 -13 29 -15z"/>
<path d="M1517 1460 c14 -15 8 -294 -7 -342 -8 -26 -7 -28 18 -28 l27 0 -1
116 c-1 63 2 112 5 107 16 -19 82 -203 76 -213 -3 -5 0 -10 9 -10 8 0 21 -3
29 -6 13 -4 15 13 16 113 1 141 10 233 24 251 7 9 1 12 -24 12 l-34 0 3 -68
c2 -38 2 -84 0 -103 -3 -30 -7 -24 -38 61 -19 52 -33 98 -32 103 1 4 -9 7 -22
7 -13 0 -33 3 -43 6 -15 6 -16 4 -6 -6z m73 -97 c13 -27 23 -56 22 -66 0 -10
4 -15 10 -11 6 4 8 3 5 -3 -4 -5 5 -16 18 -23 20 -11 25 -21 25 -54 0 -53 -14
-77 -25 -44 -4 12 -8 26 -9 30 0 3 -4 9 -8 13 -4 4 -4 14 -1 23 5 11 3 13 -7
7 -10 -6 -12 -4 -7 8 3 8 -1 21 -9 27 -8 7 -14 22 -14 33 0 11 -3 18 -6 14
-14 -14 -34 24 -32 62 2 49 9 46 38 -16z"/>
<path d="M1156 1449 c-39 -4 -73 -6 -78 -3 -4 3 -7 -13 -5 -35 1 -23 5 -41 10
-41 4 0 7 4 7 9 0 5 9 11 20 14 11 3 20 3 20 1 0 -3 7 -68 15 -145 9 -77 13
-150 9 -161 -5 -17 -3 -20 11 -15 9 4 30 7 47 7 26 0 29 2 18 15 -10 12 -39
220 -40 288 0 20 30 23 49 5 11 -11 13 -10 7 5 -3 10 -6 30 -6 43 0 13 -3 23
-7 23 -5 -1 -39 -5 -77 -10z m25 -26 c-13 -3 -20 -8 -15 -11 6 -4 7 -20 3 -37
-7 -30 -7 -30 -8 -3 0 15 -6 30 -12 34 -15 9 9 24 36 22 16 0 15 -2 -4 -5z
m-14 -105 c-3 -8 -6 -5 -6 6 -1 11 2 17 5 13 3 -3 4 -12 1 -19z m23 -146 c0
-15 -2 -15 -10 -2 -13 20 -13 33 0 25 6 -3 10 -14 10 -23z"/>
<path d="M952 1421 c-51 -10 -70 -17 -63 -25 12 -15 64 -324 57 -342 -4 -10 2
-12 22 -8 15 3 49 8 75 12 26 4 48 10 47 15 0 4 0 21 0 38 0 28 -1 29 -16 15
-8 -9 -21 -16 -29 -16 -7 0 -20 -2 -27 -5 -11 -4 -17 9 -25 52 -6 32 -9 60 -7
62 2 3 20 5 39 5 25 1 34 5 30 14 -3 8 -5 26 -5 40 0 15 -4 22 -8 16 -4 -6
-22 -15 -39 -19 -28 -6 -33 -4 -33 13 0 11 -3 33 -6 49 -5 28 -3 31 27 37 21
4 35 2 40 -6 14 -22 16 -4 5 32 l-11 35 -73 -14z m26 -26 c-2 -1 -13 -7 -25
-13 -16 -9 -22 -9 -26 2 -4 9 4 13 24 13 16 0 28 -1 27 -2z m-12 -139 c3 -9
13 -12 22 -9 9 4 6 -3 -8 -14 -29 -25 -27 -25 -34 10 -5 28 10 38 20 13z m13
-131 c0 -20 0 -20 -8 0 -4 11 -11 34 -14 50 l-6 30 14 -30 c8 -16 14 -39 14
-50z m20 -39 c10 -12 8 -13 -8 -9 -12 3 -21 9 -21 14 0 14 16 11 29 -5z"/>
<path d="M2041 1386 c-13 -13 -25 -42 -28 -65 -5 -35 0 -50 29 -99 45 -74 49
-87 38 -117 -22 -57 -75 -33 -87 39 l-7 41 -7 -50 c-3 -28 -9 -60 -13 -72 -6
-18 -3 -20 12 -16 11 2 23 0 26 -6 4 -6 23 -11 42 -11 42 0 79 35 94 90 13 46
2 83 -44 150 -29 42 -34 55 -25 71 6 11 17 23 26 26 21 8 56 -34 50 -59 -3
-10 -2 -20 3 -23 4 -2 10 14 13 38 2 23 8 51 13 61 6 16 4 18 -9 13 -9 -3 -19
-2 -22 3 -4 6 -23 10 -44 10 -27 0 -44 -7 -60 -24z m0 -49 c-10 -9 -11 -8 -5
6 3 10 9 15 12 12 3 -3 0 -11 -7 -18z m9 -47 c0 -11 8 -24 18 -29 27 -15 48
-62 50 -111 1 -39 0 -41 -7 -15 -4 17 -13 40 -19 52 -15 27 -15 36 0 27 7 -4
8 -3 4 4 -4 6 -13 9 -21 5 -9 -3 -15 1 -15 10 0 8 -4 17 -8 19 -5 2 -12 18
-15 36 -4 21 -3 31 3 27 6 -3 10 -15 10 -25z m-39 -227 c13 -16 12 -17 -3 -4
-17 13 -22 21 -14 21 2 0 10 -8 17 -17z"/>
<path d="M765 1385 c-5 -2 -23 -6 -38 -10 -22 -4 -26 -9 -18 -18 14 -18 82
-322 76 -339 -5 -12 7 -11 66 4 40 10 74 19 75 21 7 6 -9 77 -17 77 -5 0 -6
-7 -3 -14 4 -11 -5 -18 -28 -24 -18 -5 -34 -8 -36 -7 -9 8 -62 264 -59 288 3
27 2 29 -18 22z m-11 -41 c3 -8 2 -12 -4 -9 -6 3 -10 10 -10 16 0 14 7 11 14
-7z m26 -95 c0 -4 -5 -11 -12 -15 -7 -4 -8 -3 -4 4 4 6 2 22 -4 34 -11 22 -10
22 4 4 9 -11 16 -23 16 -27z m18 -114 c-3 -3 -9 2 -12 12 -6 14 -5 15 5 6 7
-7 10 -15 7 -18z m46 -87 c6 -4 0 -8 -13 -8 -16 0 -22 4 -17 15 3 8 1 15 -4
15 -6 0 -10 8 -10 17 0 14 4 12 17 -7 9 -14 22 -28 27 -32z"/>
<path d="M2201 1349 c-14 -40 -14 -46 0 -32 8 8 49 8 49 -1 -2 -26 -81 -291
-89 -295 -7 -5 4 -12 27 -19 48 -15 55 -15 47 -2 -10 15 68 300 81 300 6 0 18
-7 25 -16 12 -15 14 -13 21 17 3 19 5 35 3 37 -2 3 -141 41 -152 42 0 0 -6
-14 -12 -31z m103 -18 c11 -1 -13 -31 -26 -31 -6 0 -7 7 -4 16 3 8 2 12 -3 9
-5 -3 -12 -1 -15 3 -5 8 10 9 48 3z m-27 -56 c0 -8 -4 -12 -9 -9 -5 3 -6 10
-3 15 9 13 12 11 12 -6z m-20 -60 c-3 -23 -17 -48 -17 -29 0 15 12 54 17 54 2
0 2 -11 0 -25z m-20 -75 c-2 -11 -6 -22 -9 -26 -4 -3 -4 -12 -1 -20 3 -8 0
-14 -6 -14 -14 0 -14 9 0 49 12 35 20 41 16 11z m-29 -104 c-7 -8 -15 -12 -17
-11 -5 6 10 25 20 25 5 0 4 -6 -3 -14z"/>
<path d="M532 1323 c-32 -11 -40 -18 -33 -27 18 -22 103 -307 98 -328 -4 -15
-2 -18 11 -13 9 3 29 9 45 12 25 5 39 23 17 23 -7 0 -50 116 -50 135 0 1 13 8
29 14 39 17 55 51 48 102 -12 89 -68 117 -165 82z m122 -34 c-4 -6 -11 -6 -20
2 -21 17 -17 31 6 19 11 -6 18 -15 14 -21z m-102 4 c-5 -10 -7 -25 -5 -33 3
-9 0 -8 -7 3 -9 14 -9 22 0 33 17 19 23 18 12 -3z m60 -10 c32 -37 35 -113 4
-113 -11 0 -46 94 -46 123 0 14 27 7 42 -10z m53 -13 c-3 -5 -2 -10 3 -10 5 0
9 -8 10 -17 1 -31 -9 -73 -19 -73 -5 0 -4 11 1 25 6 15 6 34 0 49 -5 13 -6 27
-3 30 10 10 15 7 8 -4z m-95 -71 c0 -8 9 -25 20 -37 11 -11 16 -23 11 -26 -5
-3 -14 1 -21 9 -7 8 -9 15 -6 15 4 0 0 10 -8 22 -9 12 -16 32 -16 43 0 16 2
17 10 5 5 -8 10 -22 10 -31z m63 -180 c4 -16 3 -18 -9 -8 -7 6 -11 15 -8 20 8
13 11 11 17 -12z"/>
<path d="M2437 1301 c3 -13 -26 -71 -84 -170 l-90 -150 29 -10 c21 -8 28 -7
26 2 -3 14 30 77 40 77 4 0 18 -3 30 -7 21 -5 23 -10 17 -42 -4 -20 -11 -41
-16 -47 -7 -8 0 -15 22 -23 46 -16 49 -15 49 27 0 20 9 104 20 186 11 82 19
150 18 151 -10 5 -60 25 -63 25 -2 0 -1 -9 2 -19z m37 -43 c-4 -6 -8 -23 -10
-37 -1 -14 -3 -33 -4 -41 -1 -9 -5 -6 -11 8 -14 37 1 99 22 86 5 -3 6 -10 3
-16z m-48 -120 c-11 -61 -13 -63 -34 -49 -11 7 -8 19 13 61 14 28 28 50 29 48
2 -1 -2 -29 -8 -60z m17 -76 c-4 -26 -8 -30 -19 -21 -11 9 -11 15 4 34 9 13
18 22 18 22 1 -1 -1 -17 -3 -35z m-16 -104 c-3 -8 -6 -5 -6 6 -1 11 2 17 5 13
3 -3 4 -12 1 -19z"/>
<path d="M338 1256 c-51 -19 -56 -24 -43 -37 17 -17 125 -289 125 -315 0 -11
5 -14 18 -9 9 4 27 10 40 12 25 6 29 18 9 26 -8 3 -23 32 -35 65 -26 69 -26
72 -9 72 8 0 23 10 35 23 39 42 23 134 -30 171 -29 20 -40 19 -110 -8z m100
-13 c7 -7 9 -13 4 -13 -4 0 -16 6 -26 13 -14 10 -15 14 -4 14 7 0 19 -6 26
-14z m-92 -39 c-3 -7 -1 -16 4 -19 6 -4 10 -11 10 -18 0 -8 -3 -8 -11 0 -15
15 -21 65 -7 57 5 -3 7 -12 4 -20z m79 -4 c18 -35 19 -72 3 -88 -10 -10 -18 1
-40 49 -15 34 -28 63 -28 65 0 2 11 4 25 4 17 0 29 -9 40 -30z m41 9 c10 -17
13 -89 3 -83 -5 3 -9 23 -9 45 0 24 -4 38 -10 34 -5 -3 -10 -1 -10 4 0 14 17
14 26 0z m-81 -97 c-3 -3 -11 0 -18 7 -9 10 -8 11 6 5 10 -3 15 -9 12 -12z
m23 -25 c6 -7 7 -18 3 -26 -7 -11 -11 -9 -20 7 -6 11 -11 23 -11 26 0 11 17 6
28 -7z m12 -72 c0 -8 -2 -15 -4 -15 -2 0 -6 7 -10 15 -3 8 -1 15 4 15 6 0 10
-7 10 -15z m30 -75 c0 -8 -7 -2 -15 14 -19 36 -19 45 0 20 8 -10 14 -26 15
-34z"/>
<path d="M2566 1238 c-9 -17 -16 -32 -16 -33 0 -1 14 0 30 3 17 2 30 2 30 -2
0 -18 -113 -286 -121 -286 -19 0 -8 -18 14 -23 12 -2 30 -8 39 -12 12 -5 17
-2 16 12 -1 14 96 270 106 281 8 8 36 -12 36 -26 0 -25 17 -1 25 36 5 25 3 32
-9 32 -8 0 -41 11 -72 25 -31 14 -58 25 -60 25 -1 0 -10 -14 -18 -32z m94 -39
c0 -4 -5 -11 -10 -14 -6 -4 -18 -25 -27 -46 -8 -22 -18 -37 -21 -34 -3 3 -1
15 5 28 30 63 31 73 14 85 -12 9 -10 9 12 0 15 -6 27 -15 27 -19z m-82 -164
c-6 -14 -13 -23 -15 -21 -5 5 15 46 22 46 3 0 -1 -11 -7 -25z m-24 -80 c-4 -8
-10 -12 -15 -9 -11 6 -2 24 11 24 5 0 7 -7 4 -15z"/>
<path d="M128 1206 c-24 -10 -26 -14 -13 -26 11 -12 55 -180 55 -212 0 -12
-35 -9 -48 4 -15 15 -16 3 -2 -23 6 -10 21 -19 35 -19 20 0 25 -7 34 -50 6
-28 11 -62 11 -76 0 -24 0 -24 28 -7 15 9 29 18 31 20 2 1 -1 8 -7 15 -15 19
-34 98 -28 115 5 13 10 13 33 -2 25 -17 26 -17 19 1 -4 14 0 12 14 -6 11 -14
25 -40 32 -57 7 -18 14 -33 18 -33 18 2 71 38 62 44 -6 3 -61 78 -123 166 -61
88 -115 160 -118 159 -3 0 -18 -6 -33 -13z m46 -37 c-3 -5 -1 -9 5 -9 5 0 8
-9 6 -19 -2 -14 1 -18 10 -15 11 5 38 -27 40 -46 0 -3 10 -16 23 -30 12 -13
22 -27 22 -31 0 -4 6 -14 13 -21 18 -18 67 -91 67 -100 0 -4 -6 -5 -14 -2 -9
3 -12 12 -9 21 4 11 2 14 -5 9 -10 -6 -16 4 -14 25 1 7 -79 33 -94 31 -6 -1
-20 25 -31 57 -23 70 -15 69 32 -5 19 -30 39 -54 45 -54 6 0 3 11 -6 25 -9 14
-13 25 -8 25 4 0 -10 18 -31 40 -21 22 -45 40 -52 40 -7 0 -13 6 -14 13 0 6
-2 24 -3 38 -1 18 3 25 11 22 7 -3 10 -9 7 -14z"/>
<path d="M2764 1184 c7 -18 -117 -293 -141 -311 -20 -16 -21 -15 52 -49 33
-15 63 -30 67 -32 3 -1 13 11 22 29 20 39 20 40 1 33 -9 -4 -28 -1 -44 6 l-29
11 25 52 c14 29 26 53 28 55 7 8 55 -23 55 -37 0 -8 9 2 20 24 23 44 24 48 11
40 -17 -10 -62 17 -55 34 3 9 11 28 16 44 5 15 14 27 19 27 21 0 59 -25 59
-39 1 -13 27 36 30 55 0 3 -31 21 -71 40 -52 25 -70 30 -65 18z m66 -53 c3 -2
-3 -1 -12 2 -10 4 -18 2 -18 -2 0 -5 -7 -12 -16 -15 -8 -3 -13 -2 -11 2 2 4 7
15 11 26 6 18 13 16 46 -13z m-74 -88 c-3 -8 -1 -24 5 -36 9 -18 9 -20 -2 -10
-10 10 -17 6 -34 -20 -12 -17 -25 -42 -30 -55 -4 -13 -9 -22 -11 -19 -6 6 35
108 50 127 8 8 11 21 8 29 -3 9 0 11 7 6 7 -4 10 -14 7 -22z m-76 -168 c0 -15
38 -41 53 -37 5 1 6 -2 2 -8 -10 -16 -86 27 -79 45 8 19 24 19 24 0z"/>
<path d="M1140 953 c0 -7 7 -13 15 -13 12 0 15 -16 15 -84 0 -65 -3 -85 -15
-90 -32 -12 -13 -26 35 -26 52 0 60 5 35 24 -18 13 -25 77 -8 83 6 2 25 -16
43 -40 29 -40 65 -67 90 -67 20 0 9 21 -15 32 -14 6 -35 27 -46 45 -19 30 -20
36 -6 51 25 29 29 57 9 75 -24 22 -152 30 -152 10z m124 -29 c10 -26 7 -33
-20 -50 -31 -21 -43 -9 -36 36 3 23 9 30 27 30 13 0 26 -7 29 -16z"/>
<path d="M1590 960 c0 -4 6 -12 13 -19 7 -7 12 -41 12 -89 0 -65 -3 -80 -20
-94 -19 -17 -18 -17 28 -18 44 0 63 14 34 26 -9 3 -15 24 -16 55 -1 28 -2 53
-4 57 -1 4 2 8 7 10 9 3 56 -100 56 -124 0 -15 19 -29 27 -20 4 3 7 15 8 25 2
25 48 141 56 141 10 0 -2 -144 -12 -148 -24 -10 -4 -22 36 -22 43 0 60 12 31
23 -9 4 -15 30 -18 84 -4 70 -3 80 16 95 28 23 20 26 -47 20 -54 -4 -57 -6
-42 -21 13 -16 13 -22 -7 -69 -12 -29 -25 -52 -29 -52 -13 0 -49 114 -39 124
18 18 11 21 -40 21 -27 0 -50 -2 -50 -5z"/>
<path d="M1350 951 c0 -5 7 -14 15 -21 11 -9 14 -27 11 -70 -3 -45 1 -66 15
-89 16 -27 24 -31 64 -31 35 0 52 6 70 25 22 21 25 33 25 94 0 38 5 73 10 76
22 13 8 25 -30 25 -40 0 -54 -15 -25 -26 21 -8 21 -121 -1 -152 -18 -27 -55
-29 -77 -4 -19 21 -24 146 -7 157 22 13 8 25 -30 25 -22 0 -40 -4 -40 -9z"/>
<path d="M201 643 c-23 -15 -27 -43 -11 -74 12 -22 52 -25 69 -5 10 12 6 14
-21 13 -30 -2 -33 0 -33 28 0 26 4 30 28 30 31 -1 36 10 8 18 -11 3 -29 -2
-40 -10z"/>
<path d="M2641 641 c-26 -26 -27 -53 -3 -74 22 -20 43 -22 60 -5 9 9 12 9 12
0 0 -7 9 -12 19 -12 12 0 18 7 17 18 0 9 6 17 14 17 9 0 14 -7 12 -17 -2 -11
3 -18 13 -18 10 0 14 5 11 13 -2 6 -10 29 -17 50 -7 20 -15 37 -19 37 -4 0
-14 -18 -23 -41 -10 -24 -20 -38 -27 -34 -6 4 -17 1 -25 -5 -12 -10 -18 -10
-30 0 -32 27 -6 78 35 65 11 -4 20 -2 20 4 0 6 -4 11 -9 11 -5 0 -16 3 -24 6
-9 3 -25 -4 -36 -15z m124 -31 c3 -5 1 -10 -4 -10 -6 0 -11 5 -11 10 0 6 2 10
4 10 3 0 8 -4 11 -10z"/>
<path d="M275 600 c0 -41 3 -50 18 -50 14 0 16 5 11 28 l-6 27 27 -28 c15 -16
30 -26 33 -22 4 3 0 10 -8 15 -8 5 -14 24 -15 42 0 29 -3 33 -30 36 -30 3 -30
2 -30 -48z m47 25 c0 -5 -5 -11 -11 -13 -6 -2 -11 4 -11 13 0 9 5 15 11 13 6
-2 11 -8 11 -13z"/>
<path d="M400 623 c-6 -16 -15 -36 -20 -45 -13 -24 -13 -28 5 -28 8 0 15 9 15
20 0 12 7 20 16 20 11 0 15 -6 11 -20 -3 -13 0 -20 10 -20 16 0 14 20 -7 75
-12 32 -18 32 -30 -2z"/>
<path d="M470 635 c8 -9 10 -29 7 -50 -5 -30 -3 -35 14 -35 10 0 19 5 19 10 0
6 -4 10 -10 10 -5 0 -10 5 -10 11 0 6 9 9 20 6 11 -3 20 0 20 6 0 7 3 22 6 35
6 20 3 22 -36 22 -37 0 -41 -2 -30 -15z m54 -16 c-7 -11 -34 -12 -34 -1 0 14
11 21 26 15 8 -3 11 -9 8 -14z"/>
<path d="M550 636 c0 -9 7 -12 20 -9 16 4 19 1 17 -26 -1 -17 -5 -31 -9 -31
-5 0 -8 -4 -8 -10 0 -5 12 -10 27 -10 21 0 24 3 15 12 -7 7 -12 25 -12 41 0
24 3 27 20 22 14 -5 20 -2 20 9 0 12 -11 16 -45 16 -32 0 -45 -4 -45 -14z"/>
<path d="M658 615 c2 -19 -1 -42 -8 -50 -11 -13 -7 -15 28 -15 26 0 42 5 45
15 5 11 0 13 -25 8 -24 -5 -30 -3 -26 8 3 8 12 13 20 11 9 -1 18 7 22 20 9 36
8 38 -27 38 -32 0 -33 -1 -29 -35z m47 15 c3 -6 -1 -13 -10 -16 -19 -8 -30 0
-20 15 8 14 22 14 30 1z"/>
<path d="M736 639 c9 -16 10 -61 1 -75 -4 -7 7 -11 27 -12 46 -2 73 28 60 66
-8 23 -16 27 -53 30 -32 2 -41 0 -35 -9z m67 -20 c14 -22 2 -49 -23 -49 -16 0
-20 6 -20 36 0 28 4 35 16 32 9 -2 21 -10 27 -19z"/>
<path d="M895 600 c0 -38 3 -50 15 -50 11 0 15 12 15 50 0 38 -4 50 -15 50
-11 0 -15 -12 -15 -50z"/>
<path d="M957 610 c4 -26 2 -40 -6 -40 -6 0 -11 -4 -11 -10 0 -5 12 -10 26
-10 22 0 24 2 14 14 -6 8 -10 25 -8 37 3 21 5 20 28 -14 14 -20 28 -37 32 -37
3 0 8 23 10 50 2 42 0 50 -15 50 -14 0 -16 -5 -11 -27 l7 -28 -30 28 c-16 15
-32 27 -35 27 -3 0 -4 -18 -1 -40z"/>
<path d="M1096 635 c-6 -17 9 -21 19 -5 4 6 10 8 15 5 11 -7 8 -65 -2 -65 -5
0 -8 -4 -8 -10 0 -5 12 -10 27 -10 21 0 24 3 15 12 -7 7 -12 28 -12 47 0 27 3
32 12 23 16 -16 28 -15 28 3 0 11 -12 15 -44 15 -30 0 -46 -5 -50 -15z"/>
<path d="M1205 600 c0 -35 4 -50 13 -50 9 0 11 7 7 20 -5 17 -2 20 24 20 33 0
39 -8 19 -28 -9 -9 -8 -12 8 -12 16 0 19 7 19 50 0 35 -4 50 -13 50 -9 0 -11
-7 -7 -20 5 -17 2 -20 -25 -20 -27 0 -30 3 -25 20 4 13 2 20 -7 20 -9 0 -13
-15 -13 -50z"/>
<path d="M1315 600 l0 -51 34 3 c19 2 36 9 39 15 2 9 -5 11 -29 6 -25 -5 -31
-3 -27 8 3 8 12 13 20 11 9 -1 18 7 22 20 9 36 8 38 -26 38 -33 0 -33 0 -33
-50z m50 30 c3 -6 -1 -13 -10 -16 -19 -8 -30 0 -20 15 8 14 22 14 30 1z"/>
<path d="M1455 600 c0 -39 3 -50 16 -50 12 0 15 7 12 24 -4 21 -2 23 21 19 21
-4 25 -10 21 -24 -4 -12 -2 -19 7 -19 9 0 13 15 13 50 0 35 -4 50 -13 50 -9 0
-11 -7 -7 -20 5 -17 2 -20 -25 -20 -28 0 -30 2 -20 20 9 17 8 20 -7 20 -15 0
-18 -9 -18 -50z"/>
<path d="M1565 601 l0 -49 34 2 c19 0 36 6 38 12 2 7 -6 10 -22 7 -18 -4 -25
-1 -25 10 0 11 6 13 21 10 16 -4 20 -2 17 8 -3 8 -12 13 -22 11 -9 -2 -16 4
-16 13 0 17 16 20 25 5 9 -15 25 -12 25 5 0 11 -11 15 -37 15 l-38 0 0 -49z"/>
<path d="M1671 613 c-7 -21 -15 -44 -17 -50 -3 -7 1 -13 9 -13 8 0 14 8 13 18
0 9 6 17 14 17 9 0 14 -7 12 -17 -2 -11 3 -18 14 -18 11 0 14 5 9 18 -4 9 -11
32 -17 50 -12 42 -22 41 -37 -5z m29 -3 c0 -5 -4 -10 -10 -10 -5 0 -10 5 -10
10 0 6 5 10 10 10 6 0 10 -4 10 -10z"/>
<path d="M1745 600 c0 -41 3 -50 18 -50 14 0 16 6 11 28 l-6 27 25 -30 c14
-16 29 -26 33 -22 5 4 2 12 -6 17 -8 5 -14 24 -15 42 0 29 -3 33 -30 36 -30 3
-30 2 -30 -48z m45 25 c0 -8 -4 -15 -10 -15 -5 0 -10 7 -10 15 0 8 5 15 10 15
6 0 10 -7 10 -15z"/>
<path d="M1840 636 c0 -9 7 -12 20 -9 17 5 20 0 20 -26 0 -17 -4 -31 -10 -31
-5 0 -10 -4 -10 -10 0 -5 11 -10 25 -10 14 0 25 5 25 10 0 6 -4 10 -10 10 -5
0 -10 14 -10 31 0 26 3 31 20 26 13 -3 20 0 20 9 0 10 -13 14 -45 14 -32 0
-45 -4 -45 -14z"/>
<path d="M1982 638 c-33 -33 6 -96 52 -84 29 7 45 49 29 75 -13 20 -64 26 -81
9z m68 -17 c15 -30 2 -53 -29 -49 -26 3 -38 26 -27 54 8 20 44 17 56 -5z"/>
<path d="M2085 600 c0 -45 2 -50 23 -50 12 0 22 5 22 10 0 6 -4 10 -10 10 -5
0 -10 5 -10 11 0 6 7 9 15 5 8 -3 15 0 15 7 0 7 3 22 6 35 6 20 3 22 -27 22
l-34 0 0 -50z m49 19 c-8 -14 -24 -10 -24 6 0 9 6 12 15 9 8 -4 12 -10 9 -15z"/>
<path d="M2215 598 c0 -29 -4 -62 -9 -73 -6 -16 -4 -16 14 4 15 17 20 36 19
61 -2 19 0 41 5 48 5 8 1 12 -11 12 -15 0 -18 -9 -18 -52z"/>
<path d="M2281 613 c-7 -21 -15 -44 -17 -50 -3 -8 1 -13 11 -13 10 0 15 7 13
18 -2 10 3 17 12 17 9 0 14 -7 12 -17 -2 -11 3 -18 13 -18 17 0 16 13 -7 73
-14 36 -23 34 -37 -10z m29 -3 c0 -5 -5 -10 -11 -10 -5 0 -7 5 -4 10 3 6 8 10
11 10 2 0 4 -4 4 -10z"/>
<path d="M2355 600 c0 -41 3 -50 17 -50 15 0 16 4 8 26 -13 32 -13 47 -1 39 5
-3 13 -19 16 -37 l7 -31 14 32 c18 42 17 51 -1 27 -15 -20 -15 -20 -17 0 0 10
-1 25 -1 32 1 6 -9 12 -21 12 -19 0 -21 -6 -21 -50z"/>
<path d="M2431 629 c6 -12 8 -34 5 -50 -4 -21 -2 -29 9 -29 10 0 12 9 8 35 -3
21 -1 41 7 50 11 13 8 15 -14 15 -24 0 -26 -2 -15 -21z"/>
<path d="M2494 608 c-10 -24 -20 -46 -22 -50 -2 -5 3 -8 12 -8 9 0 16 8 16 20
0 12 7 20 16 20 11 0 15 -6 11 -20 -4 -15 0 -20 14 -20 20 0 26 15 10 24 -5 3
-12 22 -15 41 -4 19 -11 35 -15 35 -5 0 -17 -19 -27 -42z"/>
<path d="M2575 600 c0 -38 4 -50 15 -50 11 0 15 12 15 50 0 38 -4 50 -15 50
-11 0 -15 -12 -15 -50z"/>
</g>
</svg>
