<?xml version="1.0" standalone="no"?>
<!DOCTYPE svg PUBLIC "-//W3C//DTD SVG 20010904//EN"
 "http://www.w3.org/TR/2001/REC-SVG-20010904/DTD/svg10.dtd">
<svg version="1.0" xmlns="http://www.w3.org/2000/svg"
 width="193.000000pt" height="108.000000pt" viewBox="0 0 193.000000 108.000000"
 preserveAspectRatio="xMidYMid meet">
<metadata>
Created by potrace 1.10, written by Peter Selinger 2001-2011
</metadata>
<g transform="translate(0.000000,108.000000) scale(0.100000,-0.100000)"
fill="#0098ca" stroke="none">
<path d="M1431 783 c-50 -25 -121 -100 -166 -178 -44 -76 -74 -95 -150 -95
-51 0 -58 14 -22 47 21 20 60 43 71 43 3 0 3 -7 0 -15 -8 -20 39 -20 56 0 18
22 3 35 -43 35 -50 0 -107 -25 -171 -74 -30 -22 -59 -36 -77 -36 -34 0 -37 13
-7 34 17 12 19 16 6 21 -8 3 -40 -8 -72 -25 -63 -33 -96 -38 -96 -16 0 21 58
54 119 68 47 11 54 10 63 -5 11 -21 31 -22 47 -3 21 25 -13 39 -81 33 -47 -4
-86 -18 -162 -55 -102 -51 -168 -69 -206 -57 -34 11 -23 20 39 33 68 14 108
41 98 65 -14 36 -131 14 -191 -35 -86 -70 -15 -116 134 -88 38 7 57 7 67 -1
16 -14 94 -5 134 15 24 12 29 12 29 1 0 -29 60 -33 110 -7 33 16 36 16 53 0
21 -22 104 -24 162 -3 22 8 41 15 42 15 1 0 -2 -12 -6 -26 l-7 -26 -184 1
c-471 3 -910 -72 -910 -154 0 -20 52 -45 93 -45 43 0 77 23 59 41 -18 19 -15
27 19 44 88 46 376 85 682 92 l237 6 0 -22 c0 -41 38 -98 87 -129 80 -52 156
-66 338 -67 141 0 165 2 199 20 22 11 44 28 50 38 24 41 -91 99 -259 131 -106
21 -237 36 -302 36 -41 0 -53 3 -53 15 0 28 29 73 63 99 52 40 60 35 51 -30
l-7 -56 39 6 c46 8 55 8 116 0 63 -8 132 16 208 72 l60 44 0 -28 c0 -35 -16
-52 -49 -52 -34 0 -56 -15 -46 -30 5 -9 22 -10 54 -5 25 3 72 10 104 14 54 6
83 24 71 43 -8 13 -31 9 -38 -7 -3 -8 -14 -15 -25 -15 -17 0 -18 5 -14 43 3
23 12 47 19 53 22 18 17 24 -20 24 -25 0 -54 -13 -103 -46 -84 -58 -121 -74
-172 -74 -62 0 -56 15 11 28 70 13 111 36 106 60 -4 22 -68 28 -123 12 -58
-17 -113 -55 -117 -82 -2 -13 -11 -24 -21 -26 -17 -3 -18 0 -12 30 12 54 11
61 -12 73 l-23 12 32 29 c39 37 88 112 88 136 0 23 -24 23 -69 1z m19 -40 c0
-15 -89 -121 -119 -142 -17 -12 -31 -20 -31 -16 0 14 37 64 84 113 48 49 66
62 66 45z m-830 -154 c0 -11 -60 -39 -82 -39 -13 1 61 50 75 50 4 0 7 -5 7
-11z m1010 3 c0 -12 -78 -47 -86 -39 -7 7 55 47 74 47 6 0 12 -4 12 -8z m-340
-26 c0 -2 -7 -9 -15 -16 -13 -11 -14 -10 -9 4 5 14 24 23 24 12z m-790 -43 c0
-19 -3 -24 -10 -17 -6 6 -8 18 -4 27 9 24 14 21 14 -10z m1006 7 c0 -11 -6
-20 -13 -20 -16 0 -17 12 -1 28 7 7 12 12 13 12 0 0 1 -9 1 -20z m-462 -16 c5
-14 4 -15 -9 -4 -17 14 -19 20 -6 20 5 0 12 -7 15 -16z m340 -99 c219 -15 437
-80 444 -133 11 -75 -321 -82 -468 -9 -68 33 -92 62 -105 125 -6 30 -5 33 11
29 11 -3 64 -9 118 -12z m-1158 -102 c-2 -21 -9 -29 -27 -31 -13 -1 -30 2 -38
7 -12 8 -12 12 -2 25 7 9 16 14 20 12 3 -2 15 0 26 5 11 4 21 8 22 8 1 1 0
-11 -1 -26z"/>
<path d="M1330 372 c0 -34 7 -43 26 -35 18 7 18 30 0 49 -21 20 -26 18 -26
-14z m30 -12 c0 -5 -4 -10 -10 -10 -5 0 -10 5 -10 10 0 6 5 10 10 10 6 0 10
-4 10 -10z"/>
<path d="M1445 380 c-4 -6 -1 -17 5 -25 9 -11 9 -15 1 -15 -6 0 -11 -4 -11 -9
0 -5 12 -9 28 -9 15 1 37 -2 50 -6 17 -6 22 -3 23 11 0 16 1 16 9 -2 6 -14 9
-15 10 -5 0 12 3 11 11 -3 7 -11 17 -16 29 -12 10 3 21 1 25 -5 9 -15 25 -2
25 21 0 12 -7 19 -17 18 -11 0 -13 -3 -5 -6 6 -2 12 -9 12 -14 0 -4 -7 -6 -16
-2 -10 3 -14 13 -11 25 4 14 2 18 -9 14 -8 -3 -21 -9 -29 -12 -8 -3 -15 -1
-15 5 0 18 -28 13 -33 -6 -4 -16 -5 -16 -6 -2 -1 21 -31 34 -31 15 0 -8 6 -17
13 -19 7 -3 7 -6 1 -6 -6 -1 -19 8 -29 19 -11 12 -13 20 -6 20 7 0 9 5 6 10
-8 13 -22 13 -30 0z m155 -50 c0 -5 -4 -10 -10 -10 -5 0 -10 5 -10 10 0 6 5
10 10 10 6 0 10 -4 10 -10z"/>
<path d="M1384 353 c3 -19 1 -33 -7 -37 -9 -3 -9 -5 0 -5 7 -1 19 12 28 29 17
33 20 55 3 25 -11 -19 -11 -19 -20 0 -6 15 -7 12 -4 -12z"/>
<path d="M1660 321 c0 -17 6 -31 16 -35 28 -11 36 -7 31 14 -3 11 0 20 6 20 6
0 8 3 4 6 -3 4 -14 4 -23 0 -13 -5 -14 -9 -4 -21 11 -13 10 -14 -4 -9 -13 5
-16 14 -12 30 4 14 2 24 -4 24 -5 0 -10 -13 -10 -29z"/>
<path d="M211 749 c-63 -5 -117 -12 -120 -15 -14 -14 30 -25 87 -21 35 3 62 4
60 2 -2 -2 -25 -20 -53 -40 -27 -21 -80 -65 -117 -98 -55 -48 -68 -65 -68 -88
0 -36 25 -49 44 -23 11 15 18 16 42 7 106 -41 310 -7 344 56 17 32 12 50 -21
70 l-31 19 35 11 c19 6 44 22 56 35 19 20 21 28 11 46 -22 41 -99 52 -269 39z
m199 -44 c10 -13 10 -19 -5 -35 -22 -24 -63 -38 -140 -48 -32 -4 -60 -13 -62
-19 -4 -10 7 -11 40 -7 52 7 117 -11 117 -32 0 -42 -92 -84 -182 -84 -57 0
-81 15 -38 24 38 7 36 30 -4 34 -25 3 -21 8 66 92 92 88 94 89 144 90 34 0 56
-5 64 -15z m-10 -171 c-16 -18 -31 -18 -25 1 17 53 15 52 26 32 8 -13 7 -22
-1 -33z m-296 -19 c-3 -7 -14 -11 -25 -8 -10 3 -31 -2 -46 -12 -22 -13 -19 -8
10 20 30 29 41 34 52 25 8 -6 12 -17 9 -25z"/>
<path d="M1856 471 c-4 -7 -5 -15 -2 -18 9 -9 19 4 14 18 -4 11 -6 11 -12 0z"/>
<path d="M810 375 c0 -34 20 -49 35 -25 3 6 -2 10 -12 10 -15 0 -16 2 -3 10
13 8 13 11 1 19 -11 7 -10 10 5 14 16 4 16 5 -3 6 -20 1 -23 -4 -23 -34z"/>
<path d="M684 374 c-4 -14 -2 -30 4 -36 6 -6 11 2 14 26 5 41 -8 49 -18 10z"/>
<path d="M907 393 c-14 -13 -7 -43 11 -43 14 0 15 2 2 10 -10 6 -11 10 -2 10
6 0 12 7 12 15 0 16 -12 20 -23 8z"/>
<path d="M941 373 c0 -27 0 -28 10 -5 11 29 32 18 26 -14 -5 -26 10 -33 19
-10 8 22 -14 56 -36 56 -15 0 -20 -7 -19 -27z"/>
<path d="M1002 381 c2 -7 11 -19 21 -25 14 -8 20 -8 27 4 9 13 10 13 10 0 1
-8 6 -4 12 10 l11 25 7 -25 8 -25 1 26 c1 25 -1 27 -49 26 -38 -1 -50 -5 -48
-16z m38 -7 c0 -8 -5 -12 -10 -9 -6 4 -8 11 -5 16 9 14 15 11 15 -7z"/>
<path d="M1117 394 c-14 -14 -7 -44 11 -44 14 0 15 2 2 10 -13 8 -12 10 3 10
10 0 17 5 15 12 -5 14 -22 21 -31 12z"/>
<path d="M717 384 c-16 -16 -7 -44 14 -44 15 0 20 5 17 22 -3 22 -19 33 -31
22z m23 -24 c0 -5 -4 -10 -10 -10 -5 0 -10 5 -10 10 0 6 5 10 10 10 6 0 10 -4
10 -10z"/>
<path d="M761 363 c0 -16 3 -22 6 -13 3 8 10 21 16 28 7 8 5 12 -7 12 -11 0
-16 -8 -15 -27z"/>
<path d="M857 370 c6 -24 19 -26 27 -4 9 24 7 31 -4 14 -6 -10 -10 -11 -10 -2
0 6 -4 12 -9 12 -5 0 -7 -9 -4 -20z"/>
<path d="M594 371 c-6 -7 -4 -25 4 -39 6 -9 15 -10 35 -3 34 13 27 49 -10 47
-13 0 -27 -3 -29 -5z m46 -27 c0 -2 -7 -4 -15 -4 -8 0 -15 4 -15 10 0 5 7 7
15 4 8 -4 15 -8 15 -10z"/>
<path d="M561 361 c-7 -5 -22 -6 -33 -3 -16 4 -19 0 -16 -18 4 -32 26 -37 37
-8 9 21 10 21 11 3 1 -18 2 -17 11 4 11 28 9 33 -10 22z m-26 -20 c3 -5 1 -12
-5 -16 -5 -3 -10 1 -10 9 0 18 6 21 15 7z"/>
<path d="M370 320 c0 -16 5 -30 10 -30 6 0 10 5 10 11 0 8 6 7 17 -2 15 -12
16 -12 10 4 -4 10 -7 25 -7 33 0 8 -9 14 -20 14 -16 0 -20 -7 -20 -30z m30 10
c0 -5 -2 -10 -4 -10 -3 0 -8 5 -11 10 -3 6 -1 10 4 10 6 0 11 -4 11 -10z"/>
<path d="M431 336 c-15 -18 -6 -36 17 -36 13 0 14 2 3 9 -11 7 -11 9 0 14 10
3 11 8 3 16 -8 9 -14 8 -23 -3z"/>
<path d="M470 340 c0 -5 4 -10 9 -10 6 0 13 5 16 10 3 6 -1 10 -9 10 -9 0 -16
-4 -16 -10z"/>
<path d="M480 320 c-13 -8 -12 -10 3 -10 9 0 17 5 17 10 0 12 -1 12 -20 0z"/>
</g>
</svg>
