<svg width="290" height="35" xmlns="http://www.w3.org/2000/svg">
 <title>linestars</title>
 <g id="Layer_1">
  <title>Layer 1</title>
  <g id="svg_13">
   <path stroke="#c19c46" id="svg_1" d="m117.41001,10.71839l11.0771,0l3.42291,-9.93114l3.42291,9.93114l11.0771,0l-8.96154,6.13771l3.42309,9.93114l-8.96155,-6.13788l-8.96155,6.13788l3.42309,-9.93114l-8.96155,-6.13771z" stroke-width="1.5" fill="#c19c46"/>
   <path stroke="#c19c46" id="svg_3" d="m84.41001,10.71839l11.0771,0l3.42291,-9.93115l3.42291,9.93115l11.07709,0l-8.96154,6.13771l3.42308,9.93115l-8.96154,-6.13789l-8.96155,6.13789l3.42309,-9.93115l-8.96155,-6.13771z" stroke-width="1.5" fill="#c19c46"/>
   <path stroke="#c19c46" id="svg_4" d="m53.41001,10.71839l11.0771,0l3.42291,-9.93115l3.42291,9.93115l11.07709,0l-8.96154,6.13771l3.42308,9.93115l-8.96154,-6.13789l-8.96155,6.13789l3.42309,-9.93115l-8.96155,-6.13771z" stroke-width="1.5" fill="#c19c46"/>
   <path stroke="#c19c46" id="svg_5" d="m149.41001,10.71839l11.0771,0l3.42291,-9.93115l3.42291,9.93115l11.07709,0l-8.96154,6.13771l3.42308,9.93115l-8.96154,-6.13789l-8.96155,6.13789l3.42309,-9.93115l-8.96155,-6.13771z" stroke-width="1.5" fill="#c19c46"/>
   <path stroke="#c19c46" id="svg_6" d="m183.41001,10.71839l11.0771,0l3.42291,-9.93115l3.42291,9.93115l11.07709,0l-8.96154,6.13771l3.42308,9.93115l-8.96154,-6.13789l-8.96155,6.13789l3.42309,-9.93115l-8.96155,-6.13771z" stroke-width="1.5" fill="#c19c46"/>
   <path stroke-dasharray="2,2" id="svg_11" d="m0,12.20197l52,0l0,4l-52,0l0,-4z" stroke-width="1.5" stroke="#c19c46" fill="#c19c46"/>
   <path id="svg_12" d="m218.90001,11.18197l63,0l0,7l-63,0l0,-7z" stroke="#c19c46" fill="#c19c46"/>
  </g>
 </g>
</svg>