<?xml version="1.0" standalone="no"?>
<!DOCTYPE svg PUBLIC "-//W3C//DTD SVG 20010904//EN"
 "http://www.w3.org/TR/2001/REC-SVG-20010904/DTD/svg10.dtd">
<svg version="1.0" xmlns="http://www.w3.org/2000/svg"
 width="300.000000pt" height="165.000000pt" viewBox="0 0 300.000000 165.000000"
 preserveAspectRatio="xMidYMid meet">
<metadata>
Created by potrace 1.10, written by Peter Selinger 2001-2011
</metadata>
<g transform="translate(0.000000,165.000000) scale(0.100000,-0.100000)"
fill="#f3f3f3" stroke="none">
<path d="M2058 1453 c18 -2 45 -2 60 0 15 2 0 4 -33 4 -33 0 -45 -2 -27 -4z"/>
<path d="M1960 1443 c0 -5 -15 -8 -33 -9 -31 0 -167 -56 -167 -69 0 -3 13 1
29 10 65 33 118 45 157 36 l39 -9 -45 -1 c-43 -1 -124 -25 -166 -49 -28 -17
-15 -14 41 7 61 23 105 30 215 32 l85 2 -60 7 c-50 6 -46 7 30 5 62 -2 107
-10 145 -24 50 -19 40 -21 -30 -6 -14 3 -10 -1 10 -9 19 -8 49 -20 65 -27 17
-6 39 -11 50 -10 15 1 17 0 7 -7 -11 -7 -11 -10 2 -15 9 -4 16 -2 16 4 0 6 5
7 10 4 6 -4 8 -10 5 -15 -3 -5 0 -12 6 -16 8 -4 9 -3 5 4 -4 7 -4 12 -1 12 11
0 75 -55 75 -64 0 -6 -15 3 -32 19 -18 17 -9 4 21 -27 30 -31 57 -55 61 -53
12 7 54 -45 56 -68 1 -12 14 -47 28 -77 15 -30 24 -47 21 -37 -16 57 -15 68 4
28 12 -24 23 -62 26 -85 4 -31 3 -36 -4 -21 -7 14 -8 7 -3 -25 4 -25 7 -88 6
-140 -1 -122 11 -70 20 87 6 109 5 124 -18 193 -24 73 -28 112 -5 54 38 -98
40 -101 34 -69 -9 47 -64 157 -74 150 -6 -3 -17 8 -26 26 -12 23 -13 29 -3 23
11 -6 3 6 -31 46 -2 3 -1 -4 3 -15 5 -13 -6 -7 -33 20 -42 40 -50 52 -28 39 6
-4 3 2 -7 14 -20 23 -32 29 -20 11 3 -6 -8 -3 -25 6 -18 9 -29 20 -26 26 8 11
-106 66 -155 74 -24 4 -30 3 -20 -3 8 -5 31 -12 51 -16 19 -3 44 -13 55 -22
19 -15 19 -16 -1 -9 -20 7 -56 17 -122 35 -21 5 -83 10 -138 10 -65 1 -93 4
-80 10 19 8 19 9 -2 9 -13 1 -23 -2 -23 -6z m415 -73 c3 -5 2 -10 -4 -10 -5 0
-13 5 -16 10 -3 6 -2 10 4 10 5 0 13 -4 16 -10z m-48 -17 c-4 -3 -10 -3 -14 0
-3 4 0 7 7 7 7 0 10 -3 7 -7z m154 -100 c13 -16 12 -17 -3 -4 -17 13 -22 21
-14 21 2 0 10 -8 17 -17z m5 -50 c-7 -7 -26 7 -26 19 0 6 6 6 15 -2 9 -7 13
-15 11 -17z m124 -74 c0 -6 -4 -7 -10 -4 -5 3 -10 11 -10 16 0 6 5 7 10 4 6
-3 10 -11 10 -16z"/>
<path d="M2163 1443 c9 -2 23 -2 30 0 6 3 -1 5 -18 5 -16 0 -22 -2 -12 -5z"/>
<path d="M2133 1383 c9 -2 23 -2 30 0 6 3 -1 5 -18 5 -16 0 -22 -2 -12 -5z"/>
<path d="M1735 1351 c-3 -5 -1 -12 5 -16 5 -3 10 1 10 9 0 18 -6 21 -15 7z"/>
<path d="M2415 1350 c3 -5 8 -10 11 -10 3 0 2 5 -1 10 -3 6 -8 10 -11 10 -3 0
-2 -4 1 -10z"/>
<path d="M1702 1328 c-16 -16 -15 -29 1 -22 8 3 14 11 14 19 0 18 0 18 -15 3z"/>
<path d="M1664 1288 c-4 -7 -3 -8 4 -4 12 7 16 16 8 16 -3 0 -8 -5 -12 -12z"/>
<path d="M2490 1296 c0 -2 8 -10 18 -17 15 -13 16 -12 3 4 -13 16 -21 21 -21
13z"/>
<path d="M2575 1190 c3 -5 8 -10 11 -10 3 0 2 5 -1 10 -3 6 -8 10 -11 10 -3 0
-2 -4 1 -10z"/>
<path d="M2500 1169 c0 -3 11 -20 25 -39 14 -19 25 -30 25 -24 0 10 -49 73
-50 63z"/>
<path d="M2672 960 c0 -14 2 -19 5 -12 2 6 2 18 0 25 -3 6 -5 1 -5 -13z"/>
<path d="M2611 954 c0 -11 3 -14 6 -6 3 7 2 16 -1 19 -3 4 -6 -2 -5 -13z"/>
<path d="M2679 918 c0 -2 -4 -52 -9 -113 -5 -60 -11 -121 -14 -135 -3 -14 1
-5 10 20 15 46 32 230 20 230 -3 0 -6 -1 -7 -2z"/>
<path d="M1778 829 c-10 -5 -21 -28 -24 -49 -4 -22 -12 -38 -18 -37 -6 1 -12
-10 -14 -25 -2 -20 1 -28 12 -28 13 0 16 -15 16 -95 l0 -95 35 0 35 0 0 95 0
95 31 0 c27 0 30 3 27 28 -2 21 -9 28 -31 30 -35 4 -30 26 6 30 22 3 27 8 27
33 0 28 -2 29 -42 29 -24 0 -51 -5 -60 -11z"/>
<path d="M1208 814 c-35 -18 -48 -43 -48 -88 0 -48 23 -69 104 -96 51 -17 66
-26 66 -41 0 -39 -83 -44 -126 -8 -11 9 -19 8 -34 -6 -29 -26 -25 -40 18 -58
59 -25 80 -29 122 -22 54 9 90 47 90 95 0 52 -23 75 -100 102 -51 18 -66 28
-68 45 -5 31 34 39 84 18 38 -16 40 -15 56 6 22 26 16 37 -28 55 -43 18 -102
17 -136 -2z"/>
<path d="M158 811 c11 -7 10 -10 -3 -15 -24 -9 -27 -8 -20 7 4 6 -5 -1 -19
-16 -29 -32 -37 -94 -11 -83 9 3 15 0 15 -10 0 -8 -4 -12 -10 -9 -16 10 -11
-1 7 -16 14 -12 16 -12 8 0 -6 11 -4 13 11 7 46 -19 96 -26 109 -16 10 8 19 8
34 0 25 -13 28 -25 5 -16 -9 4 -32 3 -52 0 l-35 -7 29 -12 c16 -7 33 -10 38
-7 9 5 26 -17 26 -35 0 -7 -5 -13 -11 -13 -6 0 -9 7 -6 15 4 8 2 17 -3 20 -6
4 -10 -5 -10 -19 0 -28 -31 -42 -75 -34 -13 3 -22 1 -19 -3 3 -5 -1 -9 -8 -9
-16 1 -48 24 -48 36 0 4 5 3 12 -4 7 -7 16 -12 22 -12 5 0 1 6 -9 14 -24 17
-35 12 -35 -15 0 -13 -4 -18 -12 -13 -6 4 -8 3 -5 -3 10 -15 72 -43 94 -42 10
1 0 7 -22 15 -38 14 -39 14 -6 9 18 -3 50 -5 70 -5 27 0 32 -3 21 -10 -12 -8
-11 -10 5 -10 29 0 65 28 65 50 0 10 5 22 10 25 6 3 10 11 10 16 0 6 -4 8 -8
5 -4 -2 -8 7 -7 21 0 37 -44 67 -97 65 -31 -1 -39 1 -28 8 8 5 12 10 8 10 -3
0 -14 3 -24 7 -13 5 -15 3 -9 -8 5 -8 5 -11 -1 -6 -5 5 -10 23 -10 41 -1 31 1
32 37 35 21 1 48 -3 59 -9 11 -6 20 -9 20 -6 0 2 3 11 6 20 4 11 1 16 -10 16
-9 0 -16 -4 -16 -8 0 -4 -16 -6 -35 -4 -19 2 -32 8 -30 13 3 4 18 6 34 3 20
-4 30 -1 34 10 5 14 -3 16 -51 16 -35 0 -52 -4 -44 -9z m-35 -36 c-3 -9 -8
-14 -10 -11 -3 3 -2 9 2 15 9 16 15 13 8 -4z m-3 -45 c0 -5 -2 -10 -4 -10 -3
0 -8 5 -11 10 -3 6 -1 10 4 10 6 0 11 -4 11 -10z m118 -197 c-10 -2 -28 -2
-40 0 -13 2 -5 4 17 4 22 1 32 -1 23 -4z m52 -3 c0 -5 -5 -10 -11 -10 -5 0 -7
5 -4 10 3 6 8 10 11 10 2 0 4 -4 4 -10z"/>
<path d="M286 796 c15 -12 17 -17 7 -27 -7 -7 -13 -18 -13 -23 0 -6 7 0 16 12
12 18 13 26 4 37 -7 8 -17 15 -23 15 -6 0 -2 -6 9 -14z"/>
<path d="M488 743 c6 -2 18 -2 25 0 6 3 1 5 -13 5 -14 0 -19 -2 -12 -5z"/>
<path d="M680 625 l0 -125 33 1 c17 0 26 3 20 6 -19 7 -17 114 2 139 14 18 14
17 10 -16 -5 -33 -4 -33 4 -7 5 16 14 34 20 41 6 7 8 15 6 18 -3 3 3 8 15 11
11 3 18 1 14 -4 -3 -5 0 -9 5 -9 6 0 11 9 11 20 0 22 -20 26 -38 8 -13 -13
-17 2 -4 18 4 5 -2 -1 -13 -13 -24 -26 -37 -30 -29 -8 4 10 0 15 -12 15 -18 1
-18 1 0 15 19 14 18 15 -12 15 l-32 0 0 -125z m17 98 c-4 -3 -7 0 -7 7 0 7 3
10 7 7 3 -4 3 -10 0 -14z m8 -74 c-5 -71 -15 -74 -15 -6 0 31 4 57 10 57 6 0
8 -21 5 -51z m-8 -126 c-3 -10 -5 -2 -5 17 0 19 2 27 5 18 2 -10 2 -26 0 -35z"/>
<path d="M803 743 c4 -3 10 -3 14 0 3 4 0 7 -7 7 -7 0 -10 -3 -7 -7z"/>
<path d="M860 739 c0 -5 4 -8 9 -4 5 3 12 1 16 -5 3 -5 1 -10 -4 -10 -6 0 -11
-4 -11 -10 0 -5 7 -10 15 -10 8 0 15 -5 15 -11 0 -5 -5 -7 -10 -4 -6 4 -1 -18
11 -47 22 -57 36 -79 25 -38 -16 56 -15 63 3 25 22 -44 26 -69 11 -60 -12 7
-12 -2 0 -30 9 -20 9 -20 10 0 1 20 1 20 9 0 5 -12 4 -23 -3 -27 -6 -5 -2 -8
10 -8 27 0 54 61 48 105 -3 23 -1 20 9 -10 l13 -40 16 45 c32 90 31 86 19 70
-9 -12 -11 -11 -11 9 0 16 4 21 14 18 8 -3 17 1 20 9 3 8 1 14 -4 14 -17 0
-11 18 8 23 9 3 3 5 -15 6 -17 0 -35 -4 -39 -11 -4 -7 -3 -8 4 -4 7 4 12 1 12
-9 0 -10 -6 -15 -13 -12 -10 4 -21 -16 -36 -64 -12 -38 -24 -69 -26 -69 -7 0
-35 64 -35 81 0 12 -5 16 -15 13 -10 -4 -15 0 -15 11 0 9 5 13 10 10 12 -8 13
-3 0 29 -7 20 -16 26 -40 26 -16 0 -30 -5 -30 -11z m60 -9 c0 -5 -4 -10 -10
-10 -5 0 -10 5 -10 10 0 6 5 10 10 10 6 0 10 -4 10 -10z m120 -60 c0 -11 -4
-20 -9 -20 -5 0 -7 9 -4 20 3 11 7 20 9 20 2 0 4 -9 4 -20z m7 -57 c-4 -3 -7
0 -7 7 0 7 3 10 7 7 3 -4 3 -10 0 -14z m-60 -50 c-4 -3 -10 -3 -14 0 -3 4 0 7
7 7 7 0 10 -3 7 -7z"/>
<path d="M1491 739 c-15 -6 -21 -14 -17 -25 3 -9 6 -20 6 -24 0 -5 22 -6 48
-3 37 4 52 2 65 -12 27 -26 21 -30 -42 -30 -73 0 -101 -20 -101 -75 0 -64 67
-98 129 -66 17 9 31 12 31 6 0 -5 16 -10 35 -10 l35 0 0 73 c0 99 -14 143 -50
162 -32 17 -102 19 -139 4z m108 -138 c20 -13 4 -50 -26 -57 -46 -12 -77 21
-48 50 18 17 52 21 74 7z"/>
<path d="M1945 717 c-59 -59 -55 -153 8 -201 41 -30 128 -30 159 1 21 21 21
24 6 39 -12 12 -20 14 -36 5 -43 -23 -102 -8 -102 26 0 10 22 13 85 13 85 0
85 0 85 26 0 40 -30 93 -61 109 -15 8 -47 15 -70 15 -33 0 -47 -6 -74 -33z
m115 -37 c32 -32 24 -40 -35 -40 -30 0 -55 5 -55 10 0 15 38 50 55 50 8 0 24
-9 35 -20z"/>
<path d="M423 714 c-15 -14 -22 -22 -14 -18 9 4 12 2 9 -7 -3 -8 -11 -13 -17
-11 -13 3 -13 4 -2 -36 11 -37 5 -43 -9 -9 -8 21 -9 21 -9 -6 -1 -31 24 -93
42 -104 6 -3 7 -1 3 5 -5 8 -2 10 8 6 9 -3 14 -11 13 -17 -1 -6 6 -13 17 -15
11 -2 16 0 12 7 -5 7 6 11 33 11 21 0 48 2 58 5 10 3 5 -1 -12 -9 -17 -9 -23
-15 -14 -16 15 0 71 38 59 40 -34 7 -59 7 -55 -1 8 -12 -2 -11 -27 2 -15 8
-19 8 -14 0 5 -7 -1 -11 -15 -11 -12 0 -19 3 -16 6 3 4 -3 18 -14 33 l-21 26
91 3 c87 3 91 4 90 25 0 12 -4 30 -8 41 -7 18 -8 18 -26 0 -18 -18 -19 -18
-12 -1 4 10 7 23 7 28 0 6 6 7 13 3 7 -4 8 -3 4 2 -5 5 -16 9 -24 9 -9 0 -18
6 -21 14 -3 9 0 11 8 6 9 -5 11 -4 6 3 -9 15 -36 16 -36 2 0 -5 -16 -10 -36
-10 -21 0 -33 4 -29 10 12 20 -14 10 -42 -16z m22 -4 c-3 -5 -11 -10 -16 -10
-6 0 -7 5 -4 10 3 6 11 10 16 10 6 0 7 -4 4 -10z m111 -42 c3 -27 2 -28 -51
-28 -59 0 -85 7 -85 22 0 6 7 7 16 4 11 -4 15 -2 11 8 -8 21 -1 24 55 22 48
-1 51 -3 54 -28z m50 -55 c-10 -10 -19 5 -10 18 6 11 8 11 12 0 2 -7 1 -15 -2
-18z m-36 7 c0 -6 -26 -10 -59 -10 -33 0 -63 5 -66 10 -4 6 18 10 59 10 37 0
66 -4 66 -10z m-143 -37 c-4 -3 -7 0 -7 7 0 7 3 10 7 7 3 -4 3 -10 0 -14z m-7
-23 c0 -5 -2 -10 -4 -10 -3 0 -8 5 -11 10 -3 6 -1 10 4 10 6 0 11 -4 11 -10z
m37 -17 c-4 -3 -7 0 -7 7 0 7 3 10 7 7 3 -4 3 -10 0 -14z"/>
<path d="M150 650 c8 -5 20 -10 25 -10 6 0 3 5 -5 10 -8 5 -19 10 -25 10 -5 0
-3 -5 5 -10z"/>
<path d="M2625 625 c3 -16 2 -25 -2 -18 -5 6 -43 16 -86 22 -119 17 -143 11
-44 -10 121 -25 120 -25 97 -77 -24 -53 -17 -55 10 -2 11 22 26 40 33 40 6 0
39 -13 72 -29 159 -76 159 -174 0 -251 -137 -68 -386 -99 -625 -80 -73 6 -135
9 -137 7 -7 -8 118 -27 246 -39 293 -26 648 49 722 154 68 95 0 184 -189 245
-58 19 -87 34 -93 48 -7 15 -8 13 -4 -10z"/>
<path d="M732 555 c0 -16 2 -22 5 -12 2 9 2 23 0 30 -3 6 -5 -1 -5 -18z"/>
<path d="M1014 534 c-4 -10 -9 -22 -11 -26 -2 -5 0 -8 5 -8 10 0 24 41 17 48
-3 3 -8 -4 -11 -14z"/>
<path d="M503 493 c4 -3 10 -3 14 0 3 4 0 7 -7 7 -7 0 -10 -3 -7 -7z"/>
<path d="M111 388 c2 -43 2 -43 8 -9 l6 35 32 -40 32 -39 -1 50 c-1 45 -1 47
-7 15 l-6 -35 -24 33 c-14 17 -28 32 -33 32 -4 0 -7 -19 -7 -42z"/>
<path d="M288 417 c-7 -21 6 -70 20 -73 7 -1 8 0 2 3 -12 6 -13 50 -1 55 5 2
3 8 -4 15 -10 9 -14 9 -17 0z"/>
<path d="M613 390 c0 -25 2 -35 4 -22 2 12 2 32 0 45 -2 12 -4 2 -4 -23z"/>
<path d="M681 383 c1 -27 4 -38 6 -25 2 12 9 22 15 22 5 0 19 -10 29 -22 19
-22 19 -22 10 -2 -7 14 -7 24 1 32 18 18 1 42 -32 42 -29 0 -30 -1 -29 -47z
m59 22 c0 -9 -9 -15 -25 -15 -16 0 -25 6 -25 15 0 9 9 15 25 15 16 0 25 -6 25
-15z"/>
<path d="M908 417 c-7 -21 6 -70 20 -73 7 -1 8 0 2 3 -12 6 -13 50 -1 55 5 2
3 8 -4 15 -10 9 -14 9 -17 0z"/>
<path d="M1416 394 c-9 -20 -14 -39 -11 -42 3 -3 5 0 5 6 0 16 43 15 59 0 9
-9 8 -1 -3 26 -9 21 -16 40 -16 42 0 2 -4 4 -8 4 -5 0 -16 -16 -26 -36z m38 1
c4 -10 -1 -15 -14 -15 -13 0 -18 5 -14 15 4 8 10 15 14 15 4 0 10 -7 14 -15z"/>
<path d="M1892 389 c2 -24 8 -44 16 -45 7 -1 8 0 2 3 -12 6 -13 50 -1 55 5 2
2 9 -6 16 -12 12 -14 8 -11 -29z"/>
<path d="M1310 396 c0 -33 10 -56 23 -56 7 0 7 4 -1 12 -15 15 -15 45 0 50 7
3 6 7 -5 11 -13 5 -17 1 -17 -17z"/>
<path d="M232 403 c9 -2 19 -12 21 -21 3 -12 5 -10 6 6 1 17 -4 22 -21 21 -16
-1 -18 -3 -6 -6z"/>
<path d="M343 375 c0 -22 2 -30 4 -17 2 12 2 30 0 40 -3 9 -5 -1 -4 -23z"/>
<path d="M377 403 c-13 -12 -7 -51 9 -57 24 -9 31 -7 12 5 -25 14 -23 49 2 49
19 0 24 -9 21 -40 -2 -13 0 -13 8 -1 19 30 -28 69 -52 44z"/>
<path d="M451 376 c1 -29 1 -30 8 -6 10 36 39 38 44 3 4 -28 4 -28 3 2 -1 26
-5 30 -28 31 -25 1 -28 -2 -27 -30z"/>
<path d="M552 404 c9 -3 19 -13 22 -22 3 -12 4 -12 3 3 -1 12 -10 21 -22 22
-15 1 -15 0 -3 -3z"/>
<path d="M777 403 c-4 -3 -7 -17 -7 -30 0 -26 26 -41 42 -25 8 8 5 9 -11 5
-12 -3 -21 -1 -21 6 0 6 8 11 18 11 26 0 34 11 21 27 -12 14 -32 17 -42 6z
m38 -13 c3 -5 -3 -10 -14 -10 -12 0 -21 5 -21 10 0 6 6 10 14 10 8 0 18 -4 21
-10z"/>
<path d="M847 403 c-12 -12 -7 -22 13 -28 27 -9 26 -29 -1 -22 -16 4 -19 3
-11 -5 12 -12 42 -4 42 11 0 6 -10 16 -22 22 -22 12 -22 12 -3 20 15 5 16 8 4
8 -9 1 -19 -2 -22 -6z"/>
<path d="M977 404 c16 -4 23 -14 26 -37 4 -31 5 -31 3 3 -1 30 -5 35 -26 37
-21 1 -21 0 -3 -3z"/>
<path d="M1033 380 c2 -31 5 -35 30 -36 25 -1 27 2 26 35 -1 36 -1 36 -8 6 -3
-17 -13 -30 -21 -30 -8 0 -18 13 -22 30 -6 29 -6 29 -5 -5z"/>
<path d="M1111 375 c1 -20 3 -24 6 -10 3 11 12 25 20 32 13 10 12 12 -6 10
-17 -1 -21 -7 -20 -32z"/>
<path d="M1177 404 c16 -4 23 -14 26 -37 4 -31 5 -31 3 3 -1 30 -5 35 -26 37
-21 1 -21 0 -3 -3z"/>
<path d="M1231 371 c1 -36 1 -36 8 -6 8 40 38 46 44 8 4 -28 4 -28 3 2 -1 26
-5 30 -28 31 -26 1 -28 -2 -27 -35z"/>
<path d="M1505 400 c-9 -15 4 -30 23 -29 15 1 15 2 0 6 -10 2 -18 8 -18 13 0
5 8 11 18 13 15 4 15 5 0 6 -9 0 -20 -3 -23 -9z"/>
<path d="M1567 403 c-12 -12 -7 -22 13 -28 27 -9 26 -29 -1 -22 -16 4 -19 3
-11 -5 12 -12 42 -4 42 11 0 6 -10 16 -22 22 -22 12 -22 12 -3 20 15 5 16 8 4
8 -9 1 -19 -2 -22 -6z"/>
<path d="M1631 396 c-14 -17 1 -56 22 -56 33 0 50 53 21 64 -23 9 -30 8 -43
-8z m44 -21 c0 -11 -7 -21 -16 -23 -18 -3 -33 23 -23 39 10 17 39 5 39 -16z"/>
<path d="M1717 403 c-4 -3 -7 -11 -7 -17 0 -7 3 -7 8 0 4 7 16 14 27 17 19 5
19 5 -1 6 -11 0 -24 -2 -27 -6z"/>
<path d="M1782 380 c0 -19 2 -27 5 -17 2 9 2 25 0 35 -3 9 -5 1 -5 -18z"/>
<path d="M1837 403 c28 -5 26 -46 -2 -52 -14 -2 -16 1 -11 15 6 15 4 16 -5 7
-16 -16 -2 -33 27 -31 21 2 25 7 22 33 -2 24 -8 30 -28 32 -22 1 -22 1 -3 -4z"/>
<path d="M1943 375 c0 -22 2 -30 4 -17 2 12 2 30 0 40 -3 9 -5 -1 -4 -23z"/>
<path d="M1980 396 c-27 -33 18 -72 48 -42 13 13 14 20 6 34 -15 23 -38 26
-54 8z m48 -19 c4 -20 -25 -34 -40 -19 -15 15 -1 44 19 40 10 -2 19 -11 21
-21z"/>
<path d="M2062 380 c0 -19 2 -27 5 -17 2 9 2 25 0 35 -3 9 -5 1 -5 -18z"/>
<path d="M2086 403 c7 -4 14 -19 17 -33 4 -22 5 -21 4 4 -1 17 -9 31 -17 33
-10 3 -11 2 -4 -4z"/>
<path d="M212 363 c2 -9 10 -18 18 -20 12 -4 13 -3 1 5 -7 5 -10 15 -7 21 4 6
2 11 -4 11 -6 0 -10 -8 -8 -17z"/>
<path d="M532 363 c2 -9 10 -18 18 -20 12 -4 13 -3 1 5 -7 5 -10 15 -7 21 4 6
2 11 -4 11 -6 0 -10 -8 -8 -17z"/>
<path d="M954 369 c-7 -11 12 -29 31 -29 6 1 2 5 -8 11 -9 6 -15 14 -12 20 4
5 4 9 1 9 -3 0 -8 -5 -12 -11z"/>
<path d="M1157 373 c-9 -8 12 -33 27 -33 6 0 3 5 -7 11 -9 6 -15 14 -12 20 7
10 2 12 -8 2z"/>
<path d="M1710 362 c0 -16 32 -24 44 -11 8 9 8 10 -2 5 -7 -4 -19 -2 -27 4 -9
7 -15 8 -15 2z"/>
<path d="M1510 346 c7 -7 13 -7 20 0 6 6 3 10 -10 10 -13 0 -16 -4 -10 -10z"/>
<path d="M2847 230 c3 -11 7 -20 9 -20 2 0 4 9 4 20 0 11 -4 20 -9 20 -5 0 -7
-9 -4 -20z"/>
<path d="M2880 238 c0 -4 6 -8 14 -8 8 0 17 -6 19 -12 3 -7 6 -3 6 9 1 16 -4
21 -19 20 -11 -1 -20 -5 -20 -9z"/>
</g>
</svg>
