<?xml version="1.0" standalone="no"?>
<!DOCTYPE svg PUBLIC "-//W3C//DTD SVG 20010904//EN"
 "http://www.w3.org/TR/2001/REC-SVG-20010904/DTD/svg10.dtd">
<svg version="1.0" xmlns="http://www.w3.org/2000/svg"
 width="300.000000pt" height="104.000000pt" viewBox="0 0 300.000000 104.000000"
 preserveAspectRatio="xMidYMid meet">
<metadata>
Created by potrace 1.10, written by Peter Selinger 2001-2011
</metadata>
<g transform="translate(0.000000,104.000000) scale(0.100000,-0.100000)"
fill="#cccccc" stroke="none">
<path d="M1227 1033 c-13 -3 -16 -10 -11 -21 15 -37 37 -573 23 -586 -22 -23
-6 -28 68 -22 42 4 90 15 105 24 38 22 73 78 94 148 22 74 25 239 5 307 -18
62 -81 133 -129 147 -37 10 -121 12 -155 3z m167 -73 c19 -32 21 -55 24 -235
3 -177 1 -204 -15 -235 -23 -45 -49 -51 -57 -13 -2 15 -8 140 -12 276 l-6 249
23 -4 c14 -2 31 -17 43 -38z"/>
<path d="M1643 869 c0 -30 -119 -396 -139 -426 -20 -32 -19 -33 32 -33 40 0
45 2 34 15 -10 12 -10 24 0 60 12 44 13 45 55 45 l42 0 7 -49 c3 -27 4 -56 0
-65 -5 -13 1 -16 32 -16 22 0 50 -3 63 -7 21 -5 23 -4 17 13 -4 10 -17 120
-28 244 -11 124 -22 227 -24 229 -1 2 -23 6 -47 8 -42 5 -44 4 -44 -18z m19
-236 l4 -63 -34 0 c-23 0 -33 4 -29 13 2 6 13 38 23 70 10 31 21 54 25 50 4
-5 9 -36 11 -70z"/>
<path d="M1893 848 c6 -22 -65 -393 -83 -435 -8 -19 -6 -23 9 -23 11 0 26 -3
35 -6 13 -5 15 -1 11 22 -3 16 6 76 19 134 26 118 25 120 56 -60 11 -63 23
-117 28 -121 4 -4 17 -10 28 -13 20 -6 25 6 79 201 32 115 64 218 71 230 12
20 11 22 -18 32 -17 6 -32 10 -33 9 0 -2 -6 -28 -12 -59 -20 -102 -54 -204
-63 -188 -4 7 -18 70 -30 139 -12 69 -25 128 -29 133 -4 4 -22 12 -40 17 -31
9 -33 8 -28 -12z"/>
<path d="M995 843 c-16 -3 -21 -12 -21 -41 0 -20 -12 -62 -26 -92 l-25 -55
-13 45 c-7 25 -14 62 -14 83 -1 33 -4 37 -21 33 -11 -3 -37 -8 -58 -12 -30 -5
-37 -10 -31 -23 16 -39 102 -425 97 -437 -7 -18 2 -17 66 2 38 11 50 18 43 27
-13 16 -56 206 -48 214 3 3 15 -16 27 -43 12 -27 34 -77 50 -112 l28 -64 58 7
c69 9 72 11 47 29 -10 8 -39 61 -64 118 l-46 103 -36 -3 c-20 -1 -39 2 -42 7
-7 10 58 187 76 208 11 14 -2 15 -47 6z"/>
<path d="M700 770 c0 -5 -19 -13 -41 -16 -23 -4 -53 -17 -68 -30 -25 -21 -26
-27 -26 -116 0 -85 3 -99 34 -166 73 -155 203 -211 247 -106 18 42 5 97 -26
114 -29 16 -32 12 -15 -21 20 -38 16 -98 -8 -113 -33 -20 -62 32 -118 205 -54
168 -57 209 -18 209 12 0 34 -10 51 -21 l30 -22 -7 24 c-19 62 -35 88 -35 59z"/>
<path d="M2207 758 c5 -29 -121 -389 -142 -404 -23 -17 -19 -21 38 -40 28 -9
58 -19 66 -22 11 -4 13 0 8 17 -8 32 117 390 143 413 20 16 19 17 -35 37 -72
27 -83 27 -78 -1z"/>
<path d="M2393 709 c7 -26 -153 -386 -180 -407 -22 -16 -14 -23 82 -62 l79
-32 24 27 c28 33 23 41 -18 27 -40 -15 -63 -5 -56 22 3 12 21 57 41 99 27 58
40 77 53 75 12 -3 16 -12 14 -36 -1 -18 2 -32 8 -32 11 0 73 131 65 138 -3 3
-16 -5 -29 -17 -24 -23 -46 -21 -46 2 0 26 60 137 74 137 20 0 46 -39 46 -69
0 -36 19 -13 26 30 6 33 4 36 -33 51 -21 9 -64 28 -97 42 l-59 27 6 -22z"/>
<path d="M63 635 c-61 -41 -69 -51 -45 -58 20 -5 255 -365 280 -430 38 -96
-74 -144 -128 -55 -25 42 -25 72 0 96 17 16 18 21 7 36 -19 26 -67 24 -90 -5
-15 -19 -18 -35 -15 -78 4 -48 10 -59 47 -94 42 -39 44 -39 107 -35 54 3 69 8
95 33 56 53 71 114 45 186 -7 20 -65 119 -128 221 -64 101 -117 192 -119 201
-3 15 -12 12 -56 -18z"/>
<path d="M2830 635 c-7 -9 -9 -26 -5 -45 5 -21 3 -30 -6 -30 -10 0 -10 -3 -2
-11 14 -14 60 7 79 36 28 45 -32 91 -66 50z"/>
<path d="M328 619 c-38 -19 -50 -39 -25 -39 18 0 122 -397 115 -434 -6 -31 -8
-31 37 -5 29 17 33 23 22 33 -8 6 -19 30 -25 54 -10 42 -10 44 21 63 41 24 39
25 66 -12 16 -21 21 -38 17 -55 -6 -24 -6 -24 66 12 62 31 70 38 56 48 -9 7
-78 88 -153 182 -76 93 -142 170 -149 171 -6 1 -28 -7 -48 -18z m152 -271 c0
-12 -42 -30 -50 -21 -7 8 -30 93 -30 110 1 9 79 -79 80 -89z"/>
<path d="M2639 588 c0 -34 -192 -361 -217 -373 -12 -5 -22 -12 -22 -15 0 -3
39 -27 87 -53 l87 -48 31 31 30 31 -47 -6 c-39 -6 -49 -4 -54 9 -8 20 177 347
208 368 21 14 20 15 -34 46 -30 18 -58 32 -62 32 -3 0 -6 -10 -7 -22z"/>
<path d="M2832 453 c-55 -27 -66 -60 -72 -224 -5 -152 -13 -179 -51 -179 -11
0 -28 9 -40 21 -17 17 -20 29 -15 63 l7 41 -26 -30 c-40 -48 -48 -65 -30 -65
8 0 29 -16 47 -35 44 -46 82 -53 128 -23 60 40 74 84 77 237 2 118 4 137 21
154 39 38 82 -15 68 -83 -7 -38 -3 -38 30 5 l26 35 -32 37 c-56 65 -83 74
-138 46z"/>
</g>
</svg>
