<?xml version="1.0" standalone="no"?>
<!DOCTYPE svg PUBLIC "-//W3C//DTD SVG 20010904//EN"
 "http://www.w3.org/TR/2001/REC-SVG-20010904/DTD/svg10.dtd">
<svg version="1.0" xmlns="http://www.w3.org/2000/svg"
 width="300.000000pt" height="214.000000pt" viewBox="0 0 300.000000 214.000000"
 preserveAspectRatio="xMidYMid meet">
<metadata>
Created by potrace 1.10, written by Peter Selinger 2001-2011
</metadata>
<g transform="translate(0.000000,214.000000) scale(0.100000,-0.100000)"
fill="#cccccc" stroke="none">
<path d="M1379 1774 c-47 -9 -132 -68 -169 -116 -38 -53 -98 -181 -112 -241
-17 -79 31 -238 96 -315 16 -18 48 -44 73 -59 50 -29 208 -73 263 -73 42 0
124 21 166 43 75 39 161 158 199 276 25 77 16 146 -33 260 -47 109 -91 159
-171 199 -48 23 -68 26 -170 28 -64 1 -128 0 -142 -2z m-19 -248 c0 -3 -5 -8
-12 -12 -7 -4 -8 -3 -4 4 7 12 16 16 16 8z m467 -183 c-2 -16 -4 -3 -4 27 0
30 2 43 4 28 2 -16 2 -40 0 -55z m-17 -80 c-11 -17 -11 -17 -6 0 3 10 7 26 7
35 1 15 2 15 6 0 2 -10 -1 -25 -7 -35z m-28 -65 c-31 -50 -120 -128 -146 -128
-5 0 12 14 38 31 45 30 116 111 116 132 0 6 3 8 6 4 4 -3 -3 -21 -14 -39z
m-122 18 c0 -2 -8 -10 -17 -17 -16 -13 -17 -12 -4 4 13 16 21 21 21 13z m-60
-46 c-8 -5 -19 -10 -25 -10 -5 0 -3 5 5 10 8 5 20 10 25 10 6 0 3 -5 -5 -10z
m10 -110 c-8 -5 -24 -9 -35 -9 -16 1 -16 2 5 9 35 11 48 11 30 0z m-87 -17
c-7 -2 -21 -2 -30 0 -10 3 -4 5 12 5 17 0 24 -2 18 -5z"/>
<path d="M210 1050 c-95 -35 -170 -112 -170 -176 0 -19 4 -34 9 -34 5 0 8 18
7 40 -1 45 23 83 74 118 40 27 93 28 237 4 l102 -17 -60 -28 c-82 -39 -146
-106 -281 -299 l-118 -168 39 0 c21 0 60 -2 87 -5 48 -4 48 -4 -11 9 -33 8
-54 14 -46 15 34 3 89 63 201 220 66 93 140 187 163 208 41 38 47 40 142 51
95 11 190 35 200 51 2 5 -13 3 -35 -2 -30 -9 -74 -6 -197 11 -192 27 -270 28
-343 2z"/>
<path d="M463 800 c-90 -45 -143 -118 -143 -195 0 -61 47 -83 91 -44 l24 21
-25 -16 c-74 -48 -65 9 20 123 76 101 106 130 133 131 30 0 20 -45 -26 -112
-47 -69 -60 -109 -46 -145 15 -39 100 -25 139 23 8 9 -3 5 -24 -10 -46 -31
-76 -34 -76 -7 0 10 38 71 85 135 47 63 85 118 85 121 0 3 -17 5 -38 5 -31 0
-41 -5 -53 -26 l-14 -26 -5 23 c-9 36 -53 36 -127 -1z"/>
<path d="M823 808 c-36 -41 -183 -240 -183 -249 0 -5 14 -9 30 -9 23 0 39 9
63 38 111 129 223 232 254 232 24 0 13 -19 -50 -89 -74 -80 -94 -121 -81 -159
7 -20 17 -27 39 -29 17 -1 22 1 13 3 -28 8 -22 25 37 92 65 75 85 110 85 152
0 67 -57 52 -157 -43 l-77 -72 50 65 c71 93 70 90 31 90 -22 0 -40 -8 -54 -22z"/>
<path d="M1190 799 c-71 -39 -95 -62 -125 -123 -30 -59 -31 -86 -7 -116 24
-30 59 -22 114 28 53 47 45 33 -60 -101 -46 -60 -81 -111 -79 -114 10 -9 131
28 172 52 22 13 65 50 95 81 l55 58 -55 -50 c-60 -55 -121 -97 -158 -108 -21
-7 -18 0 20 46 75 92 278 364 278 371 0 4 -15 7 -32 7 -36 0 -83 -42 -126
-112 -29 -46 -143 -153 -171 -161 -47 -12 -33 25 53 137 47 62 96 118 109 124
l22 11 -25 0 c-14 0 -50 -13 -80 -30z"/>
<path d="M1303 823 c4 -3 10 -3 14 0 3 4 0 7 -7 7 -7 0 -10 -3 -7 -7z"/>
<path d="M1487 739 c-80 -110 -99 -178 -52 -195 28 -11 66 7 112 53 l46 45 -6
-32 c-9 -42 7 -70 40 -70 30 0 84 33 103 64 7 11 -7 3 -31 -17 -44 -38 -79
-48 -79 -23 0 8 41 68 90 134 50 65 90 122 90 125 0 4 -15 7 -34 7 -31 0 -40
-8 -99 -82 -75 -96 -179 -198 -201 -198 -32 0 -14 37 74 152 50 65 90 120 90
123 0 3 -17 5 -38 5 -37 0 -41 -4 -105 -91z"/>
<path d="M1940 811 c-53 -29 -126 -96 -144 -135 -28 -59 -16 -136 21 -136 11
0 13 3 5 13 -15 18 3 53 91 166 52 68 84 101 97 101 11 0 20 -3 20 -7 0 -17
-54 -95 -82 -118 l-33 -26 31 15 c48 23 96 83 92 114 -2 22 -9 27 -33 29 -16
2 -46 -6 -65 -16z"/>
<path d="M2235 785 c-61 -50 -68 -50 -29 1 l26 34 -38 0 c-34 -1 -43 -6 -71
-43 -17 -23 -40 -51 -50 -62 -11 -11 -22 -29 -26 -39 -4 -10 -10 -16 -14 -13
-3 4 -22 -8 -42 -26 -20 -17 -49 -42 -66 -55 -16 -13 -21 -19 -10 -14 11 6 41
29 68 52 53 47 60 45 19 -9 -47 -60 -47 -61 -4 -61 38 0 42 3 87 70 26 38 53
68 59 67 6 -1 10 4 8 12 -3 16 17 43 28 36 4 -3 13 2 21 11 7 8 21 20 31 25
16 9 19 7 16 -7 -5 -28 30 -29 58 -3 30 28 33 69 4 69 -10 0 -44 -20 -75 -45z"/>
<path d="M2414 811 c-55 -25 -121 -85 -145 -132 -32 -64 -21 -139 22 -139 26
0 71 24 90 46 8 11 -2 7 -26 -9 -42 -29 -75 -35 -75 -14 0 18 35 73 106 164
61 78 92 102 114 88 5 -3 10 -1 10 4 0 17 -51 12 -96 -8z"/>
<path d="M2531 785 c-13 -19 -27 -32 -32 -29 -5 3 -9 1 -9 -4 0 -5 -14 -30
-32 -57 -32 -48 -43 -92 -33 -132 7 -30 54 -31 86 -2 l24 21 -25 -16 c-30 -20
-60 -21 -60 -2 0 8 37 63 83 122 110 144 105 134 60 134 -32 0 -42 -5 -62 -35z"/>
<path d="M2723 798 c-11 -13 -43 -54 -72 -91 -40 -54 -51 -76 -51 -106 0 -42
14 -61 44 -60 12 0 15 3 9 6 -28 11 -10 48 69 146 45 56 86 108 91 115 7 9 0
12 -30 12 -28 0 -45 -6 -60 -22z"/>
<path d="M2863 748 c-32 -40 -75 -98 -95 -128 -21 -30 -73 -101 -118 -158 -46
-59 -73 -101 -63 -98 10 3 40 10 66 17 28 7 44 15 37 19 -8 5 42 77 144 209
86 110 156 203 156 206 0 3 -15 5 -34 5 -29 0 -40 -9 -93 -72z"/>
<path d="M2710 588 c-25 -22 -36 -36 -25 -30 19 10 84 72 74 72 -2 -1 -24 -19
-49 -42z"/>
<path d="M2927 599 c-11 -42 -64 -106 -119 -144 -29 -19 -48 -35 -43 -35 48 0
185 154 172 193 -2 7 -6 0 -10 -14z"/>
<path d="M2544 588 c-4 -7 -3 -8 4 -4 7 4 12 9 12 12 0 8 -9 4 -16 -8z"/>
<path d="M959 573 c-13 -16 -12 -17 4 -4 16 13 21 21 13 21 -2 0 -10 -8 -17
-17z"/>
<path d="M1853 543 c4 -3 10 -3 14 0 3 4 0 7 -7 7 -7 0 -10 -3 -7 -7z"/>
<path d="M2713 403 c4 -3 10 -3 14 0 3 4 0 7 -7 7 -7 0 -10 -3 -7 -7z"/>
</g>
</svg>
