<?xml version="1.0" standalone="no"?>
<!DOCTYPE svg PUBLIC "-//W3C//DTD SVG 20010904//EN"
 "http://www.w3.org/TR/2001/REC-SVG-20010904/DTD/svg10.dtd">
<svg version="1.0" xmlns="http://www.w3.org/2000/svg"
 width="300.000000pt" height="168.000000pt" viewBox="0 0 300.000000 168.000000"
 preserveAspectRatio="xMidYMid meet">
<metadata>
Created by potrace 1.10, written by Peter Selinger 2001-2011
</metadata>
<g transform="translate(0.000000,168.000000) scale(0.100000,-0.100000)"
fill="#cccccc" stroke="none">
<path d="M1020 1118 c-59 -31 -82 -65 -88 -132 -6 -76 13 -112 98 -183 68 -56
88 -87 76 -118 -10 -26 -77 -19 -129 15 l-47 30 0 -73 0 -73 41 -18 c52 -23
106 -30 164 -22 62 10 120 66 130 125 15 89 2 118 -96 212 -93 91 -109 123
-66 134 13 4 47 -3 75 -13 l52 -20 0 67 0 68 -51 11 c-73 17 -109 15 -159 -10z"/>
<path d="M1400 1117 c-88 -46 -133 -192 -110 -354 20 -149 90 -223 208 -223
101 0 159 43 198 145 29 75 26 251 -5 320 -27 60 -65 103 -108 121 -50 22
-133 18 -183 -9z m126 -111 c17 -13 19 -30 23 -137 4 -162 -14 -222 -63 -203
-25 10 -36 63 -36 175 0 153 23 203 76 165z"/>
<path d="M167 1093 c-3 -21 -12 -65 -20 -98 -8 -33 -32 -139 -55 -235 -22 -96
-44 -183 -47 -192 -6 -16 1 -18 73 -18 l81 0 7 45 6 45 54 0 c54 0 54 0 56
-32 0 -18 1 -39 1 -45 -1 -10 23 -13 84 -13 80 0 84 1 78 20 -6 19 -37 153
-102 443 l-26 117 -92 0 -92 0 -6 -37z m128 -290 l6 -53 -36 0 c-35 0 -36 2
-31 28 2 15 10 68 17 117 l13 90 12 -65 c7 -36 15 -89 19 -117z"/>
<path d="M510 841 l0 -291 128 1 c159 1 212 19 247 85 19 37 19 107 1 143 -16
31 -56 61 -81 61 -24 0 -17 15 13 26 55 21 78 117 44 183 -29 59 -77 75 -224
80 l-128 3 0 -291z m218 157 c6 -6 12 -25 12 -43 0 -35 -11 -48 -47 -59 -22
-7 -23 -5 -23 59 0 64 1 66 23 59 12 -3 28 -11 35 -16z m9 -220 c28 -23 6
-108 -27 -108 -5 0 -15 -3 -24 -6 -14 -5 -16 4 -16 66 l0 72 27 -7 c16 -4 34
-11 40 -17z"/>
<path d="M1750 840 l0 -290 140 0 140 0 0 65 0 65 -60 0 -61 0 3 225 3 225
-82 0 -83 0 0 -290z"/>
<path d="M2050 886 c6 -278 6 -280 91 -324 37 -19 56 -23 120 -20 63 2 82 8
118 31 66 44 70 63 74 326 l3 231 -81 0 -81 0 4 -192 c5 -225 -1 -261 -42
-266 -16 -2 -33 2 -37 10 -5 7 -9 111 -9 231 l0 217 -82 0 -83 0 5 -244z"/>
<path d="M2480 1065 l0 -65 50 0 51 0 -3 -225 -3 -225 83 0 82 0 0 225 0 225
45 0 45 0 0 65 0 65 -175 0 -175 0 0 -65z"/>
<path d="M2902 1090 c0 -19 2 -27 5 -17 2 9 2 25 0 35 -3 9 -5 1 -5 -18z"/>
<path d="M2925 1080 c3 -5 8 -10 11 -10 2 0 4 5 4 10 0 6 -5 10 -11 10 -5 0
-7 -4 -4 -10z"/>
<path d="M2839 707 c-37 -28 -51 -96 -26 -128 21 -28 57 -41 93 -35 40 8 64
39 64 84 0 65 -83 116 -131 79z"/>
</g>
</svg>
