<?xml version="1.0" standalone="no"?>
<!DOCTYPE svg PUBLIC "-//W3C//DTD SVG 20010904//EN"
 "http://www.w3.org/TR/2001/REC-SVG-20010904/DTD/svg10.dtd">
<svg version="1.0" xmlns="http://www.w3.org/2000/svg"
 width="300.000000pt" height="169.000000pt" viewBox="0 0 300.000000 169.000000"
 preserveAspectRatio="xMidYMid meet">
<metadata>
Created by potrace 1.10, written by Peter Selinger 2001-2011
</metadata>
<g transform="translate(0.000000,169.000000) scale(0.100000,-0.100000)"
fill="#cccccc" stroke="none">
<path d="M1465 1240 c4 -6 11 -8 16 -5 14 9 11 15 -7 15 -8 0 -12 -5 -9 -10z"/>
<path d="M1450 1215 c0 -8 -6 -15 -13 -15 -8 0 -22 -9 -31 -19 -13 -15 -14
-20 -4 -24 11 -4 10 -7 -1 -18 -10 -11 -15 -11 -18 -1 -3 6 -13 12 -24 12 -20
0 -16 -24 9 -49 7 -7 11 -20 8 -27 -3 -7 -1 -16 4 -19 6 -4 10 -12 10 -18 0
-7 -10 -1 -21 13 l-20 25 6 -35 c4 -24 3 -31 -3 -21 -8 11 -13 7 -26 -18 -9
-17 -23 -31 -30 -31 -19 0 -27 -69 -9 -79 8 -4 14 -31 16 -68 4 -61 20 -97 41
-90 6 2 26 -7 45 -20 37 -25 55 -29 49 -11 -3 7 -15 15 -29 18 -32 8 -11 20
24 13 18 -4 27 -12 27 -24 0 -11 -4 -19 -10 -19 -5 0 -10 -7 -10 -15 0 -10 11
-15 35 -15 23 0 35 5 35 14 0 7 13 19 30 26 35 15 68 49 35 36 -16 -6 -17 -5
-8 5 10 10 15 9 28 -1 12 -10 18 -10 30 0 25 20 29 50 8 66 -17 13 -17 15 0
28 18 14 25 52 7 41 -5 -3 -10 -1 -10 4 0 6 9 11 20 11 36 0 25 51 -20 101
-22 24 -39 51 -37 59 1 8 -4 20 -11 26 -12 9 -12 12 0 25 7 8 13 20 12 27 -1
6 -2 18 -3 25 -1 7 -7 4 -16 -7 -12 -16 -18 -17 -27 -8 -10 10 -10 15 1 21 10
7 8 12 -10 25 -13 9 -29 16 -36 16 -7 0 -10 7 -7 15 4 8 1 15 -5 15 -14 0 -34
-38 -26 -50 4 -6 2 -9 -4 -8 -5 2 -16 -6 -24 -16 -12 -17 -14 -17 -20 -3 -4
11 1 20 13 27 23 12 46 50 30 50 -5 0 -10 -7 -10 -15z m73 -37 c12 -9 14 -17
7 -28 -8 -12 -10 -12 -16 3 -3 9 -12 17 -20 17 -8 0 -14 5 -14 10 0 14 23 13
43 -2z m-28 -50 c-7 14 -4 15 19 6 9 -3 14 -10 11 -14 -3 -5 -1 -11 5 -15 5
-3 10 1 10 10 0 9 5 13 10 10 17 -10 12 -45 -5 -39 -8 4 -15 1 -15 -5 0 -6 -8
-8 -17 -5 -10 3 -3 -3 16 -14 22 -12 29 -21 21 -24 -11 -3 -10 -6 2 -10 20 -8
18 20 -3 33 -12 7 -11 9 3 9 18 0 33 -33 23 -50 -3 -5 -3 -15 1 -21 4 -8 9 -7
15 2 4 7 11 10 16 6 4 -5 2 -12 -5 -16 -9 -5 -10 -14 -3 -32 7 -17 10 -19 10
-6 1 19 9 21 31 7 12 -8 12 -10 -3 -16 -23 -9 -21 -23 6 -35 21 -9 21 -9 -5
-6 -24 4 -26 1 -23 -30 1 -19 -3 -40 -10 -46 -7 -6 -10 -20 -7 -31 4 -15 1
-18 -12 -13 -12 5 -19 0 -26 -16 -5 -12 -9 -18 -9 -14 -1 4 -11 3 -22 -4 -31
-16 -85 -14 -114 5 -30 20 -41 21 -26 2 9 -11 8 -15 -4 -20 -11 -4 -14 -2 -9
6 5 7 0 9 -14 6 -12 -4 -20 -2 -17 2 3 5 1 11 -5 15 -6 4 -7 11 -4 17 4 6 2 8
-4 4 -6 -3 -13 -2 -17 4 -3 6 1 13 9 16 9 3 13 11 9 17 -4 6 -1 7 7 2 8 -5 11
-3 8 6 -3 8 -14 13 -24 11 -17 -2 -17 -1 -3 10 21 17 25 100 4 92 -7 -3 -11
-14 -8 -25 4 -12 0 -19 -9 -19 -11 0 -13 9 -10 31 4 26 8 30 28 26 16 -3 24 0
24 9 0 20 2 23 36 59 27 29 36 33 76 30 44 -3 45 -2 30 14 -14 14 -19 14 -25
4 -4 -7 -13 -13 -18 -13 -6 0 -7 5 -3 12 5 7 2 9 -7 6 -8 -3 -25 5 -38 18
l-24 23 34 9 c22 6 36 5 41 -2 4 -6 9 -4 14 7 6 17 7 17 21 0 8 -10 12 -12 8
-5z m-170 -248 c3 -5 1 -10 -4 -10 -6 0 -11 5 -11 10 0 6 2 10 4 10 3 0 8 -4
11 -10z m305 -111 c-7 -11 -14 -18 -17 -15 -3 3 0 12 7 21 18 21 23 19 10 -6z
m-90 -54 c0 -1 -9 -5 -20 -8 -12 -3 -20 0 -20 8 0 8 8 11 20 8 11 -3 20 -7 20
-8z m-50 -10 c0 -8 -4 -15 -10 -15 -5 0 -10 7 -10 15 0 8 5 15 10 15 6 0 10
-7 10 -15z"/>
<path d="M1405 1110 c3 -5 12 -7 20 -3 21 7 19 13 -6 13 -11 0 -18 -4 -14 -10z"/>
<path d="M1460 1106 c0 -2 11 -6 25 -8 13 -3 22 -1 19 3 -5 9 -44 13 -44 5z"/>
<path d="M1420 1042 c5 -2 10 -10 10 -19 0 -10 6 -12 19 -8 26 8 73 -5 68 -18
-2 -6 -10 -12 -18 -15 -11 -3 -11 -1 1 8 12 8 8 10 -20 8 -47 -4 -49 -33 -2
-34 17 -1 32 3 32 8 0 4 7 8 16 8 26 0 10 -24 -29 -43 -35 -16 -50 -37 -26
-37 5 0 7 -6 3 -12 -4 -8 -3 -9 2 -5 5 5 9 16 9 24 0 9 5 18 12 20 8 3 11 -8
10 -34 -2 -28 -8 -41 -25 -48 -20 -9 -33 -29 -14 -22 4 1 8 -2 9 -7 1 -5 7
-13 15 -17 13 -9 11 -9 -29 -9 -5 0 -9 5 -9 10 -1 6 -2 14 -3 19 -1 13 -30 41
-42 41 -5 0 -9 -5 -9 -12 0 -6 3 -8 7 -5 9 10 35 -31 27 -44 -3 -6 0 -15 7
-20 11 -7 11 -9 1 -9 -7 0 -10 -4 -7 -10 8 -12 65 -13 84 -1 12 8 12 13 -2 35
-16 23 -14 56 2 56 4 0 15 -6 26 -13 12 -10 14 -16 7 -21 -14 -9 -16 -36 -2
-36 16 0 40 57 45 107 4 33 3 42 -4 28 -8 -19 -9 -18 -16 8 -4 15 -12 27 -19
27 -6 0 -2 8 9 16 20 15 19 16 -12 44 -17 15 -30 30 -28 32 2 1 -23 3 -56 3
-32 0 -55 -1 -49 -3z m125 -42 c3 -5 1 -10 -4 -10 -6 0 -11 5 -11 10 0 6 2 10
4 10 3 0 8 -4 11 -10z m9 -72 c11 -42 7 -58 -14 -58 -16 0 -20 7 -20 33 0 50
23 66 34 25z m27 -65 c-8 -15 -10 -15 -11 -2 0 17 10 32 18 25 2 -3 -1 -13 -7
-23z m-76 -93 c-3 -5 -13 -10 -21 -10 -8 0 -12 5 -9 10 3 6 13 10 21 10 8 0
12 -4 9 -10z"/>
<path d="M1388 1003 c-32 -37 -38 -63 -36 -151 2 -67 6 -88 16 -85 15 6 16 20
2 28 -5 3 -10 12 -10 18 0 7 10 0 21 -15 11 -16 25 -28 30 -28 14 0 10 26 -6
40 -10 9 -15 32 -15 79 -1 64 -1 65 -15 36 -7 -16 -14 -23 -14 -15 -1 28 11
60 24 60 20 0 40 29 28 41 -6 6 -15 3 -25 -8z m-8 -148 c0 -5 -5 -3 -10 5 -5
8 -10 20 -10 25 0 6 5 3 10 -5 5 -8 10 -19 10 -25z"/>
<path d="M1421 894 c0 -11 3 -14 6 -6 3 7 2 16 -1 19 -3 4 -6 -2 -5 -13z"/>
<path d="M150 980 c0 -5 5 -10 10 -10 15 0 12 -77 -2 -84 -10 -5 -10 -7 0 -12
6 -3 12 -22 12 -42 0 -28 -7 -42 -27 -58 -26 -21 -27 -24 -11 -40 19 -19 45
-10 29 10 -16 19 -3 26 43 26 23 0 52 7 64 16 28 19 30 68 3 86 -20 14 -20 14
0 26 25 16 24 47 -1 72 -15 15 -33 20 -70 20 -27 0 -50 -4 -50 -10z m96 -35
c7 -27 -10 -55 -32 -55 -10 0 -14 13 -14 40 0 33 3 40 20 40 13 0 22 -9 26
-25z m0 -90 c11 -27 -5 -65 -26 -65 -17 0 -20 7 -20 40 0 34 3 40 20 40 11 0
23 -7 26 -15z"/>
<path d="M360 970 c-11 -11 -23 -34 -27 -50 -3 -17 -10 -30 -15 -30 -7 0 -7
-4 -1 -12 6 -7 13 -26 17 -43 11 -44 34 -65 73 -65 27 0 37 6 53 33 24 38 26
106 5 146 -23 46 -71 55 -105 21z m75 -42 c5 -21 3 -33 -6 -39 -12 -8 -12 -10
0 -18 16 -10 7 -64 -13 -80 -24 -20 -41 16 -41 89 0 73 17 109 41 89 7 -6 16
-24 19 -41z"/>
<path d="M510 980 c0 -5 5 -10 10 -10 15 0 12 -77 -2 -84 -10 -5 -10 -7 0 -12
15 -7 16 -76 0 -92 -9 -9 -6 -12 14 -12 28 0 28 -1 13 119 -6 44 8 28 24 -28
30 -104 30 -104 61 -16 l28 80 1 -65 c1 -39 -4 -71 -11 -78 -9 -9 -4 -12 23
-12 l34 0 0 110 0 110 -34 0 c-24 0 -32 -4 -28 -14 6 -15 -23 -116 -33 -116
-8 0 -35 92 -33 113 2 13 -5 17 -32 17 -19 0 -35 -4 -35 -10z"/>
<path d="M748 978 c16 -16 15 -85 0 -92 -10 -5 -10 -7 0 -12 15 -7 16 -76 0
-92 -19 -19 82 -16 110 4 28 19 30 68 3 86 -20 14 -20 14 0 26 26 16 24 57 -3
76 -28 20 -129 23 -110 4z m90 -36 c4 -25 -13 -52 -32 -52 -7 0 -11 17 -11 40
0 35 2 40 20 38 12 -2 21 -12 23 -26z m-3 -112 c0 -28 -4 -36 -20 -38 -18 -2
-20 3 -20 38 0 35 2 40 20 38 16 -2 20 -10 20 -38z"/>
<path d="M960 971 c0 -31 -21 -81 -32 -75 -6 4 -8 -4 -4 -22 4 -19 0 -42 -13
-66 l-19 -38 31 0 c23 0 28 3 20 11 -18 18 -3 39 27 39 30 0 45 -21 27 -39 -8
-8 0 -11 33 -11 40 0 42 1 28 18 -8 9 -26 59 -39 110 -19 72 -27 92 -41 92
-11 0 -18 -7 -18 -19z m29 -113 c1 -12 -6 -18 -19 -18 -23 0 -24 2 -8 55 l12
40 7 -30 c3 -16 7 -38 8 -47z"/>
<path d="M1040 981 c0 -5 4 -11 8 -13 4 -1 18 -20 31 -40 16 -27 19 -38 9 -38
-9 -1 -7 -5 5 -14 18 -14 25 -86 7 -86 -5 0 -10 -4 -10 -10 0 -5 17 -10 37
-10 29 0 34 3 25 12 -28 28 -3 136 46 191 14 16 13 17 -16 17 -22 0 -30 -4
-26 -14 3 -7 -1 -29 -9 -47 l-14 -34 -16 32 c-9 17 -14 39 -11 47 5 13 -1 16
-30 16 -20 0 -36 -4 -36 -9z"/>
<path d="M1767 972 c-19 -21 -22 -48 -6 -57 6 -4 8 -14 5 -22 -4 -9 1 -17 12
-20 10 -2 26 -17 35 -32 14 -25 15 -30 2 -47 -15 -19 -15 -19 -30 0 -8 11 -15
26 -15 33 0 7 -4 13 -10 13 -5 0 -10 -16 -10 -35 0 -34 1 -35 38 -35 43 0 72
23 72 57 0 12 -16 40 -35 64 -36 42 -43 78 -17 87 7 2 17 -10 23 -28 13 -36
22 -33 23 10 1 28 -1 30 -35 30 -22 0 -42 -7 -52 -18z"/>
<path d="M1916 940 c-5 -37 -11 -50 -23 -50 -12 0 -14 -3 -6 -11 12 -12 -3
-89 -18 -89 -5 0 -9 -4 -9 -10 0 -5 11 -10 25 -10 20 0 24 5 22 22 -1 17 4 24
22 26 28 4 45 -16 29 -35 -8 -10 -2 -13 27 -13 29 0 35 3 27 13 -5 6 -20 56
-33 110 -18 75 -27 97 -40 97 -12 0 -18 -13 -23 -50z m32 -62 c10 -36 9 -38
-13 -38 -22 0 -22 2 -13 40 12 47 13 47 26 -2z"/>
<path d="M2028 978 c15 -15 16 -88 1 -88 -8 0 -8 -5 1 -15 8 -10 11 -32 8 -60
-5 -44 -5 -45 22 -45 26 0 27 1 22 50 -4 44 -2 50 15 50 10 0 26 6 35 13 54
42 12 107 -69 107 -36 0 -44 -3 -35 -12z m87 -29 c8 -25 -2 -56 -20 -63 -12
-4 -15 5 -15 44 0 39 3 48 15 44 8 -3 17 -14 20 -25z"/>
<path d="M2168 978 c7 -7 12 -29 12 -50 0 -23 -5 -38 -12 -38 -9 0 -9 -3 0
-12 7 -7 12 -28 12 -48 0 -20 -5 -41 -12 -48 -9 -9 -4 -12 24 -12 l35 0 -5 50
c-4 45 -3 50 16 50 50 0 72 75 30 104 -27 19 -119 23 -100 4z m85 -29 c7 -26
-2 -57 -19 -63 -11 -4 -14 6 -14 44 0 38 3 48 14 44 8 -3 16 -14 19 -25z"/>
<path d="M2308 978 c7 -7 12 -29 12 -50 0 -23 -5 -38 -12 -38 -9 0 -9 -3 0
-12 7 -7 12 -28 12 -48 0 -20 -5 -41 -12 -48 -9 -9 -4 -12 25 -12 20 0 37 5
37 10 0 6 -4 10 -10 10 -5 0 -10 18 -10 40 0 36 3 40 25 40 22 0 25 -4 25 -38
0 -21 -5 -43 -12 -50 -9 -9 -4 -12 25 -12 20 0 37 5 37 10 0 6 -3 10 -8 10 -4
0 -6 17 -5 38 1 20 4 65 6 100 l3 62 -35 0 c-27 0 -32 -3 -23 -12 7 -7 12 -29
12 -50 0 -34 -3 -38 -25 -38 -22 0 -25 4 -25 40 0 22 5 40 10 40 6 0 10 5 10
10 0 6 -17 10 -37 10 -29 0 -34 -3 -25 -12z"/>
<path d="M2478 978 c7 -7 12 -29 12 -50 0 -23 -5 -38 -12 -38 -9 0 -9 -3 0
-12 7 -7 12 -28 12 -48 0 -20 -5 -41 -12 -48 -9 -9 -4 -12 23 -12 l34 0 0 110
0 110 -34 0 c-27 0 -32 -3 -23 -12z"/>
<path d="M2578 939 c3 -37 2 -50 -7 -45 -6 4 -11 3 -11 -3 0 -5 5 -13 11 -17
7 -4 9 -25 7 -55 -5 -48 -4 -49 22 -49 27 0 27 1 22 51 -3 35 -1 50 6 45 11
-7 27 -63 23 -83 -1 -9 11 -13 35 -13 35 0 36 1 22 18 -9 9 -21 33 -28 54 -12
31 -11 38 3 53 41 41 3 95 -67 95 l-43 0 5 -51z m82 1 c0 -29 -11 -50 -26 -50
-10 0 -14 13 -14 45 0 43 1 45 20 35 11 -6 20 -19 20 -30z"/>
<path d="M2738 939 c3 -37 2 -50 -7 -45 -6 4 -11 3 -11 -3 0 -5 5 -13 11 -17
7 -4 9 -25 7 -55 l-5 -49 53 0 c42 0 54 -3 54 -16 0 -8 -4 -12 -10 -9 -5 3
-10 2 -10 -3 0 -12 21 -20 38 -15 17 6 15 42 -3 49 -11 5 -12 10 -4 26 16 29
0 37 -21 11 -29 -37 -50 -30 -50 17 0 41 14 52 38 28 9 -9 12 -5 12 20 0 18
-4 32 -10 32 -5 0 -10 -4 -10 -10 0 -5 -7 -10 -15 -10 -11 0 -15 11 -15 40 0
44 22 55 46 23 16 -22 28 -12 19 16 -5 18 -14 21 -59 21 l-53 0 5 -51z"/>
<path d="M2882 786 c1 -10 8 -17 13 -17 15 1 12 24 -3 29 -9 3 -13 -2 -10 -12z"/>
</g>
</svg>
