<?xml version="1.0" standalone="no"?>
<!DOCTYPE svg PUBLIC "-//W3C//DTD SVG 20010904//EN"
 "http://www.w3.org/TR/2001/REC-SVG-20010904/DTD/svg10.dtd">
<svg version="1.0" xmlns="http://www.w3.org/2000/svg"
 width="300.000000pt" height="300.000000pt" viewBox="0 0 300.000000 300.000000"
 preserveAspectRatio="xMidYMid meet">
<metadata>
Created by potrace 1.10, written by Peter Selinger 2001-2011
</metadata>
<g transform="translate(0.000000,300.000000) scale(0.100000,-0.100000)"
fill="#999999" stroke="none">
<path d="M1323 2547 l27 -11 0 -278 0 -277 -27 -15 c-26 -14 -18 -15 97 -9
159 7 198 22 230 87 18 39 22 59 18 122 -3 70 -6 78 -35 104 -17 15 -37 30
-44 34 -11 5 -12 7 -1 12 45 21 65 52 70 106 9 110 -41 139 -236 137 -102 -1
-122 -3 -99 -12z m107 -121 c0 -56 4 -96 12 -104 8 -8 8 -15 1 -24 -13 -16
-21 -278 -10 -295 6 -10 0 -13 -22 -13 l-31 0 0 264 c0 270 2 282 38 268 8 -3
12 -32 12 -96z m149 89 c5 2 20 -8 34 -23 23 -24 25 -31 17 -71 -6 -32 -17
-52 -39 -70 -17 -15 -31 -32 -31 -40 0 -8 18 -31 41 -52 l41 -38 -4 -81 c-3
-78 -5 -83 -36 -111 -18 -16 -39 -29 -48 -29 -13 0 -12 6 7 37 16 26 23 55 26
104 3 78 -4 102 -41 142 l-26 28 29 35 c23 29 28 45 28 87 0 30 -5 57 -13 65
-8 7 -11 19 -7 25 5 8 8 8 11 -1 2 -7 7 -10 11 -7z m-49 -15 c11 -7 15 -27 15
-70 0 -69 -16 -90 -67 -90 l-28 0 0 85 0 85 33 0 c17 0 39 -5 47 -10z m4 -239
c23 -25 32 -123 17 -179 -12 -42 -34 -63 -78 -77 l-23 -6 0 140 0 141 33 0
c21 0 41 -8 51 -19z"/>
<path d="M1718 2381 c22 -19 22 -23 20 -212 l-3 -193 -24 -6 c-15 -3 22 -14
105 -29 71 -13 135 -26 142 -28 9 -4 12 14 12 68 l0 74 -26 -42 c-25 -43 -38
-48 -81 -37 -22 6 -23 11 -23 100 0 105 9 116 48 61 l22 -32 0 69 0 69 -23
-21 c-39 -37 -47 -29 -47 49 l0 72 31 -7 c17 -3 35 -6 39 -6 4 0 15 -18 25
-40 10 -22 21 -40 24 -40 4 0 7 24 8 54 l1 54 -111 17 c-62 9 -123 19 -137 21
l-25 5 23 -20z m93 -108 c4 -262 3 -303 -3 -303 -36 0 -38 9 -38 196 0 177 1
184 20 184 18 0 20 -7 21 -77z"/>
<path d="M1122 2362 l-52 -15 -38 -119 -38 -119 -24 58 c-13 32 -32 77 -42 99
l-18 42 -56 -21 c-40 -15 -52 -23 -40 -27 16 -5 17 -26 16 -215 -1 -178 -3
-212 -17 -227 -20 -23 -16 -23 35 2 22 11 46 20 52 20 5 0 10 5 10 10 0 6 -7
10 -15 10 -13 0 -15 22 -15 143 l1 142 39 -85 c22 -47 46 -98 53 -114 13 -29
14 -28 46 75 48 156 50 157 45 25 -2 -66 -8 -124 -14 -130 -22 -22 -8 -23 51
-5 33 10 69 19 80 19 10 0 19 5 19 10 0 6 -9 10 -20 10 -19 0 -20 7 -20 199 0
195 1 200 22 215 28 20 11 19 -60 -2z m7 -222 c3 -190 3 -190 -19 -190 -19 0
-21 5 -20 43 5 112 0 157 -18 175 -21 21 -21 39 2 102 15 39 30 59 46 60 3 0
7 -86 9 -190z m-205 68 c13 -29 27 -63 31 -76 3 -12 17 -30 30 -38 21 -13 23
-19 14 -42 -6 -15 -10 -29 -9 -32 1 -2 -2 -6 -7 -7 -4 -2 -24 27 -43 64 -19
38 -44 72 -55 78 -17 8 -19 18 -17 58 4 63 25 62 56 -5z"/>
<path d="M468 2320 c-98 -52 -116 -65 -75 -55 l27 7 -1 -238 c-1 -323 -7 -395
-38 -428 -14 -14 -28 -26 -33 -26 -4 0 -8 45 -8 101 l0 100 -60 -47 -60 -47 0
-74 c0 -66 3 -77 26 -99 30 -31 56 -27 126 17 57 37 109 93 140 151 22 42 23
52 26 348 2 200 7 309 14 317 21 25 3 20 -84 -27z m31 -317 c-3 -164 -7 -305
-10 -313 -3 -8 -18 -28 -33 -45 -21 -22 -27 -25 -21 -10 4 11 10 160 12 330 4
268 7 312 21 323 9 6 21 12 26 12 8 0 9 -91 5 -297z m-189 -353 c0 -46 5 -65
19 -79 14 -14 16 -22 8 -30 -13 -13 -73 -15 -81 -2 -10 16 7 143 21 157 26 25
33 15 33 -46z"/>
<path d="M2106 2306 c20 -16 20 -16 -33 -203 -29 -103 -58 -190 -63 -193 -5
-3 13 -16 40 -27 28 -12 50 -17 50 -13 0 5 -4 12 -10 15 -14 9 -12 65 2 65 7
0 32 -7 55 -16 39 -15 43 -20 43 -50 0 -25 -4 -34 -17 -35 -10 0 10 -14 45
-30 35 -16 76 -38 92 -49 37 -27 44 -25 24 5 -11 17 -28 106 -50 256 -18 127
-34 232 -36 234 -3 2 -70 25 -143 49 -19 7 -19 7 1 -8z m111 -64 c7 3 20 -72
38 -222 3 -25 10 -69 15 -99 14 -78 13 -92 -7 -89 -27 5 -43 24 -43 53 0 15
-7 33 -16 42 -11 11 -14 26 -9 52 10 61 -12 193 -35 213 -19 15 -27 57 -14 71
4 3 19 0 35 -9 16 -8 32 -13 36 -12z m-53 -144 c4 -46 9 -93 12 -105 6 -22 6
-22 -33 -7 l-39 16 20 89 c12 49 24 89 27 89 3 0 9 -37 13 -82z"/>
<path d="M670 2219 c-48 -22 -75 -39 -62 -39 l22 0 0 -219 c0 -206 -1 -220
-21 -245 -24 -30 -15 -34 21 -9 14 10 51 32 84 49 51 27 56 33 37 39 -21 6
-21 11 -21 212 0 178 2 209 17 225 9 10 14 20 12 21 -2 2 -42 -13 -89 -34z
m32 -280 l3 -157 -25 -9 -25 -9 3 204 c2 180 5 207 20 218 20 15 20 13 24
-247z"/>
<path d="M2380 2211 c0 -5 7 -14 15 -21 12 -10 15 -48 15 -226 0 -212 0 -213
-22 -216 -19 -3 -14 -9 32 -40 30 -20 57 -35 59 -33 1 2 -4 14 -13 27 -13 18
-16 49 -16 150 0 70 -3 129 -7 131 -13 8 -3 169 10 164 7 -2 26 -44 42 -93 17
-50 37 -97 45 -106 13 -14 18 -12 41 21 15 20 30 46 33 59 8 25 13 26 41 9 19
-11 20 -23 20 -233 0 -166 -3 -221 -12 -221 -21 0 -25 27 -26 174 -2 100 -6
146 -15 155 -19 19 -41 0 -66 -61 l-23 -53 -19 72 c-19 75 -46 130 -64 130 -7
0 -7 -6 0 -17 12 -23 70 -233 70 -256 0 -9 5 -17 10 -17 6 0 10 6 10 13 0 6
16 53 35 102 l34 90 1 -147 c0 -145 0 -147 -22 -150 -21 -3 -20 -5 12 -24 19
-11 59 -42 88 -68 57 -52 62 -53 32 -4 -18 30 -20 51 -20 261 l0 227 28 -6
c36 -9 23 4 -54 54 l-62 40 -28 -70 c-16 -41 -30 -64 -34 -56 -4 7 -17 53 -30
101 l-23 88 -59 30 c-32 16 -58 25 -58 20z"/>
<path d="M1671 1828 c-25 -12 -52 -36 -64 -56 l-20 -34 -66 7 c-36 3 -85 6
-108 8 -26 1 -43 6 -43 13 0 7 -12 26 -26 43 -39 46 -90 44 -147 -7 -23 -21
-67 -57 -97 -80 -30 -23 -61 -47 -69 -53 -16 -14 -8 -82 15 -116 7 -12 14 -44
14 -70 0 -38 -8 -61 -40 -113 -32 -52 -40 -75 -40 -113 0 -48 25 -112 53 -136
9 -7 21 -43 27 -80 6 -37 20 -82 31 -99 21 -35 69 -70 110 -78 l25 -6 -32 -81
c-53 -132 -94 -319 -64 -290 7 6 14 24 16 40 2 15 5 39 8 53 2 14 7 43 11 65
4 22 18 61 31 87 13 26 24 55 24 63 0 10 5 13 12 9 7 -4 8 -3 4 4 -4 6 -2 21
4 31 10 20 11 19 38 -8 38 -40 87 -62 138 -64 25 -1 42 -6 40 -12 -2 -5 -9 -9
-15 -7 -7 1 -9 -3 -6 -9 6 -9 -5 -42 -22 -68 -1 -2 -9 2 -18 9 -8 7 -15 9 -15
5 0 -4 7 -13 17 -20 13 -9 13 -14 3 -20 -9 -6 -11 -4 -5 5 5 8 4 11 -3 6 -6
-4 -9 -13 -5 -21 3 -9 -2 -31 -11 -49 -9 -19 -19 -48 -22 -66 l-7 -31 -23 22
c-13 12 -21 26 -17 32 3 6 1 7 -5 4 -5 -4 -22 7 -37 24 -26 32 -26 32 -41 11
-10 -15 -22 -19 -42 -16 -19 3 -23 2 -13 -5 12 -8 11 -12 -4 -27 -11 -12 -14
-19 -6 -22 6 -2 11 -13 11 -25 0 -19 5 -16 40 18 l39 38 60 -51 c33 -29 62
-52 65 -52 3 0 6 21 8 48 l3 47 25 -40 25 -40 6 77 c8 90 14 117 41 179 24 57
51 57 69 0 30 -92 147 -273 157 -243 2 7 -9 26 -25 42 -35 36 -75 108 -67 121
3 5 0 9 -6 9 -13 0 -40 60 -40 89 0 14 5 18 20 14 11 -3 36 4 56 16 19 12 39
19 44 16 4 -3 10 2 14 10 8 22 36 19 31 -4 -2 -11 6 -27 18 -38 22 -18 22 -18
5 2 -20 23 -21 35 -5 54 9 12 9 13 0 7 -8 -4 -13 -1 -13 9 0 14 2 14 23 -1 13
-10 24 -26 24 -36 1 -10 8 -25 16 -33 9 -8 21 -28 29 -45 7 -16 16 -30 20 -30
5 0 8 -5 8 -11 0 -8 -24 -10 -74 -6 l-74 5 -6 -37 c-17 -111 -18 -104 19 -128
l35 -22 -6 81 -7 81 72 -6 c61 -5 72 -4 67 9 -4 9 1 14 14 14 27 0 26 4 -18
58 -39 47 -106 152 -100 156 2 2 20 12 40 25 85 51 136 150 125 243 -5 40 -2
59 15 92 13 25 21 58 21 86 -1 57 -38 155 -65 175 -20 13 -20 16 -5 32 24 27
56 104 50 120 -7 18 -179 190 -203 203 -27 14 -40 13 -89 -12z m-340 -27 c16
-16 29 -38 29 -48 -1 -13 -5 -10 -17 12 -20 37 -31 45 -65 45 -16 0 -28 5 -28
10 0 22 53 9 81 -19z m443 7 c8 -12 13 -25 10 -30 -3 -5 -2 -7 3 -6 8 3 13 -5
13 -23 0 -5 -5 -7 -12 -3 -7 4 -8 3 -4 -5 4 -6 11 -9 16 -6 5 3 13 -3 19 -12
6 -10 11 -13 11 -7 0 5 -5 15 -12 22 -9 9 -9 12 0 12 7 0 12 -4 12 -9 0 -5 16
-24 35 -42 18 -18 32 -36 29 -40 -2 -4 4 -6 15 -4 11 2 22 -3 25 -11 4 -10 2
-13 -7 -8 -9 5 -9 4 1 -7 17 -19 16 -53 -3 -46 -8 4 -17 2 -20 -4 -4 -5 -3 -9
2 -8 20 4 22 -3 7 -26 -9 -14 -20 -25 -24 -25 -13 0 -100 92 -100 105 0 7 -17
29 -37 50 -30 31 -34 40 -22 49 8 6 15 18 17 26 2 8 8 17 13 18 14 5 11 28 -6
42 -22 18 -63 4 -103 -36 -19 -19 -37 -32 -41 -29 -3 4 13 24 36 46 50 47 102
54 127 17z m-462 -35 c23 -21 23 -27 -5 -57 l-23 -25 -14 22 c-7 12 -15 34
-16 49 -3 23 0 28 18 28 12 0 30 -7 40 -17z m416 0 c-2 -10 -8 -24 -15 -30 -6
-7 -13 -18 -15 -25 -3 -9 -10 -8 -25 3 -20 14 -20 16 -5 36 16 19 35 30 55 32
4 1 7 -7 5 -16z m-518 -5 c0 -9 4 -8 10 2 7 12 10 8 10 -14 0 -23 -3 -27 -12
-18 -16 16 -33 15 -19 -1 6 -8 8 -16 5 -20 -3 -3 2 -4 13 -3 18 3 33 -10 33
-30 0 -6 -19 -17 -42 -25 -24 -8 -64 -34 -91 -60 -42 -40 -49 -44 -57 -29 -6
11 -5 21 3 30 9 10 9 11 0 6 -9 -5 -13 2 -13 23 0 21 6 32 20 36 11 3 20 11
20 16 0 5 5 9 10 9 6 0 30 20 53 45 43 46 57 54 57 33z m245 -48 c3 -5 17 -7
30 -4 25 4 29 -2 26 -37 -1 -9 6 -19 15 -23 14 -5 15 -4 4 9 -10 12 -10 18 1
33 7 9 14 18 15 20 1 2 12 -3 23 -10 18 -11 23 -11 30 1 6 9 11 10 15 2 4 -6
18 -11 32 -11 13 0 24 -4 24 -10 0 -5 11 -12 25 -16 28 -7 85 -67 85 -89 0
-19 49 -75 66 -75 7 0 18 -9 24 -21 7 -11 14 -18 17 -15 8 8 33 -42 33 -65 0
-10 4 -20 9 -24 6 -3 8 -14 6 -25 -2 -12 0 -18 4 -15 5 3 11 -2 15 -10 3 -8 0
-15 -7 -16 -8 0 -9 -2 -1 -5 19 -8 -5 -86 -28 -92 -10 -2 -18 -9 -18 -14 0 -5
-4 -6 -10 -3 -18 11 -10 32 11 31 12 -1 23 5 25 12 1 7 0 8 -3 2 -2 -5 -11
-10 -19 -10 -9 0 -12 5 -8 12 4 6 3 8 -2 5 -6 -3 -10 16 -12 44 -1 49 -33 137
-53 150 -5 3 -11 15 -12 27 0 11 -4 19 -8 17 -3 -3 -18 9 -33 25 -14 17 -23
30 -19 30 5 1 -7 7 -25 15 -19 9 -31 19 -27 25 5 8 14 5 28 -7 l21 -18 -20 27
c-16 22 -21 25 -30 13 -9 -13 -14 -12 -30 1 -10 9 -12 12 -4 8 8 -4 12 -4 8 1
-4 4 -24 9 -45 11 -61 7 -63 7 -63 14 0 4 -8 7 -17 7 -63 -1 -82 4 -77 17 3 8
1 17 -5 21 -7 3 -8 0 -5 -9 3 -9 2 -17 -2 -17 -5 -1 -18 -3 -29 -4 -12 -1 -31
-7 -43 -14 -12 -6 -33 -9 -47 -7 -16 3 -23 1 -19 -6 7 -11 -13 -28 -35 -28 -9
0 -12 8 -9 25 3 14 1 25 -5 25 -5 0 -7 -13 -5 -30 4 -25 2 -28 -11 -17 -12 10
-13 9 -7 -1 5 -9 -11 -32 -47 -68 -31 -31 -56 -57 -57 -60 -6 -28 -13 -35 -21
-22 -6 9 -9 3 -9 -18 0 -17 -7 -48 -15 -67 -8 -20 -11 -38 -6 -41 4 -3 14 14
20 37 19 64 54 118 110 170 79 74 126 91 251 92 93 0 111 -3 162 -27 191 -89
274 -316 186 -506 -33 -71 -131 -164 -200 -190 -79 -30 -144 -36 -214 -22
-123 25 -213 93 -265 197 -19 37 -37 69 -40 71 -4 2 -4 12 -1 24 4 16 2 19 -8
13 -9 -6 -11 -4 -5 4 10 17 12 121 3 121 -5 0 -8 -6 -9 -12 -5 -88 -5 -119 2
-124 4 -2 6 -11 3 -19 -4 -8 -10 -12 -15 -9 -5 3 -6 11 -3 17 4 8 2 7 -7 -1
-12 -11 -12 -14 1 -22 8 -5 17 -7 21 -4 13 7 18 -23 6 -37 -10 -11 -9 -11 6 0
15 12 17 11 17 -8 0 -11 5 -21 12 -21 6 0 8 -3 5 -7 -4 -3 -2 -12 4 -20 6 -7
9 -13 6 -13 -3 0 14 -20 36 -44 23 -24 46 -41 51 -38 5 3 6 -2 3 -12 -4 -10
-2 -16 6 -15 22 3 37 -1 36 -8 -4 -27 1 -35 16 -23 12 10 18 10 31 -1 15 -12
34 -19 62 -21 6 -1 12 -5 12 -10 0 -5 4 -7 10 -3 5 3 16 -6 25 -19 13 -20 19
-23 30 -13 13 12 -1 31 -16 21 -4 -2 -10 -1 -13 4 -2 4 31 8 74 7 43 0 76 3
74 6 -4 7 74 31 91 29 6 -1 9 -6 8 -11 -5 -15 15 -10 21 6 3 8 0 14 -6 12 -6
-1 -13 4 -15 11 -3 6 3 12 13 12 9 0 27 11 40 26 13 14 24 22 24 19 0 -4 7 0
15 9 8 8 15 19 15 24 0 6 3 12 8 14 4 2 17 21 29 43 13 22 28 39 35 37 8 -2 8
0 1 10 -8 9 -8 23 2 50 7 21 10 40 6 44 -3 4 1 4 9 2 8 -3 14 -11 12 -17 -1
-7 2 -10 8 -6 6 3 8 10 5 15 -3 5 -1 11 5 15 6 3 11 -5 11 -19 1 -14 2 -32 3
-38 1 -7 -5 -22 -13 -33 -15 -18 -15 -19 2 -5 18 13 18 12 11 -26 -4 -21 -14
-50 -22 -64 -42 -69 -58 -90 -70 -90 -7 0 -10 -4 -7 -10 3 -5 -4 -10 -15 -10
-12 0 -34 -9 -50 -20 -15 -11 -30 -16 -34 -13 -4 4 -4 -1 0 -12 6 -14 4 -17
-8 -12 -9 3 -19 0 -22 -8 -3 -10 0 -12 12 -8 9 3 4 -4 -13 -16 -16 -12 -36
-19 -42 -16 -7 2 -12 -1 -10 -8 1 -8 -13 -13 -41 -13 -23 -1 -48 -4 -56 -7 -8
-3 -17 -3 -21 1 -4 4 -12 7 -18 7 -7 0 -12 5 -12 12 0 6 -4 15 -9 20 -5 4 -6
3 -3 -3 8 -15 -31 -26 -39 -12 -4 6 -9 5 -14 -3 -7 -10 -11 -10 -24 0 -8 7
-20 10 -27 6 -6 -4 -25 3 -41 15 -17 13 -28 16 -24 9 4 -8 1 -5 -6 5 -7 11
-21 28 -30 38 -10 10 -18 25 -18 33 0 13 -4 14 -27 2 -32 -15 -51 -16 -61 -2
-4 6 -13 10 -19 10 -7 0 -13 3 -13 8 0 4 -9 17 -20 29 -19 20 -24 33 -21 51 0
4 -4 7 -10 7 -6 0 -8 19 -6 50 4 44 1 53 -19 69 -13 10 -24 25 -24 33 0 8 -5
19 -12 26 -17 17 -21 124 -5 137 31 26 66 102 70 150 3 43 56 143 66 126 4 -7
12 -3 21 9 8 11 21 20 29 20 19 0 101 42 101 52 0 4 6 8 14 8 8 0 16 5 18 11
2 6 16 13 32 14 15 2 29 5 31 7 8 8 45 6 50 -2z m130 0 c3 -5 1 -10 -4 -10 -6
0 -11 5 -11 10 0 6 2 10 4 10 3 0 8 -4 11 -10z m-335 -830 c0 -5 -2 -10 -4
-10 -3 0 -8 5 -11 10 -3 6 -1 10 4 10 6 0 11 -4 11 -10z m162 -315 c3 -16 1
-25 -7 -25 -8 0 -10 9 -7 25 2 14 6 25 7 25 1 0 5 -11 7 -25z"/>
<path d="M1760 1715 c-7 -9 -8 -15 -2 -15 5 0 12 7 16 15 3 8 4 15 2 15 -2 0
-9 -7 -16 -15z"/>
<path d="M1786 1697 c3 -10 9 -15 12 -12 3 3 0 11 -7 18 -10 9 -11 8 -5 -6z"/>
<path d="M1839 1678 c22 -25 50 -30 35 -7 -3 6 -9 8 -12 5 -3 -3 -15 2 -26 11
-16 13 -15 11 3 -9z"/>
<path d="M1850 1633 c0 -1 10 -7 21 -14 17 -9 20 -8 14 2 -6 9 -3 11 9 6 10
-4 15 -3 11 3 -5 8 -55 11 -55 3z"/>
<path d="M1878 1593 c7 -3 16 -2 19 1 4 3 -2 6 -13 5 -11 0 -14 -3 -6 -6z"/>
<path d="M1149 1703 c-16 -18 -17 -22 -5 -13 18 14 19 13 13 -3 -4 -11 -3 -16
4 -12 6 4 8 13 5 21 -3 7 3 18 12 23 9 6 12 11 6 11 -6 0 -21 -12 -35 -27z"/>
<path d="M1088 1658 c-13 -13 -17 -18 -8 -13 8 6 27 10 42 9 15 0 25 3 22 7
-2 4 -12 5 -21 2 -11 -4 -14 -3 -9 5 11 19 -1 14 -26 -10z"/>
<path d="M1085 1630 c-3 -6 1 -7 9 -4 18 7 21 14 7 14 -6 0 -13 -4 -16 -10z"/>
<path d="M1389 1606 c-102 -27 -190 -103 -238 -205 -22 -47 -26 -70 -26 -146
0 -78 4 -98 28 -151 36 -77 104 -145 182 -181 52 -24 72 -28 150 -28 76 0 99
5 147 27 169 78 251 267 196 448 -54 175 -258 285 -439 236z m210 -17 c80 -26
159 -99 202 -185 20 -42 24 -64 24 -149 0 -95 -2 -103 -34 -163 -55 -102 -135
-162 -243 -183 -71 -13 -188 0 -188 22 0 6 7 6 19 -1 11 -5 33 -10 50 -10 24
0 32 5 37 25 8 32 5 35 -52 56 -40 16 -46 16 -51 2 -6 -15 16 -37 26 -27 3 3
-1 9 -9 14 -13 8 -12 10 3 10 10 0 17 -8 17 -20 0 -11 -6 -20 -12 -20 -9 0 -8
-4 2 -10 9 -6 10 -10 3 -10 -6 0 -15 5 -19 12 -5 8 -11 6 -20 -7 -12 -16 -16
-16 -59 9 -53 32 -115 112 -137 178 -21 66 -24 198 -4 198 25 0 46 -12 39 -23
-3 -5 -1 -7 5 -3 6 3 13 2 17 -4 3 -5 0 -10 -9 -10 -8 0 -23 -3 -33 -6 -15 -6
-16 -4 -5 7 14 15 16 29 3 29 -17 0 -24 -42 -10 -51 10 -6 11 -9 2 -9 -7 0
-13 -11 -13 -25 0 -20 5 -25 28 -26 27 0 27 -1 5 -11 -23 -11 -32 -38 -13 -38
5 0 7 -7 4 -15 -4 -8 -1 -15 6 -15 6 0 8 -4 5 -10 -8 -14 4 -32 16 -24 6 3 4
15 -6 30 -15 24 -15 24 15 24 19 0 29 -4 25 -10 -4 -6 -11 -8 -16 -4 -13 7 -7
-19 6 -28 6 -5 4 -8 -5 -8 -13 0 -13 -2 0 -11 13 -9 12 -10 -2 -5 -21 6 -22
-2 -5 -25 14 -19 48 -19 71 0 13 11 17 11 22 -3 10 -26 -4 -48 -28 -44 -13 2
-22 9 -20 16 1 8 -2 11 -8 7 -14 -9 6 -35 27 -35 8 0 11 -5 8 -11 -4 -6 2 -13
14 -16 12 -3 21 -9 21 -14 0 -5 8 -9 18 -9 14 1 12 5 -9 24 -25 22 -25 23 -8
34 17 11 19 9 19 -12 0 -14 4 -27 8 -30 4 -2 8 11 8 30 0 31 -6 39 -28 35 -5
0 -8 5 -8 12 0 20 -37 51 -45 38 -3 -6 -14 -15 -24 -21 -16 -8 -18 -5 -17 25
1 19 6 38 11 42 4 5 5 2 1 -4 -4 -7 -3 -13 3 -13 6 0 8 -7 5 -15 -4 -8 -2 -15
3 -15 20 0 21 14 2 48 -10 20 -22 58 -25 84 -6 45 -24 65 -45 52 -5 -3 -9 0
-9 5 0 6 11 11 25 11 27 0 35 27 10 36 -11 5 -12 9 -2 25 7 11 18 17 24 14 7
-2 19 8 27 23 8 15 29 42 46 60 22 22 26 32 16 32 -9 0 -16 -5 -16 -12 0 -9
-3 -9 -12 0 -10 10 -10 15 1 21 8 5 20 7 26 5 7 -3 15 2 18 10 4 9 2 16 -3 16
-6 0 -10 -5 -10 -10 0 -6 -11 -3 -25 6 -22 14 -25 15 -31 1 -3 -9 -1 -24 4
-33 8 -14 6 -22 -6 -32 -16 -13 -16 -13 1 -8 9 3 17 1 17 -4 0 -17 -21 -22
-36 -9 -14 12 -14 14 2 26 14 10 15 15 4 28 -11 14 -14 13 -27 -5 -8 -11 -12
-24 -9 -29 3 -5 -3 -11 -14 -14 -11 -3 -20 -11 -20 -17 0 -10 3 -10 14 -1 11
9 20 10 35 2 21 -12 19 -41 -3 -41 -20 0 -27 12 -15 27 9 9 8 13 0 13 -6 0
-11 -5 -11 -11 0 -6 -7 -9 -15 -5 -8 3 -15 1 -15 -4 0 -6 4 -10 9 -10 5 0 8
-11 7 -25 -1 -17 -6 -23 -14 -20 -8 3 -18 5 -23 5 -11 0 28 104 41 108 5 2 10
9 10 17 0 14 82 85 98 85 6 0 12 4 14 9 2 5 30 18 63 29 64 22 148 22 214 1z
m-357 -141 c-7 -7 -12 -8 -12 -2 0 14 12 26 19 19 2 -3 -1 -11 -7 -17z m-29
-93 c-3 -9 -8 -14 -10 -11 -3 3 -2 9 2 15 9 16 15 13 8 -4z m-46 -127 c-3 -8
-6 -5 -6 6 -1 11 2 17 5 13 3 -3 4 -12 1 -19z m53 7 c0 -8 -9 -15 -20 -15 -11
0 -20 7 -20 15 0 8 9 15 20 15 11 0 20 -7 20 -15z m10 -56 c0 -3 -12 -5 -27
-2 -24 3 -25 2 -8 -6 17 -8 17 -10 3 -10 -26 -1 -33 20 -9 26 12 3 21 10 21
17 0 11 20 -13 20 -25z m228 -223 c-4 -25 -43 -34 -51 -12 -4 9 -2 16 3 16 6
0 10 6 10 14 0 9 7 12 21 9 14 -4 19 -12 17 -27z"/>
<path d="M1542 1581 c-6 -3 -14 -19 -17 -34 -5 -20 -13 -27 -31 -27 -19 0 -24
5 -24 26 0 23 3 26 25 22 14 -3 25 -1 25 3 0 5 -25 9 -55 9 -59 0 -63 -5 -49
-57 7 -27 34 -31 35 -5 0 10 3 12 6 5 2 -7 15 -13 28 -13 12 0 41 -6 63 -14
22 -8 43 -12 46 -9 3 4 6 1 6 -5 0 -7 6 -12 14 -12 16 0 82 -71 98 -104 l10
-24 28 31 c33 37 30 47 -10 47 -33 0 -49 17 -26 26 9 3 16 12 16 19 0 19 -78
78 -94 72 -8 -3 -16 2 -19 14 -3 12 -11 17 -20 13 -8 -3 -21 1 -29 10 -8 8
-20 11 -26 7z m-93 -18 c-11 -3 -15 -12 -12 -31 3 -23 2 -24 -6 -7 -16 33 -12
45 12 44 14 -1 16 -3 6 -6z m131 -14 c0 -4 -4 -10 -10 -14 -5 -3 -7 -13 -4
-23 5 -14 3 -14 -10 2 -11 13 -16 15 -16 6 0 -7 -2 -11 -5 -8 -4 3 -3 17 0 31
5 18 12 23 26 20 10 -3 19 -9 19 -14z m46 -25 c18 7 18 -5 -1 -30 -12 -15 -14
-16 -9 -2 4 13 1 16 -15 13 -24 -4 -25 -1 -9 28 11 20 12 20 16 4 2 -11 9 -16
18 -13z m34 -29 c-15 -18 -7 -31 12 -19 15 9 43 15 35 7 -3 -2 -9 -5 -14 -5
-4 -1 -13 -8 -19 -17 -10 -13 -14 -13 -28 -2 -15 13 -15 15 0 32 9 10 13 23 9
31 -6 10 -5 10 5 1 11 -10 11 -15 0 -28z m46 -44 c-10 -11 -15 -25 -10 -32 4
-8 3 -10 -4 -5 -18 11 -14 34 6 45 25 15 27 13 8 -8z m54 -49 c0 -5 -10 -17
-22 -28 -12 -10 -18 -13 -14 -6 4 7 0 15 -10 19 -16 6 -16 7 2 14 26 10 44 11
44 1z"/>
<path d="M1350 1550 c0 -5 -9 -10 -20 -10 -21 0 -27 -15 -10 -25 6 -3 10 -2
10 4 0 6 7 8 15 5 10 -4 15 0 15 12 1 18 1 18 11 1 9 -15 6 -23 -11 -39 -12
-11 -19 -22 -17 -25 4 -4 41 11 55 22 1 1 -3 16 -9 33 -10 29 -39 45 -39 22z"/>
<path d="M1480 1545 c0 -9 5 -15 11 -13 6 2 11 8 11 13 0 5 -5 11 -11 13 -6 2
-11 -4 -11 -13z"/>
<path d="M1409 1480 c-65 -22 -132 -89 -148 -146 -26 -92 -9 -171 49 -238 50
-57 103 -80 181 -79 57 0 73 4 121 34 54 33 82 74 105 154 36 121 -74 270
-213 287 -27 4 -61 -1 -95 -12z m142 -11 c110 -33 180 -162 149 -274 -51 -181
-297 -223 -399 -68 -119 180 44 403 250 342z"/>
<path d="M1389 1441 c-72 -40 -119 -116 -119 -196 0 -16 11 -54 25 -82 41 -90
141 -137 237 -113 173 44 216 273 70 375 -56 39 -157 46 -213 16z m163 -4 c16
-5 25 -13 22 -18 -3 -5 1 -6 9 -3 17 6 64 -46 84 -93 30 -72 5 -163 -61 -221
-20 -17 -42 -32 -49 -33 -7 0 -21 -3 -32 -6 -69 -17 -170 20 -199 72 -6 11
-14 22 -17 25 -20 18 -29 147 -8 135 5 -3 6 1 3 9 -15 40 93 151 128 130 7 -5
8 -3 3 5 -9 15 72 13 117 -2z"/>
<path d="M1460 1390 c-54 -3 -90 -9 -82 -13 17 -11 17 -228 0 -245 -23 -23 12
-33 102 -29 114 6 117 8 122 69 1 27 1 52 -2 55 -3 2 -5 36 -5 75 0 90 -7 95
-135 88z m121 -63 c3 -33 1 -51 -8 -59 -8 -7 -10 -15 -4 -22 15 -18 16 -93 2
-110 -10 -12 -32 -16 -95 -16 l-81 0 0 130 0 131 90 -3 90 -3 6 -48z"/>
<path d="M1430 1317 l0 -45 48 -4 c59 -6 74 5 70 51 l-3 36 -57 3 -58 3 0 -44z
m102 -7 c-4 -27 -8 -30 -41 -30 -33 0 -36 2 -37 30 -1 29 1 30 41 30 40 0 41
-1 37 -30z"/>
<path d="M1430 1195 l0 -46 58 3 57 3 0 40 0 40 -57 3 -58 3 0 -46z m102 30
c2 -3 3 -18 0 -35 -4 -27 -8 -30 -41 -30 -34 0 -36 1 -34 32 1 18 2 34 2 36 2
4 68 2 73 -3z"/>
<path d="M1230 1389 c0 -5 5 -7 10 -4 6 3 10 8 10 11 0 2 -4 4 -10 4 -5 0 -10
-5 -10 -11z"/>
<path d="M1752 1344 c4 -21 22 -23 26 -1 2 10 -3 17 -13 17 -10 0 -15 -6 -13
-16z"/>
<path d="M1763 1313 c-19 -4 -22 -10 -19 -51 1 -26 -4 -66 -12 -90 -8 -23 -12
-48 -9 -55 7 -19 67 -21 67 -2 0 8 -4 15 -9 15 -5 0 -18 3 -28 6 -11 3 -8 -1
7 -11 15 -10 18 -14 7 -11 -10 3 -23 6 -28 6 -19 0 -8 21 17 30 19 7 31 7 40
-1 11 -9 14 -7 14 9 0 11 -7 23 -16 26 -10 4 -13 2 -8 -6 5 -7 2 -9 -9 -5 -9
3 -18 1 -20 -6 -2 -7 -7 -9 -11 -6 -9 8 4 40 14 34 17 -11 60 15 60 35 0 11
-4 20 -9 20 -5 0 -7 -10 -4 -22 4 -19 3 -20 -6 -8 -7 10 -11 11 -11 3 0 -7 -7
-13 -15 -13 -8 0 -15 8 -15 19 0 13 10 20 31 25 26 5 30 10 27 33 -3 28 -15
34 -55 26z m44 -29 c3 -18 2 -18 -6 1 -8 17 -10 18 -10 3 -1 -11 -9 -18 -21
-18 -12 0 -20 7 -20 18 0 13 2 14 9 4 7 -11 10 -10 15 3 8 21 30 14 33 -11z"/>
<path d="M1662 1066 c-33 -36 -89 -66 -129 -71 -13 -1 -28 -6 -33 -11 -14 -14
5 -70 21 -66 8 2 25 5 38 6 13 2 30 14 38 27 l14 24 -6 -25 c-5 -22 -4 -23 7
-9 7 9 19 14 26 12 6 -3 12 2 12 10 0 8 8 14 17 13 9 0 22 8 27 20 6 11 16 19
23 17 14 -5 37 33 28 47 -3 5 -13 6 -22 3 -10 -4 -14 -2 -10 4 4 6 1 16 -6 22
-10 8 -21 2 -45 -23z m68 -18 c13 5 13 3 1 -11 -7 -9 -18 -14 -23 -11 -5 3
-12 -3 -15 -15 -5 -19 -15 -25 -36 -22 -4 1 -10 -6 -13 -14 -5 -11 -11 -12
-25 -5 -14 8 -21 6 -30 -11 -10 -20 -12 -21 -21 -5 -5 9 -7 22 -4 29 2 7 5 4
5 -6 1 -10 6 -15 12 -12 6 4 8 14 5 22 -4 11 -1 13 14 8 16 -5 19 -3 13 11 -4
12 -3 15 5 10 7 -4 12 -14 12 -23 0 -9 3 -13 7 -9 4 4 8 17 8 28 0 12 6 22 13
24 7 1 8 0 2 -3 -5 -2 -10 -9 -10 -14 0 -6 5 -7 12 -3 7 4 8 3 4 -4 -11 -19 5
-14 20 5 8 12 9 22 2 30 -5 7 -6 17 -2 24 5 8 10 6 18 -8 6 -11 17 -18 26 -15z
m-200 -78 c-13 -8 -12 -10 3 -10 9 0 17 -7 17 -15 0 -9 -9 -15 -22 -14 -22 0
-22 1 -3 9 17 7 17 9 3 9 -20 1 -24 27 -5 34 18 7 23 -3 7 -13z"/>
<path d="M1275 1039 c-4 -6 -5 -13 -2 -16 7 -7 27 6 27 18 0 12 -17 12 -25 -2z"/>
<path d="M1430 955 c0 -8 5 -15 10 -15 6 0 10 7 10 15 0 8 -4 15 -10 15 -5 0
-10 -7 -10 -15z"/>
<path d="M1885 1150 c-3 -6 1 -7 9 -4 18 7 21 14 7 14 -6 0 -13 -4 -16 -10z"/>
<path d="M1250 805 c0 -8 -4 -15 -8 -15 -5 0 -9 -7 -9 -16 0 -14 2 -14 14 2
13 18 18 44 8 44 -3 0 -5 -7 -5 -15z"/>
<path d="M1316 765 c-3 -8 -1 -15 4 -15 6 0 10 7 10 15 0 8 -2 15 -4 15 -2 0
-6 -7 -10 -15z"/>
<path d="M1358 743 c7 -3 16 -2 19 1 4 3 -2 6 -13 5 -11 0 -14 -3 -6 -6z"/>
<path d="M1643 715 c0 -5 10 -10 22 -10 13 0 21 5 18 12 -6 14 -40 13 -40 -2z"/>
<path d="M1245 710 c4 -6 11 -8 16 -5 14 9 11 15 -7 15 -8 0 -12 -5 -9 -10z"/>
<path d="M1650 690 c-8 -5 -12 -11 -9 -14 2 -3 11 -1 19 4 8 5 12 11 9 14 -2
3 -11 1 -19 -4z"/>
<path d="M1190 682 c0 -7 5 -12 11 -12 5 0 7 -5 4 -10 -4 -6 -11 -7 -17 -4 -6
4 -3 -7 8 -24 19 -34 33 -37 15 -4 -8 15 -8 22 2 25 9 3 7 10 -5 23 -11 11
-18 13 -18 6z"/>
<path d="M1620 677 c0 -4 14 -26 30 -49 17 -22 30 -37 30 -32 0 6 -5 15 -12
22 -9 9 -9 12 0 12 7 0 12 4 12 10 0 5 -7 6 -17 3 -12 -5 -14 -3 -8 7 5 8 4
11 -3 6 -6 -3 -15 2 -21 11 -6 10 -11 15 -11 10z"/>
<path d="M1170 621 c0 -5 7 -12 16 -15 14 -5 15 -4 4 9 -14 17 -20 19 -20 6z"/>
<path d="M1343 606 c-10 -11 -9 -16 5 -21 9 -3 13 -3 9 1 -4 4 -2 13 4 21 15
17 -2 16 -18 -1z"/>
<path d="M1811 596 c-9 -11 -8 -18 5 -31 15 -15 19 -15 32 -1 17 17 10 46 -11
46 -8 0 -20 -6 -26 -14z m30 -29 c-10 -9 -11 -8 -5 6 3 10 9 15 12 12 3 -3 0
-11 -7 -18z"/>
<path d="M1170 590 c0 -6 7 -10 15 -10 8 0 15 2 15 4 0 2 -7 6 -15 10 -8 3
-15 1 -15 -4z"/>
<path d="M1650 591 c0 -10 19 -25 25 -20 1 2 -3 10 -11 17 -8 7 -14 8 -14 3z"/>
</g>
</svg>
