<?xml version="1.0" standalone="no"?>
<!DOCTYPE svg PUBLIC "-//W3C//DTD SVG 20010904//EN"
 "http://www.w3.org/TR/2001/REC-SVG-20010904/DTD/svg10.dtd">
<svg version="1.0" xmlns="http://www.w3.org/2000/svg"
 width="300.000000pt" height="300.000000pt" viewBox="0 0 300.000000 300.000000"
 preserveAspectRatio="xMidYMid meet">
<metadata>
Created by potrace 1.10, written by Peter Selinger 2001-2011
</metadata>
<g transform="translate(0.000000,300.000000) scale(0.100000,-0.100000)"
fill="#cccccc" stroke="none">
<path d="M1466 2538 c-10 -13 -13 -31 -9 -46 6 -24 4 -25 -28 -18 -119 26
-194 10 -263 -57 -71 -68 -70 -145 4 -264 16 -27 31 -59 32 -72 3 -22 -2 -25
-63 -37 -86 -16 -171 -56 -217 -104 -89 -90 -102 -107 -102 -132 0 -15 5 -30
11 -33 16 -10 -17 -42 -57 -55 -30 -10 -34 -16 -34 -47 0 -48 28 -93 58 -93
54 0 105 44 147 130 15 30 29 57 31 59 1 1 18 -8 36 -22 81 -61 186 -90 368
-103 l96 -6 24 -46 c30 -57 100 -112 141 -112 35 0 69 47 69 97 0 26 -6 36
-32 50 l-33 18 35 3 c111 8 247 52 308 99 18 14 35 23 36 22 2 -2 14 -24 26
-49 46 -91 100 -140 153 -140 32 0 57 41 57 92 0 30 -5 36 -42 53 -42 20 -43
21 -40 65 3 44 1 48 -60 111 -35 37 -83 78 -108 92 -52 29 -140 57 -182 57
-16 0 -31 6 -34 13 -3 8 13 45 34 83 50 87 66 137 59 181 -14 84 -115 156
-222 157 -33 1 -75 -3 -94 -8 -32 -8 -33 -7 -28 16 8 30 -17 68 -43 68 -10 0
-26 -10 -34 -22z m60 -33 c3 -67 0 -64 42 -49 85 30 179 12 247 -48 73 -65 73
-124 0 -253 -25 -43 -45 -86 -45 -95 0 -10 -13 -22 -32 -28 -32 -11 -32 -12
-3 -6 17 3 37 7 45 9 70 13 229 -47 291 -109 97 -99 99 -101 88 -140 -13 -45
-8 -53 48 -77 43 -18 45 -21 39 -52 -4 -17 -15 -40 -25 -50 -17 -18 -21 -18
-49 -3 -39 20 -83 73 -116 142 l-26 54 -50 -36 c-28 -20 -72 -44 -98 -54 -56
-22 -198 -50 -251 -50 -36 -1 -36 -1 -15 -18 12 -9 36 -25 53 -34 17 -9 29
-23 27 -30 -3 -7 -7 -25 -10 -40 -10 -46 -40 -53 -91 -24 -46 27 -77 64 -90
106 -11 35 -21 40 -95 40 -162 0 -337 50 -396 111 -15 16 -31 29 -36 29 -5 0
-24 -32 -43 -71 -42 -88 -49 -95 -97 -120 -45 -23 -55 -19 -74 27 -20 48 -19
53 30 74 46 19 75 53 56 65 -19 12 -10 57 18 84 15 16 38 41 52 56 53 60 146
104 253 118 31 5 37 3 37 -12 0 -15 -11 -19 -67 -23 -76 -6 -161 -42 -188 -80
l-15 -23 127 -7 c71 -3 155 -9 188 -11 48 -5 53 -4 25 3 -19 5 -95 13 -167 16
-73 4 -133 10 -133 14 0 21 59 55 115 65 l40 7 -20 -22 -20 -22 65 2 c36 2 72
0 80 -3 8 -3 48 -8 88 -11 40 -4 96 -14 124 -24 49 -17 54 -17 103 0 29 9 89
20 134 24 44 4 81 10 81 14 0 4 33 5 73 3 66 -4 70 -3 53 11 -11 9 -17 18 -14
21 8 8 101 -24 127 -44 l24 -19 -59 -6 c-32 -3 -95 -8 -139 -12 -44 -3 -107
-12 -140 -20 -33 -7 -44 -12 -25 -9 19 2 96 9 170 15 74 6 155 14 179 16 l43
6 -23 24 c-35 37 -101 64 -178 73 -63 6 -70 5 -74 -11 -3 -10 -20 -24 -39 -32
-47 -20 -264 -29 -386 -17 -115 11 -142 25 -142 72 l0 28 35 -15 c19 -7 42
-14 52 -13 10 0 0 6 -22 13 -25 7 -44 20 -51 36 -15 33 -51 106 -76 152 -47
89 -29 169 50 219 56 35 118 45 196 31 66 -13 80 -6 70 35 -8 29 3 45 29 41
17 -2 22 -10 23 -33z"/>
<path d="M1276 2414 c-66 -24 -106 -74 -106 -131 0 -30 28 -96 54 -128 16 -19
16 -19 10 8 -5 20 -2 27 9 27 20 0 69 -82 62 -101 -3 -8 1 -23 9 -34 29 -41
28 -3 -4 92 -53 158 -44 209 46 260 l39 23 -40 -1 c-22 0 -58 -7 -79 -15z"/>
<path d="M1642 2410 c88 -47 98 -109 44 -264 -19 -55 -29 -99 -24 -102 15 -10
31 12 31 42 0 27 42 104 57 104 15 0 18 -13 9 -39 -9 -26 -9 -26 16 4 87 105
61 225 -58 260 -28 8 -64 15 -81 15 l-31 -1 37 -19z"/>
<path d="M1376 2360 c-30 -27 -31 -31 -31 -107 0 -53 8 -101 23 -151 l23 -73
41 3 c46 3 67 28 24 28 -29 0 -30 3 -16 30 7 13 6 21 -5 30 -22 18 -18 30 10
30 19 0 25 5 25 23 0 13 7 32 15 43 15 19 15 19 30 0 8 -11 15 -30 15 -43 0
-18 6 -23 25 -23 28 0 32 -12 10 -30 -11 -9 -13 -16 -5 -24 18 -18 11 -36 -16
-36 -16 0 -24 -5 -21 -12 2 -8 21 -13 47 -13 l43 0 23 79 c14 47 24 106 24
143 0 55 -4 67 -29 95 -29 32 -30 33 -126 34 -93 2 -99 1 -129 -26z"/>
<path d="M1484 2119 c-10 -17 13 -36 27 -22 12 12 4 33 -11 33 -5 0 -12 -5
-16 -11z"/>
<path d="M1260 2076 c0 -9 5 -16 10 -16 6 0 10 4 10 9 0 6 -4 13 -10 16 -5 3
-10 -1 -10 -9z"/>
<path d="M1726 2081 c-4 -7 -5 -15 -2 -18 9 -9 19 4 14 18 -4 11 -6 11 -12 0z"/>
<path d="M1663 2013 c9 -2 23 -2 30 0 6 3 -1 5 -18 5 -16 0 -22 -2 -12 -5z"/>
<path d="M1367 2003 c18 -2 50 -2 70 0 21 2 7 4 -32 4 -38 0 -55 -2 -38 -4z"/>
<path d="M1518 2003 c23 -2 61 -2 85 0 23 2 4 4 -43 4 -47 0 -66 -2 -42 -4z"/>
<path d="M1270 1990 c0 -5 5 -10 10 -10 6 0 10 5 10 10 0 6 -4 10 -10 10 -5 0
-10 -4 -10 -10z"/>
<path d="M1710 1990 c0 -5 5 -10 10 -10 6 0 10 5 10 10 0 6 -4 10 -10 10 -5 0
-10 -4 -10 -10z"/>
<path d="M1377 1974 c-8 -8 1 -24 14 -24 5 0 9 7 9 15 0 15 -12 20 -23 9z"/>
<path d="M1490 1965 c0 -9 5 -15 11 -13 6 2 11 8 11 13 0 5 -5 11 -11 13 -6 2
-11 -4 -11 -13z"/>
<path d="M1600 1965 c0 -9 5 -15 11 -13 6 2 11 8 11 13 0 5 -5 11 -11 13 -6 2
-11 -4 -11 -13z"/>
<path d="M1338 1863 c6 -2 18 -2 25 0 6 3 1 5 -13 5 -14 0 -19 -2 -12 -5z"/>
<path d="M980 1835 c33 -35 94 -70 169 -95 64 -21 229 -50 291 -50 35 0 36 0
32 40 -4 35 -2 40 17 40 12 0 21 4 21 9 0 23 -336 81 -469 81 l-84 0 23 -25z
m335 -86 c110 -12 150 -25 123 -40 -18 -10 -154 6 -228 27 -67 19 -92 38 -38
30 18 -3 83 -11 143 -17z"/>
<path d="M1603 1853 c4 -3 10 -3 14 0 3 4 0 7 -7 7 -7 0 -10 -3 -7 -7z"/>
<path d="M1766 1845 c-184 -31 -259 -61 -195 -78 19 -5 21 -11 16 -43 l-6 -37
67 7 c100 10 197 32 256 59 52 24 126 81 126 98 0 13 -173 9 -264 -6z m185
-39 c-32 -34 -107 -64 -177 -72 -77 -9 -62 5 46 40 47 16 96 34 110 42 38 20
46 17 21 -10z"/>
<path d="M920 1815 c0 -8 5 -15 10 -15 6 0 10 7 10 15 0 8 -4 15 -10 15 -5 0
-10 -7 -10 -15z"/>
<path d="M2060 1815 c0 -9 5 -15 11 -13 6 2 11 8 11 13 0 5 -5 11 -11 13 -6 2
-11 -4 -11 -13z"/>
<path d="M2115 1820 c-4 -6 -3 -16 3 -22 6 -6 12 -6 17 2 4 6 3 16 -3 22 -6 6
-12 6 -17 -2z"/>
<path d="M870 1804 c0 -8 5 -12 10 -9 6 3 10 10 10 16 0 5 -4 9 -10 9 -5 0
-10 -7 -10 -16z"/>
<path d="M905 1728 c-8 -25 -21 -39 -55 -56 -50 -25 -63 -42 -31 -42 28 0 78
47 96 93 8 20 12 37 7 37 -4 0 -12 -15 -17 -32z"/>
<path d="M2080 1751 c0 -8 11 -33 24 -55 21 -36 37 -49 89 -74 4 -2 7 5 7 15
-1 11 -17 26 -43 38 -28 13 -48 32 -59 55 -9 19 -17 29 -18 21z"/>
<path d="M1490 1735 c0 -8 5 -15 10 -15 6 0 10 7 10 15 0 8 -4 15 -10 15 -5 0
-10 -7 -10 -15z"/>
<path d="M1550 1724 c0 -8 5 -12 10 -9 6 3 10 10 10 16 0 5 -4 9 -10 9 -5 0
-10 -7 -10 -16z"/>
<path d="M1515 1650 c14 -47 79 -110 113 -110 29 0 9 27 -30 41 -30 11 -48 25
-60 48 -21 42 -32 53 -23 21z"/>
<path d="M495 1253 c-174 -24 -327 -128 -396 -268 -30 -62 -34 -78 -34 -150 0
-121 51 -213 151 -271 112 -66 320 -37 409 57 38 39 25 37 -31 -6 -134 -102
-303 -78 -378 55 -29 52 -31 61 -31 160 0 98 2 109 32 171 79 161 267 260 383
201 97 -48 57 -162 -63 -178 -26 -4 -53 -2 -66 5 -28 15 -28 58 2 89 l22 24
-30 -7 c-105 -25 -111 -109 -9 -134 97 -25 209 24 246 105 17 39 17 47 5 77
-9 21 -27 39 -48 49 -38 18 -118 28 -164 21z"/>
<path d="M1633 1206 c-103 -25 -180 -105 -152 -158 7 -13 17 -26 23 -30 18
-12 61 -9 82 6 18 13 17 14 -16 13 -33 -2 -35 0 -38 32 -11 114 249 176 357
85 85 -71 14 -206 -132 -249 -73 -22 -90 -20 -81 8 19 63 81 171 116 203 46
41 44 51 -6 34 -45 -14 -89 -64 -155 -173 l-52 -87 -37 25 c-37 25 -62 32 -62
17 0 -5 18 -16 40 -25 53 -21 52 -41 -6 -144 -66 -116 -131 -185 -212 -225
-58 -29 -77 -33 -143 -33 -47 0 -86 5 -103 14 -35 19 -44 56 -20 82 16 18 16
19 1 13 -23 -9 -32 -50 -17 -78 19 -36 72 -56 149 -56 155 0 288 75 391 222
l48 69 17 -50 c34 -105 118 -206 208 -253 81 -42 214 -27 299 34 43 30 28 32
-23 3 -59 -33 -146 -35 -206 -2 -73 39 -159 132 -241 263 -29 45 -31 53 -19
78 13 29 15 29 127 47 90 14 145 37 193 79 98 85 59 211 -75 240 -65 13 -190
11 -255 -4z"/>
<path d="M2840 1111 c-87 -47 -193 -170 -246 -285 -19 -43 -35 -61 -60 -73
-19 -9 -37 -14 -40 -10 -12 12 6 52 46 105 39 51 39 52 15 52 -13 0 -27 -4
-30 -10 -4 -6 -18 -4 -37 6 -40 21 -84 12 -137 -27 -129 -93 -94 -201 43 -132
26 14 30 13 38 -1 11 -20 64 -21 98 -1 36 20 40 19 40 -16 0 -39 47 -89 86
-89 47 0 103 22 144 58 39 33 77 89 66 99 -2 3 -11 -9 -20 -25 -34 -66 -127
-123 -175 -107 -40 12 -50 93 -20 158 6 12 44 47 85 77 106 77 206 183 202
212 -4 30 -50 34 -98 9z m40 -29 c0 -33 -171 -214 -187 -198 -11 11 64 130
108 171 50 47 79 57 79 27z m-392 -217 c4 -27 -49 -88 -93 -109 -95 -45 -83
45 14 109 42 28 75 28 79 0z"/>
<path d="M473 919 c-6 -6 -9 -18 -6 -26 7 -19 -38 -65 -111 -114 -32 -21 -53
-39 -46 -39 22 0 95 49 140 95 28 28 53 45 68 45 23 0 23 -1 -11 -41 -40 -46
-53 -85 -36 -105 16 -20 63 -17 108 6 35 18 40 18 52 4 34 -41 145 8 194 84
11 17 28 31 37 32 15 0 13 -7 -12 -47 -49 -77 -33 -112 37 -79 33 16 37 16 54
0 14 -12 28 -15 56 -10 30 6 52 22 104 77 61 65 99 86 99 56 0 -8 -18 -39 -40
-70 -22 -30 -40 -58 -40 -61 0 -3 10 -6 23 -6 16 0 34 16 62 54 36 51 79 86
104 86 17 0 13 -16 -14 -56 -28 -42 -32 -79 -9 -88 27 -10 64 -7 95 10 39 20
33 27 -9 12 -24 -9 -34 -10 -43 -1 -9 9 -5 22 17 54 49 71 54 82 42 96 -14 18
-35 16 -85 -6 -35 -16 -42 -17 -47 -5 -6 16 -59 19 -87 4 -16 -9 -19 -7 -19
15 0 16 -6 25 -15 25 -9 0 -15 -9 -15 -24 0 -39 -16 -71 -55 -110 -40 -40 -65
-46 -65 -16 0 23 34 95 50 105 16 10 12 25 -8 25 -10 0 -25 -12 -34 -27 -36
-61 -119 -127 -118 -95 0 4 14 31 30 61 17 30 28 56 25 59 -2 3 -25 -3 -50
-13 -42 -16 -48 -16 -64 -1 -24 22 -89 20 -127 -3 -17 -10 -41 -33 -55 -51
-71 -94 -101 -109 -107 -53 -2 24 6 40 43 81 l46 51 -53 -6 c-42 -4 -57 -2
-67 11 -16 19 -23 20 -38 5z m327 -65 c0 -65 -98 -128 -115 -74 -8 25 7 52 47
84 48 37 68 34 68 -10z"/>
<path d="M1870 876 c-25 -13 -57 -38 -73 -55 -16 -19 -37 -31 -51 -31 -14 0
-28 -5 -31 -11 -5 -7 5 -8 29 -4 32 6 36 5 36 -13 0 -46 74 -65 142 -35 43 20
68 44 111 113 22 34 67 54 67 30 0 -7 -16 -34 -36 -61 -43 -59 -42 -83 4 -87
30 -3 32 -1 27 20 -4 17 5 37 34 77 31 42 38 57 30 68 -15 17 -51 17 -94 -1
-29 -13 -35 -13 -46 0 -18 22 -97 17 -149 -10z m117 -28 c1 -24 -5 -45 -19
-63 -25 -32 -80 -58 -102 -49 -37 14 -1 99 56 134 46 28 63 22 65 -22z"/>
<path d="M2210 830 c-29 -39 -64 -77 -79 -86 -14 -8 -18 -13 -8 -10 9 3 17 3
17 0 0 -14 -62 -93 -84 -107 -36 -24 -86 -22 -93 3 -3 11 -9 17 -14 15 -14 -9
2 -36 28 -46 33 -12 94 5 133 38 30 25 96 110 168 216 l33 47 -25 0 c-18 0
-36 -16 -76 -70z"/>
</g>
</svg>
