<?xml version="1.0" standalone="no"?>
<!DOCTYPE svg PUBLIC "-//W3C//DTD SVG 20010904//EN"
 "http://www.w3.org/TR/2001/REC-SVG-20010904/DTD/svg10.dtd">
<svg version="1.0" xmlns="http://www.w3.org/2000/svg"
 width="300.000000pt" height="235.000000pt" viewBox="0 0 300.000000 235.000000"
 preserveAspectRatio="xMidYMid meet">
<metadata>
Created by potrace 1.10, written by Peter Selinger 2001-2011
</metadata>
<g transform="translate(0.000000,235.000000) scale(0.100000,-0.100000)"
fill="#cccccc" stroke="none">
<path d="M1436 1957 c-7 -17 -16 -40 -19 -49 -4 -11 -17 -18 -30 -18 -38 0
-87 -12 -87 -21 0 -4 23 -16 50 -26 28 -10 50 -24 50 -31 0 -8 7 -29 16 -47
19 -40 6 -75 -29 -75 -12 0 -31 -7 -41 -15 -11 -8 -28 -15 -38 -15 -9 0 -24
-13 -33 -30 -14 -27 -5 -44 10 -20 12 20 80 10 140 -20 72 -36 73 -36 49 -8
-17 19 -13 19 31 -6 28 -16 58 -36 68 -44 9 -8 20 -13 22 -10 8 8 -52 56 -114
91 -30 17 -49 33 -43 35 14 4 149 -64 179 -91 13 -11 25 -18 28 -15 3 3 -15
24 -41 47 -25 24 -44 44 -42 46 2 2 25 -9 51 -26 44 -27 62 -28 35 -1 -9 9 -9
12 0 12 6 0 18 -13 27 -30 21 -41 34 -38 21 5 -10 33 -20 39 -57 36 -9 -1 -28
3 -43 9 -18 6 -34 7 -45 0 -12 -6 -22 -5 -29 2 -7 7 -12 9 -12 6 0 -4 -12 -1
-27 7 -31 17 -68 3 -59 -22 5 -11 2 -13 -11 -8 -10 4 -26 10 -36 12 -14 4 -15
8 -6 19 6 8 19 14 28 14 21 0 58 39 56 60 -1 8 -5 24 -9 35 -5 11 -13 32 -19
47 -6 15 -21 31 -32 37 -20 10 -20 10 0 16 20 6 65 65 65 85 0 13 84 4 88 -10
2 -5 8 -8 13 -4 5 3 9 -8 9 -24 0 -16 9 -39 20 -52 11 -13 20 -20 20 -15 0 4
6 2 13 -4 8 -6 17 -9 20 -6 4 3 5 2 2 -2 -3 -4 -16 -8 -28 -10 -30 -5 -44 -22
-51 -64 -9 -48 14 -74 83 -97 46 -15 54 -21 57 -44 1 -15 9 -37 18 -49 l15
-22 11 29 c20 53 -12 88 -106 113 -56 15 -66 28 -53 74 8 30 15 37 35 37 13 0
41 7 61 15 46 20 32 40 -36 49 -47 6 -49 7 -55 46 -7 47 -31 65 -99 74 -47 6
-48 5 -61 -27z"/>
<path d="M961 1716 c-22 -24 -14 -46 11 -30 8 5 9 2 5 -10 -4 -10 -7 -29 -7
-42 0 -15 -6 -24 -15 -24 -8 0 -15 -4 -15 -10 0 -5 20 -10 45 -10 25 0 45 5
45 10 0 6 -7 10 -15 10 -12 0 -15 14 -15 65 0 36 -4 65 -8 65 -5 0 -19 -11
-31 -24z"/>
<path d="M1072 1728 c-15 -15 -15 -61 0 -76 7 -7 22 -12 35 -12 13 0 23 -5 23
-10 0 -15 -33 -26 -38 -12 -4 12 -32 5 -32 -9 0 -5 11 -14 25 -21 19 -9 29 -8
50 6 21 14 25 24 25 66 0 54 -17 80 -54 80 -12 0 -27 -5 -34 -12z m56 -41 c-2
-11 -9 -22 -15 -25 -16 -4 -27 22 -19 43 8 22 38 6 34 -18z"/>
<path d="M1893 1690 c-18 -27 -33 -54 -33 -60 0 -5 16 -10 36 -10 28 0 35 -3
30 -15 -3 -9 0 -15 9 -15 8 0 15 7 15 15 0 8 5 15 10 15 6 0 10 7 10 15 0 8
-4 15 -10 15 -5 0 -10 20 -10 45 0 59 -16 58 -57 -5z m28 -43 c-17 -17 -24 -1
-10 25 12 21 14 21 17 4 2 -10 -1 -23 -7 -29z"/>
<path d="M2011 1726 c-16 -20 3 -30 29 -16 16 9 22 8 27 -6 4 -10 0 -20 -10
-25 -30 -17 -47 -40 -47 -65 0 -22 4 -24 45 -24 25 0 45 5 45 10 0 6 -17 10
-37 10 l-38 1 38 32 c38 32 47 63 25 85 -16 16 -63 15 -77 -2z"/>
<path d="M963 1523 c48 -2 126 -2 175 0 48 1 8 3 -88 3 -96 0 -136 -2 -87 -3z"/>
<path d="M1893 1523 c48 -2 126 -2 175 0 48 1 8 3 -88 3 -96 0 -136 -2 -87 -3z"/>
<path d="M860 1465 c7 -8 10 -21 7 -30 -4 -8 -2 -17 2 -20 5 -2 11 11 13 30 3
29 1 35 -15 35 -16 0 -17 -3 -7 -15z"/>
<path d="M930 1450 c0 -18 6 -33 15 -37 19 -7 34 5 20 15 -16 11 -17 34 -3 43
9 6 6 9 -9 9 -19 0 -23 -5 -23 -30z"/>
<path d="M1012 1448 c2 -22 9 -34 21 -36 15 -3 18 2 15 30 -2 22 -9 34 -21 36
-15 3 -18 -2 -15 -30z m15 -10 c-3 -7 -5 -2 -5 12 0 14 2 19 5 13 2 -7 2 -19
0 -25z"/>
<path d="M1092 1448 c4 -47 32 -45 35 2 l1 35 -8 -30 -8 -30 -1 28 c0 15 -6
27 -12 27 -6 0 -9 -14 -7 -32z"/>
<path d="M1176 1450 c1 -44 14 -50 14 -7 0 21 -3 37 -7 37 -5 0 -8 -14 -7 -30z"/>
<path d="M1241 1448 c-1 -28 3 -38 14 -38 8 0 15 5 15 10 0 6 -4 10 -9 10 -5
0 -12 12 -14 28 -3 22 -4 20 -6 -10z"/>
<path d="M1317 1473 c-4 -3 -7 -20 -6 -37 0 -17 3 -25 6 -17 4 11 7 11 14 0
12 -20 17 -8 12 29 -5 31 -13 39 -26 25z"/>
<path d="M1447 1448 c2 -44 3 -46 13 -23 7 17 9 17 9 3 1 -10 6 -18 12 -18 6
0 8 7 5 16 -3 9 -6 24 -6 35 0 11 -7 19 -17 19 -14 0 -18 -8 -16 -32z"/>
<path d="M1530 1445 c0 -24 5 -35 15 -35 8 0 15 5 15 10 0 6 -6 10 -12 10 -10
0 -9 3 1 9 10 6 10 10 1 16 -9 6 -9 10 1 16 11 7 10 9 -3 9 -14 0 -18 -8 -18
-35z"/>
<path d="M1607 1473 c-4 -3 1 -15 10 -26 17 -20 17 -20 0 -14 -13 5 -17 3 -15
-5 7 -19 32 -16 36 5 2 9 -1 17 -7 17 -6 0 -11 5 -11 11 0 5 5 7 10 4 6 -3 10
-1 10 4 0 12 -23 15 -33 4z"/>
<path d="M1680 1450 c0 -18 6 -33 15 -37 19 -7 34 5 20 15 -16 11 -17 34 -3
43 9 6 6 9 -9 9 -19 0 -23 -5 -23 -30z"/>
<path d="M1761 1443 c1 -21 3 -30 6 -20 5 18 5 18 18 1 11 -16 13 -14 11 16
-1 24 -7 36 -19 38 -14 3 -17 -4 -16 -35z"/>
<path d="M1846 1450 c10 -55 17 -55 29 -2 4 20 3 32 -4 32 -6 0 -11 -6 -11
-12 0 -9 -4 -8 -11 2 -7 11 -8 6 -3 -20z"/>
<path d="M1926 1464 c-3 -9 -6 -25 -5 -37 0 -13 3 -16 6 -8 4 11 7 11 14 0 12
-20 17 -8 12 29 -6 34 -17 42 -27 16z"/>
<path d="M2060 1444 c0 -45 24 -42 28 4 2 24 -1 32 -12 32 -12 0 -16 -10 -16
-36z m17 -6 c-3 -7 -5 -2 -5 12 0 14 2 19 5 13 2 -7 2 -19 0 -25z"/>
<path d="M2140 1445 c0 -24 5 -35 15 -35 8 0 15 5 15 10 0 6 -6 10 -12 10 -10
0 -9 3 1 9 10 6 10 10 1 16 -9 6 -9 10 1 16 11 7 10 9 -3 9 -14 0 -18 -8 -18
-35z"/>
<path d="M485 1379 c-63 -9 -104 -24 -133 -52 -58 -53 -68 -126 -26 -176 30
-35 53 -42 30 -9 -51 73 29 158 149 158 64 0 121 -26 167 -78 45 -49 61 -106
56 -189 -7 -110 -59 -138 -166 -88 -30 14 -60 25 -68 25 -20 0 -18 8 16 47 30
33 30 35 30 153 0 66 -4 120 -8 120 -4 0 -23 -13 -42 -29 l-35 -29 -3 -121 -4
-121 -32 0 c-39 0 -71 -22 -92 -62 -19 -36 -14 -45 11 -18 24 27 53 25 122 -7
41 -19 79 -28 130 -31 98 -6 149 23 188 102 51 104 44 217 -18 298 -63 83
-162 122 -272 107z m141 -40 c8 -6 14 -8 14 -5 0 11 62 -34 91 -66 45 -49 68
-186 40 -235 -8 -14 -11 -9 -12 27 -1 25 -2 51 -2 58 1 6 -3 12 -8 12 -5 0 -9
7 -9 15 0 24 -28 73 -62 111 -47 51 -114 71 -225 66 -19 -1 -50 -16 -77 -37
-45 -34 -55 -20 -12 18 24 22 76 50 76 42 0 -3 8 -1 18 4 22 13 150 6 168 -10z
m-107 -181 c-1 -54 -7 -93 -18 -113 -16 -30 -16 -29 -19 69 -3 94 5 126 30
126 5 0 8 -36 7 -82z m-89 -200 c0 20 53 9 80 -18 3 -3 10 -6 15 -7 6 -1 30
-11 55 -23 l45 -21 -40 4 c-48 4 -125 27 -125 37 0 4 -17 11 -37 15 -26 5 -33
9 -23 15 9 6 17 4 22 -3 6 -9 8 -9 8 1z"/>
<path d="M1345 1355 c-22 -8 -41 -15 -42 -15 -1 0 -9 -13 -18 -30 -16 -31 -7
-41 15 -15 19 23 73 18 143 -12 75 -32 151 -36 191 -9 39 25 44 13 5 -14 -54
-39 -59 -65 -59 -313 0 -184 -3 -227 -15 -237 -23 -19 -49 -4 -105 60 -64 74
-93 90 -167 90 -57 0 -168 -26 -212 -50 -17 -9 -30 -8 -59 1 -45 15 -160 16
-187 2 -14 -8 -35 -8 -70 0 -69 14 -119 2 -163 -37 -20 -18 -47 -36 -59 -40
-29 -9 -73 -62 -73 -87 0 -41 29 -77 75 -94 63 -25 146 -13 263 35 l94 38 44
-16 c24 -9 44 -19 44 -22 0 -3 -14 -11 -30 -17 -25 -9 -36 -9 -58 4 -35 20
-75 11 -107 -23 -20 -22 -27 -24 -45 -14 -12 6 -24 9 -28 6 -3 -4 8 -11 24
-18 24 -9 31 -17 31 -38 0 -66 69 -110 171 -110 102 0 177 40 216 114 14 27
19 29 80 30 73 2 111 22 135 71 12 25 12 32 0 54 -8 14 -25 30 -37 36 -12 5
-22 17 -22 27 0 46 -87 72 -158 47 -27 -9 -36 -8 -64 12 l-32 23 69 23 c124
39 159 30 232 -62 57 -71 76 -86 122 -92 52 -7 83 1 121 33 62 52 65 66 70
328 l5 238 43 38 c23 21 42 40 42 43 0 3 -16 -1 -35 -9 -48 -20 -122 -18 -190
6 -82 28 -151 33 -200 15z m120 -19 c25 -2 96 -26 111 -37 6 -5 15 -5 19 -1 5
4 5 2 1 -5 -9 -17 -110 -9 -140 11 -14 9 -32 16 -41 16 -8 0 -15 4 -15 8 0 15
14 23 29 16 9 -4 25 -7 36 -8z m189 -317 c-4 -170 -8 -228 -20 -250 -8 -16
-17 -29 -20 -29 -2 0 -4 104 -4 230 1 160 5 230 12 230 6 0 8 3 5 7 -8 7 11
33 23 33 5 0 6 -100 4 -221z m-222 -253 c22 -28 44 -52 49 -54 16 -6 10 -22
-9 -22 -16 0 -111 98 -108 112 0 4 -8 14 -19 22 -19 15 -18 15 13 5 21 -7 49
-31 74 -63z m-425 26 c10 -6 4 -13 -23 -25 -35 -17 -38 -17 -91 5 -50 20 -53
23 -32 30 27 8 125 1 146 -10z m-195 -16 c105 -39 107 -40 58 -64 -36 -18 -46
-19 -73 -8 -18 7 -41 16 -52 20 -19 7 -18 9 10 32 17 13 25 24 18 24 -6 0 -24
-10 -40 -23 -21 -18 -34 -22 -53 -16 -14 4 -40 7 -58 8 -39 1 -34 17 12 37 47
20 103 17 178 -10z m288 -46 c69 -70 69 -85 -2 -49 l-42 21 25 15 c16 10 18
12 4 8 -46 -16 -54 -16 -86 0 l-33 18 35 18 c19 10 37 18 41 19 4 0 30 -23 58
-50z m192 3 c27 -24 23 -30 -29 -36 -27 -4 -57 -9 -68 -12 -15 -5 -25 2 -38
24 l-18 30 28 7 c15 3 33 7 38 9 19 7 69 -5 87 -22z m-690 -78 c13 -8 32 -15
44 -15 14 0 23 -8 27 -22 2 -13 8 -31 12 -40 6 -16 0 -18 -59 -18 -70 0 -119
17 -130 45 -12 33 -6 72 17 92 36 33 51 33 60 2 4 -16 17 -35 29 -44z m52 65
c27 -1 37 -16 27 -43 -18 -46 -80 -25 -96 32 -7 23 -5 24 25 17 18 -3 38 -6
44 -6z m344 -25 c2 -2 -13 -12 -35 -23 -36 -18 -40 -19 -78 -2 l-40 17 39 20
c37 19 43 19 75 6 20 -8 38 -17 39 -18z m-241 -6 l28 -12 -44 -13 c-50 -16
-55 -14 -46 15 7 24 21 26 62 10z m311 -61 c-40 -18 -45 -18 -86 -2 l-44 16
38 22 39 22 48 -19 48 -20 -43 -19z m232 52 c0 -16 -37 -30 -79 -30 -51 0 -54
17 -3 25 20 4 42 8 47 10 20 7 35 5 35 -5z m52 -17 c52 -47 -5 -113 -98 -113
-51 0 -64 9 -64 45 0 29 3 32 24 28 27 -5 84 21 93 43 7 19 22 18 45 -3z
m-508 -8 c20 -8 36 -17 36 -19 0 -5 -158 -66 -170 -66 -6 0 -30 52 -30 66 0 2
10 4 23 5 12 0 38 6 57 13 47 18 43 18 84 1z m316 -34 c5 -11 10 -29 10 -41 0
-17 -4 -21 -17 -15 -10 3 -37 11 -60 18 -24 6 -43 14 -43 17 0 9 62 39 82 39
10 1 22 -8 28 -18z m-90 -61 c28 -11 60 -20 70 -20 24 0 24 -3 6 -39 -20 -37
-79 -89 -114 -98 -15 -5 -56 -8 -92 -8 -73 0 -121 22 -139 62 -18 40 -14 53
19 53 17 0 47 7 67 15 45 19 43 19 43 -6 0 -16 -4 -19 -20 -14 -22 7 -28 -10
-6 -18 18 -7 36 12 36 40 0 14 10 28 28 37 36 20 42 20 102 -4z m-176 4 c9 -3
16 -9 16 -13 0 -9 -109 -35 -117 -28 -2 3 5 15 16 26 21 21 55 27 85 15z"/>
<path d="M2123 1327 c-56 -11 -67 -21 -33 -30 19 -5 20 -14 20 -170 0 -173 -3
-197 -26 -197 -8 0 -14 -4 -14 -10 0 -6 32 -10 75 -10 41 0 75 3 75 6 0 3 -7
12 -15 21 -13 13 -16 47 -15 206 1 105 -2 192 -7 193 -4 0 -32 -4 -60 -9z m46
-207 c-3 -164 -5 -180 -20 -180 -16 0 -18 15 -17 180 1 170 2 180 20 180 18 0
19 -8 17 -180z"/>
<path d="M2286 1297 c-38 -27 2 -95 42 -71 24 16 28 55 6 71 -10 7 -21 13 -24
13 -3 0 -14 -6 -24 -13z m36 -35 c-7 -2 -9 -9 -6 -14 4 -7 2 -8 -4 -4 -19 12
-15 36 5 29 11 -4 13 -8 5 -11z"/>
<path d="M963 1199 c-74 -15 -117 -71 -116 -151 1 -85 58 -138 148 -138 89 0
148 58 148 145 0 97 -84 165 -180 144z m56 -38 c37 -37 53 -144 29 -196 -14
-31 -52 -43 -75 -24 -53 44 -59 198 -9 231 18 13 35 9 55 -11z m81 -43 c21
-35 27 -93 10 -103 -6 -4 -8 -9 -6 -13 2 -4 -2 -16 -10 -26 -12 -17 -13 -12
-13 45 0 35 -3 79 -5 97 -3 17 -3 32 0 32 2 0 13 -15 24 -32z m-196 -30 c-1
-28 4 -69 12 -91 17 -47 17 -47 4 -47 -23 0 -50 64 -46 112 3 38 18 78 31 78
1 0 1 -23 -1 -52z"/>
<path d="M2521 1199 c-97 -20 -147 -125 -104 -216 23 -49 66 -73 131 -73 89 0
142 46 150 130 10 102 -77 180 -177 159z m65 -56 c69 -103 12 -272 -64 -190
-26 28 -46 107 -38 149 16 81 62 100 102 41z m83 -59 c8 -43 -2 -96 -21 -112
-10 -8 -12 1 -10 41 2 29 -4 76 -11 106 l-15 53 25 -25 c14 -13 28 -42 32 -63z
m-205 44 c-11 -18 -4 -104 12 -151 l14 -42 -30 33 c-28 30 -37 63 -30 112 2
17 28 60 36 60 3 0 2 -5 -2 -12z"/>
<path d="M1210 1185 c-30 -7 -57 -14 -60 -14 -3 -1 6 -7 20 -14 24 -12 25 -18
28 -104 2 -82 0 -95 -18 -113 -11 -11 -20 -22 -20 -25 0 -3 34 -5 75 -5 70 0
95 10 60 24 -12 4 -15 26 -15 110 0 113 2 116 60 116 36 0 40 -12 40 -125 0
-85 -2 -94 -22 -108 -22 -15 -18 -16 60 -16 84 -1 97 5 62 27 -18 11 -20 23
-20 121 0 92 -3 110 -18 124 -23 21 -93 22 -132 2 -27 -14 -30 -14 -30 0 0 8
-3 14 -7 14 -5 -1 -33 -7 -63 -14z m222 -28 c7 -12 9 -207 2 -219 -3 -4 -11
-5 -19 -2 -10 4 -14 29 -13 106 0 59 -5 105 -11 111 -6 6 -11 15 -11 20 0 11
43 -2 52 -16z m-173 -13 c-6 -8 -10 -47 -8 -101 3 -85 -3 -119 -20 -108 -5 2
-9 48 -10 100 -1 53 -4 102 -7 109 -6 15 21 26 44 18 9 -3 10 -8 1 -18z"/>
<path d="M1995 1189 c-11 -4 -37 -8 -57 -8 -41 -1 -51 -15 -18 -24 19 -5 21
-12 18 -109 l-3 -103 -33 -3 c-56 -6 -62 7 -62 135 l0 114 -37 -8 c-21 -4 -48
-7 -60 -8 -28 0 -29 -6 -3 -23 18 -11 20 -23 20 -112 0 -87 3 -103 20 -120 24
-24 92 -27 134 -5 35 19 37 19 29 -2 -5 -14 -1 -15 27 -10 18 4 45 7 61 7 16
0 29 5 29 10 0 6 -7 10 -15 10 -20 0 -25 26 -28 156 -2 107 -3 111 -22 103z
m0 -145 c0 -93 -2 -109 -16 -112 -15 -3 -17 11 -18 112 -2 104 0 114 16 112
16 -3 18 -15 18 -112z m-177 10 c-1 -59 3 -99 11 -107 17 -17 13 -27 -6 -20
-35 12 -43 35 -43 130 0 85 2 93 19 93 18 0 20 -7 19 -96z"/>
<path d="M2293 1186 c-55 -12 -80 -26 -46 -26 28 0 33 -17 33 -116 0 -71 -3
-87 -20 -104 -11 -11 -20 -22 -20 -25 0 -3 34 -5 75 -5 70 0 95 10 60 24 -12
4 -15 29 -15 136 0 71 -3 129 -7 129 -5 -1 -31 -7 -60 -13z m37 -33 c6 -153 4
-193 -10 -194 -10 0 -8 -3 5 -9 18 -8 15 -10 -12 -10 -5 0 -10 49 -13 110 -5
100 -3 110 13 110 9 0 17 -3 17 -7z"/>
</g>
</svg>
