<?xml version="1.0" standalone="no"?>
<!DOCTYPE svg PUBLIC "-//W3C//DTD SVG 20010904//EN"
 "http://www.w3.org/TR/2001/REC-SVG-20010904/DTD/svg10.dtd">
<svg version="1.0" xmlns="http://www.w3.org/2000/svg"
 width="300.000000pt" height="116.000000pt" viewBox="0 0 300.000000 116.000000"
 preserveAspectRatio="xMidYMid meet">
<metadata>
Created by potrace 1.10, written by Peter Selinger 2001-2011
</metadata>
<g transform="translate(0.000000,116.000000) scale(0.100000,-0.100000)"
fill="#cccccc" stroke="none">
<path d="M2614 858 c-5 -8 -2 -9 10 -5 13 5 17 3 13 -7 -3 -8 2 -25 13 -38 15
-18 21 -21 31 -10 9 8 10 12 1 12 -6 0 -9 7 -5 16 11 29 -47 59 -63 32z"/>
<path d="M2596 821 c-3 -5 0 -14 8 -20 11 -9 15 -7 19 9 5 20 -16 29 -27 11z"/>
<path d="M2606 772 c-4 -7 -5 -16 -2 -21 4 -5 -2 -7 -13 -4 -25 6 -35 -24 -16
-53 20 -31 19 -41 -5 -49 -12 -4 -20 -14 -18 -23 1 -9 -1 -22 -5 -28 -15 -25
23 -23 40 2 11 18 22 24 36 20 23 -6 58 31 50 52 -4 10 1 11 21 6 20 -5 26 -2
26 10 0 15 -12 21 -34 17 -12 -3 -57 40 -65 63 -5 13 -10 16 -15 8z m28 -71
c15 -17 13 -51 -3 -51 -8 0 -31 45 -31 60 0 16 16 12 34 -9z"/>
<path d="M2640 750 c0 -6 7 -10 15 -10 8 0 15 2 15 4 0 2 -7 6 -15 10 -8 3
-15 1 -15 -4z"/>
<path d="M2685 740 c3 -5 1 -10 -5 -10 -6 0 -8 -5 -5 -10 4 -6 11 -8 16 -5 12
8 11 35 -2 35 -5 0 -7 -4 -4 -10z"/>
<path d="M2641 559 c-35 -55 -61 -102 -59 -104 3 -4 125 173 136 198 2 4 0 7
-5 7 -4 0 -37 -45 -72 -101z"/>
<path d="M2515 579 c-4 -6 -5 -12 -2 -15 2 -3 7 2 10 11 7 17 1 20 -8 4z"/>
<path d="M2508 463 c-8 -10 -19 -25 -23 -33 -8 -13 -7 -13 9 -1 16 14 41 51
33 51 -2 0 -11 -8 -19 -17z"/>
<path d="M308 448 c15 -15 16 -142 1 -169 -8 -16 -13 -18 -25 -8 -16 13 -30 6
-19 -10 10 -16 41 -13 56 5 9 10 16 52 19 106 l5 88 -24 0 c-20 0 -22 -3 -13
-12z"/>
<path d="M1396 452 c7 -4 22 -40 34 -79 12 -40 25 -73 30 -73 4 0 16 30 27 68
l19 67 19 -68 c10 -37 23 -66 29 -64 5 2 18 30 28 63 9 32 22 67 28 77 8 14 7
17 -9 17 -10 0 -18 -6 -18 -12 1 -23 -15 -98 -23 -103 -9 -6 -33 92 -25 105 4
6 -7 10 -27 10 -18 0 -28 -4 -22 -8 7 -5 5 -24 -6 -61 l-17 -54 -15 54 c-11
39 -12 56 -4 61 6 4 -5 8 -24 8 -19 0 -30 -4 -24 -8z"/>
<path d="M2325 450 c-4 -7 -3 -16 3 -22 14 -14 45 -2 40 15 -6 16 -34 21 -43
7z"/>
<path d="M2650 440 c0 -5 5 -10 11 -10 5 0 7 5 4 10 -3 6 -8 10 -11 10 -2 0
-4 -4 -4 -10z"/>
<path d="M2512 420 c-18 -11 -35 -28 -38 -38 -3 -9 -9 -24 -14 -34 -7 -12 -3
-20 15 -32 28 -18 45 -21 45 -6 0 6 -4 10 -9 10 -5 0 -13 9 -16 21 -5 15 2 32
25 60 17 21 30 39 28 39 -2 0 -18 -9 -36 -20z"/>
<path d="M417 412 c-22 -25 -21 -75 1 -95 61 -55 144 23 96 91 -19 28 -74 30
-97 4z m69 0 c22 -14 26 -52 9 -78 -21 -33 -56 -29 -69 8 -18 50 21 96 60 70z"/>
<path d="M575 365 c0 -59 2 -65 21 -65 17 0 20 5 16 30 -4 28 -2 30 28 30 30
0 32 -2 28 -30 -4 -27 -2 -30 21 -30 19 0 22 3 13 12 -7 7 -12 30 -12 53 0 23
5 46 12 53 9 9 6 12 -13 12 -22 0 -25 -4 -21 -27 3 -26 1 -28 -28 -28 -29 0
-31 2 -27 28 3 22 0 27 -17 27 -19 0 -21 -6 -21 -65z"/>
<path d="M750 415 c8 -10 11 -33 8 -65 -5 -45 -3 -50 15 -50 16 0 18 3 9 12
-7 7 -12 30 -12 51 l0 40 41 -52 c22 -28 44 -51 48 -51 4 0 7 24 7 53 0 29 4
58 8 65 4 8 1 12 -11 12 -15 0 -18 -7 -15 -47 l4 -48 -37 48 c-23 28 -46 47
-58 47 -16 0 -17 -3 -7 -15z"/>
<path d="M919 421 c10 -6 12 -24 9 -65 -4 -51 -3 -56 16 -56 15 0 17 3 8 12
-7 7 -12 30 -12 51 l0 40 41 -52 c22 -28 44 -51 48 -51 4 0 7 24 7 53 0 29 4
58 8 65 4 8 1 12 -11 12 -15 0 -18 -7 -15 -47 l4 -48 -37 48 c-24 30 -45 47
-59 47 -16 0 -18 -2 -7 -9z"/>
<path d="M1095 365 c0 -62 1 -65 25 -65 19 0 21 3 12 12 -16 16 -16 105 1 111
6 3 1 6 -13 6 -24 1 -25 -1 -25 -64z"/>
<path d="M1185 365 l0 -65 48 0 c32 0 47 4 47 13 0 9 -11 12 -35 9 -31 -4 -35
-1 -35 18 0 18 4 21 25 18 16 -3 25 -1 25 7 0 8 -9 10 -25 7 -21 -3 -25 0 -25
18 0 19 4 22 34 18 24 -3 32 0 29 9 -3 8 -22 13 -47 13 l-41 0 0 -65z"/>
<path d="M1674 393 c-8 -21 -21 -50 -29 -65 -13 -26 -13 -28 6 -28 11 0 18 4
15 9 -11 17 6 41 29 41 26 0 42 -29 23 -42 -8 -5 -2 -8 17 -8 l31 0 -30 65
c-17 36 -34 65 -39 65 -4 0 -15 -17 -23 -37z m35 -25 c1 -5 -6 -8 -15 -8 -11
0 -14 5 -10 16 3 9 6 21 7 27 0 12 17 -20 18 -35z"/>
<path d="M1805 365 l0 -65 43 0 c28 0 42 4 42 13 0 9 -10 12 -30 9 -29 -4 -30
-3 -30 40 0 24 5 49 12 56 9 9 7 12 -12 12 -24 0 -25 -3 -25 -65z"/>
<path d="M1928 418 c7 -7 12 -30 12 -53 0 -23 -5 -46 -12 -53 -9 -9 -6 -12 13
-12 23 0 25 3 21 33 l-5 32 26 -24 c15 -13 24 -28 21 -32 -3 -5 7 -9 22 -9
l28 0 -38 39 -37 38 33 27 c30 24 31 26 11 26 -13 0 -23 -5 -23 -10 0 -6 -10
-21 -21 -33 l-21 -22 4 33 c4 29 2 32 -21 32 -19 0 -22 -3 -13 -12z"/>
<path d="M2085 365 l0 -65 48 0 c32 0 47 4 47 13 0 9 -11 12 -35 9 -31 -4 -35
-1 -35 18 0 19 4 22 30 18 24 -4 30 -1 30 14 0 16 -3 16 -20 6 -23 -15 -46 1
-37 26 5 12 13 13 36 6 24 -7 31 -5 31 6 0 10 -13 14 -47 14 l-48 0 0 -65z"/>
<path d="M2225 365 c0 -61 2 -65 22 -65 20 0 21 3 13 26 -13 32 -13 34 3 34 6
0 20 -14 29 -30 9 -17 24 -30 33 -30 13 0 11 6 -7 31 -21 28 -22 31 -5 40 36
21 3 59 -51 59 l-37 0 0 -65z m64 46 c19 -12 6 -41 -19 -41 -18 0 -21 13 -11
48 2 5 16 1 30 -7z"/>
<path d="M2697 410 c-8 -22 -3 -60 9 -68 6 -4 14 -15 17 -26 6 -15 10 -16 22
-6 19 16 19 30 0 30 -8 0 -16 5 -16 10 -2 14 -4 22 -16 50 -8 19 -12 21 -16
10z"/>
<path d="M2670 396 c0 -8 4 -17 9 -20 5 -4 7 3 4 14 -6 23 -13 26 -13 6z"/>
</g>
</svg>
